<?xml version="1.0" encoding="utf-8"?>
<!-- Generator: Adobe Illustrator 16.0.0, SVG Export Plug-In . SVG Version: 6.00 Build 0)  -->
<!DOCTYPE svg PUBLIC "-//W3C//DTD SVG 1.1//EN" "http://www.w3.org/Graphics/SVG/1.1/DTD/svg11.dtd">
<svg version="1.1" id="Layer_1" xmlns="http://www.w3.org/2000/svg" xmlns:xlink="http://www.w3.org/1999/xlink" x="0px" y="0px"
	 width="300px" height="300px" viewBox="0 0 300 300" enable-background="new 0 0 300 300" xml:space="preserve">
<g>
	<path fill="none" stroke="#213266" stroke-width="1.9076" stroke-miterlimit="10" d="M119.399,109.139
		c0,2.982,2.418,5.407,5.404,5.407c0,0,5.642,0,17.803,0c37.359,0,57.229-50.788,81.191-50.788c11.327,0,11.327,0,11.327,0
		c2.987,0,5.406-2.426,5.406-5.411V30.693c0-2.988-2.419-5.41-5.406-5.41c0,0-5.724,0-11.327,0
		c-27.062,0-53.531,50.792-81.191,50.792c-10.014,0-17.803,0-17.803,0c-2.987,0-5.404,2.419-5.404,5.407V109.139z"/>
	<path fill="#213266" d="M189.342,99.623c0,0-21.1,20.881-38.057,20.881c-21.166,0-96.025,0-96.025,0
		c-2.989,0-5.411,2.425-5.411,5.407v23.29c0,2.982,2.42,5.404,5.405,5.404c0,0,82.923,0,104.757,0
		c20.505,0,29.33-20.889,29.33-20.889V99.623z"/>
	<path fill="#213266" d="M250.15,89.923c0,10.656-8.641,19.3-19.296,19.3c-10.656,0-19.292-8.644-19.292-19.3
		c0-10.652,8.636-19.295,19.292-19.295C241.508,70.627,250.15,79.271,250.15,89.923z"/>
	<path fill="none" stroke="#213266" stroke-width="1.7308" stroke-miterlimit="10" d="M98.492,180.891
		c0,9.672-7.838,17.511-17.501,17.511c-9.675,0-17.51-7.842-17.51-17.511c0-9.664,7.835-17.505,17.51-17.505
		C90.655,163.386,98.492,171.227,98.492,180.891z"/>
	<path fill="none" stroke="#213266" stroke-width="1.7308" stroke-miterlimit="10" d="M137.657,180.891
		c0,9.672-7.842,17.511-17.511,17.511c-9.664,0-17.505-7.842-17.505-17.511c0-9.664,7.842-17.505,17.505-17.505
		C129.816,163.386,137.657,171.227,137.657,180.891z"/>
	<path fill="none" stroke="#213266" stroke-width="1.7308" stroke-miterlimit="10" d="M176.816,180.891
		c0,9.672-7.836,17.511-17.502,17.511c-9.67,0-17.51-7.842-17.51-17.511c0-9.664,7.84-17.505,17.51-17.505
		C168.98,163.386,176.816,171.227,176.816,180.891z"/>
</g>
<g>
	<path fill="#213266" d="M32.052,241.489c-2.544,0-4.266-0.428-5.162-1.289c-1.066,0.861-2.103,1.289-3.108,1.289H6.769
		c-1.37,0-2.496-0.551-3.38-1.653c-0.836-1.041-1.254-2.248-1.254-3.617v-4.944h3.217v4.472c0,0.896,0.185,1.536,0.555,1.918
		c0.37,0.382,1.014,0.573,1.936,0.573h14.994c0.449,0,0.82-0.046,1.118-0.137c0.297-0.091,0.537-0.236,0.718-0.437
		c0.181-0.2,0.309-0.458,0.382-0.772c0.073-0.314,0.109-0.697,0.109-1.146v-4.47h3.325v4.47c0,1.66,1.187,2.491,3.563,2.491V241.489
		z M14.422,225.95c0,0.267-0.051,0.515-0.154,0.745c-0.103,0.231-0.245,0.43-0.427,0.601c-0.183,0.169-0.397,0.302-0.646,0.399
		c-0.249,0.098-0.512,0.146-0.791,0.146c-1.516,0-2.272-0.629-2.272-1.89c0-1.187,0.685-1.782,2.054-1.782
		C13.675,224.167,14.422,224.763,14.422,225.95z M20.709,225.95c0,0.533-0.207,0.981-0.619,1.346
		c-0.412,0.363-0.908,0.544-1.49,0.544c-1.515,0-2.272-0.63-2.272-1.89c0-1.188,0.702-1.781,2.107-1.781
		C19.953,224.167,20.709,224.763,20.709,225.95z"/>
	<path fill="#213266" d="M42.975,241.489h-0.982c-2.132,0-3.698-0.428-4.698-1.289c-0.748,0.666-1.436,1.06-2.063,1.181
		c-0.412,0.072-1.836,0.108-4.271,0.108v-3.254h2.272c1.029,0,1.708-0.283,2.035-0.854c0.242-0.35,0.364-1.114,0.364-2.29v-14.358
		h3.253v15.014c0,0.581,0.091,1.051,0.273,1.408c0.183,0.357,0.437,0.608,0.764,0.754c0.364,0.134,1.382,0.241,3.054,0.327v3.254
		H42.975z"/>
	<path fill="#213266" d="M56.661,235.419c0,1.843-0.467,3.351-1.399,4.526c-1.029,1.345-2.442,2.017-4.235,2.017
		c-0.691,0-1.344-0.107-1.962-0.326c-0.618-0.219-1.188-0.526-1.709-0.927c-1.066,0.448-2.884,0.708-5.453,0.782v-3.254
		c1.818,0,2.884-0.175,3.199-0.527v0.019c0.024-0.06,0.052-0.31,0.083-0.746c0.03-0.435,0.058-1.023,0.083-1.762
		c0.097-2.133,0.636-3.781,1.617-4.944c0.982-1.163,2.405-1.743,4.271-1.743c1.781,0,3.187,0.714,4.217,2.144
		C56.23,231.936,56.661,233.516,56.661,235.419z M53.771,235.22c0-2.352-0.915-3.526-2.745-3.526c-1.867,0-2.798,1.211-2.798,3.635
		c0,2.253,0.933,3.38,2.798,3.38C52.856,238.708,53.771,237.546,53.771,235.22z"/>
	<path fill="#213266" d="M97.428,241.489c-2.544,0-4.266-0.428-5.161-1.289c-1.067,0.861-2.103,1.289-3.108,1.289H72.146
		c-1.369,0-2.496-0.551-3.38-1.653c-0.836-1.041-1.254-2.248-1.254-3.617v-4.944h3.218v4.472c0,0.896,0.185,1.536,0.555,1.918
		c0.37,0.382,1.014,0.573,1.936,0.573h14.994c0.449,0,0.82-0.046,1.118-0.137c0.296-0.091,0.536-0.236,0.718-0.437
		c0.181-0.2,0.309-0.458,0.382-0.772c0.073-0.314,0.109-0.697,0.109-1.146v-4.47h3.326v4.47c0,1.66,1.187,2.491,3.562,2.491
		L97.428,241.489L97.428,241.489z M79.798,225.95c0,0.267-0.052,0.515-0.154,0.745c-0.104,0.231-0.246,0.43-0.428,0.601
		c-0.182,0.169-0.397,0.302-0.646,0.399s-0.512,0.146-0.791,0.146c-1.516,0-2.272-0.629-2.272-1.89c0-1.187,0.685-1.782,2.054-1.782
		C79.053,224.167,79.798,224.763,79.798,225.95z M86.087,225.95c0,0.533-0.207,0.981-0.619,1.346
		c-0.412,0.363-0.908,0.544-1.489,0.544c-1.515,0-2.272-0.63-2.272-1.89c0-1.188,0.702-1.781,2.107-1.781
		C85.329,224.167,86.087,224.763,86.087,225.95z"/>
	<path fill="#213266" d="M107.644,239.437c-0.874,0.496-1.779,0.896-2.717,1.2c-0.938,0.302-1.869,0.509-2.79,0.617
		c-0.497,0.086-1.229,0.147-2.199,0.183c-0.97,0.036-2.169,0.055-3.6,0.055v-3.254c2.108,0,3.893-0.104,5.353-0.31
		c1.46-0.205,2.614-0.509,3.463-0.907h-0.019c-0.024,0,0.084-0.065,0.326-0.192s0.563-0.293,0.964-0.499
		c0.157-0.085,0.33-0.176,0.518-0.273c0.188-0.097,0.385-0.199,0.591-0.31h-0.019c0.279-0.169,0.618-0.359,1.017-0.572
		c0.401-0.212,0.849-0.457,1.346-0.735c0.242-0.134,0.496-0.274,0.763-0.419c0.267-0.146,0.539-0.296,0.817-0.453
		c-0.206-0.412-0.488-0.76-0.846-1.046c-0.357-0.283-0.772-0.487-1.245-0.609c-0.424-0.097-1.357-0.146-2.798-0.146l-5.744-0.071
		l-0.435-3.162h7.997c4.398,0,6.598,2.229,6.598,6.688L107.644,239.437z M108.787,222.75c0,0.644-0.217,1.181-0.653,1.617
		c-0.437,0.438-0.97,0.654-1.601,0.654c-1.684,0-2.526-0.756-2.526-2.271c0-1.283,0.8-1.927,2.399-1.927
		C107.993,220.823,108.787,221.467,108.787,222.75z"/>
	<path fill="#213266" d="M122.419,241.489h-3.162v-20.755h3.162V241.489z"/>
	<path fill="#213266" d="M140.83,237.254c0,1.321-0.473,2.363-1.417,3.128c-0.921,0.737-2.036,1.107-3.344,1.107h-10.034
		l-0.491-3.254h10.27c1.175,0,1.763-0.424,1.763-1.271c0-0.205-0.042-0.405-0.128-0.6c-0.085-0.193-0.2-0.376-0.345-0.546
		c-1.2-1.271-2.417-2.558-3.653-3.861c-1.237-1.303-2.454-2.591-3.653-3.862l2.253-2.236l7.27,7.688
		c0.497,0.522,0.872,1.091,1.127,1.709C140.704,235.875,140.83,236.54,140.83,237.254z"/>
	<path fill="#213266" d="M157.243,241.489c-1.576,0-2.715-0.503-3.416-1.508c-0.015,2.689-0.698,4.938-2.055,6.742
		c-1.442,1.953-3.502,2.928-6.179,2.928h-4.182l-0.544-3.271h4.544c0.654,0,1.278-0.112,1.871-0.336
		c0.595-0.225,1.139-0.543,1.636-0.955c0.496-0.46,0.885-0.979,1.162-1.555c0.279-0.575,0.419-1.185,0.419-1.825v-10.433h3.287v4.67
		c0,1.431,1.152,2.193,3.455,2.291v3.252H157.243z"/>
	<path fill="#213266" d="M160.278,246.543c0,1.188-0.686,1.779-2.055,1.779c-1.563,0-2.344-0.592-2.344-1.779
		c0-0.292,0.055-0.559,0.163-0.801c0.109-0.241,0.257-0.45,0.446-0.625c0.188-0.176,0.408-0.313,0.664-0.408
		c0.254-0.099,0.526-0.146,0.817-0.146C159.509,244.562,160.278,245.222,160.278,246.543z M167.748,236.219
		c0,0.704-0.112,1.36-0.337,1.973c-0.224,0.611-0.541,1.16-0.954,1.645c-0.424,0.535-0.921,0.943-1.489,1.228
		c-0.57,0.284-1.181,0.426-1.837,0.426h-6.978v-3.252h5.942c0.873,0,1.479-0.191,1.818-0.573c0.34-0.382,0.508-1.021,0.508-1.918
		v-4.472h3.326V236.219L167.748,236.219z M163.277,251.123c0,1.163-0.697,1.744-2.091,1.744c-1.526,0-2.29-0.581-2.29-1.744
		c0-1.334,0.665-1.998,1.999-1.998c0.653,0,1.206,0.149,1.653,0.452C163.035,249.989,163.277,250.504,163.277,251.123z
		 M166.476,246.543c0,1.188-0.703,1.779-2.108,1.779c-1.515,0-2.271-0.592-2.271-1.779c0-0.57,0.2-1.05,0.6-1.436
		c0.424-0.365,0.902-0.546,1.437-0.546C165.694,244.562,166.476,245.222,166.476,246.543z"/>
	<path fill="#213266" d="M189.958,238.235v3.236h-0.637c-1.357,0-2.387-0.188-3.09-0.563c-0.134-0.097-0.466-0.385-1-0.864
		s-1.291-1.173-2.272-2.081c-1.247,2.606-3.234,3.908-5.96,3.908c-1.794,0-3.272-0.581-4.437-1.743
		c-1.163-1.164-1.743-2.654-1.743-4.473c0-0.448,0.09-0.933,0.272-1.453c0.182-0.521,0.437-1.061,0.763-1.617
		c0.328-0.557,0.725-1.128,1.19-1.708c0.467-0.582,0.978-1.163,1.536-1.745c-0.146-0.169-0.297-0.342-0.454-0.519
		c-0.158-0.175-0.31-0.348-0.454-0.518l2.163-2.236l9.777,10.306c0.801,0.885,1.315,1.406,1.547,1.563h-0.02
		c0.473,0.244,1.199,0.413,2.181,0.509h0.637V238.235z M180.106,235.875c0-0.776-0.2-1.353-0.6-1.729l-2.599-2.599
		c-0.448,0.449-0.839,0.839-1.173,1.173c-0.333,0.333-0.566,0.58-0.699,0.736c-0.619,0.825-0.927,1.63-0.927,2.418
		c0,0.813,0.284,1.49,0.854,2.036c0.569,0.534,1.262,0.799,2.072,0.799c0.388,0,0.766-0.072,1.137-0.217
		c0.369-0.146,0.707-0.352,1.009-0.619C179.798,237.293,180.106,236.625,180.106,235.875z"/>
	<path fill="#213266" d="M199.228,236.219c0,1.369-0.431,2.576-1.291,3.617c-0.873,1.103-2.005,1.653-3.398,1.653h-5.271v-3.252
		c3.393,0,5.271-0.073,5.634-0.219c0.702-0.241,1.055-1.218,1.055-2.927c0-0.133,0-0.291,0-0.473c0-0.181-0.007-0.394-0.02-0.635
		c0-0.109-0.003-0.225-0.009-0.346c-0.006-0.12-0.011-0.249-0.011-0.382c-0.012-0.364-0.018-0.736-0.018-1.118s0-0.669,0-0.864
		h3.326v4.944H199.228z M196.265,246.487c0,0.618-0.219,1.146-0.655,1.582c-0.207,0.205-0.449,0.365-0.728,0.481
		c-0.278,0.113-0.575,0.173-0.889,0.173c-1.649,0-2.473-0.745-2.473-2.236c0-1.296,0.775-1.945,2.328-1.945
		C195.459,244.542,196.265,245.191,196.265,246.487z"/>
	<path fill="#213266" d="M239.995,241.489c-2.545,0-4.266-0.428-5.162-1.289c-1.066,0.861-2.103,1.289-3.109,1.289h-17.01
		c-1.37,0-2.498-0.551-3.382-1.653c-0.835-1.041-1.254-2.248-1.254-3.617v-4.944h3.218v4.472c0,0.896,0.184,1.536,0.553,1.918
		s1.016,0.573,1.937,0.573h14.994c0.449,0,0.822-0.046,1.117-0.137c0.298-0.091,0.537-0.236,0.719-0.437
		c0.181-0.2,0.31-0.458,0.382-0.772s0.108-0.697,0.108-1.146v-4.47h3.325v4.47c0,1.66,1.188,2.491,3.563,2.491v3.252H239.995z
		 M222.365,225.95c0,0.267-0.053,0.515-0.155,0.745c-0.102,0.231-0.244,0.43-0.426,0.601c-0.182,0.169-0.398,0.302-0.646,0.399
		c-0.249,0.098-0.513,0.146-0.792,0.146c-1.514,0-2.271-0.629-2.271-1.89c0-1.187,0.684-1.782,2.053-1.782
		C221.62,224.167,222.365,224.763,222.365,225.95z M228.653,225.95c0,0.533-0.206,0.981-0.617,1.346
		c-0.412,0.363-0.91,0.544-1.492,0.544c-1.515,0-2.271-0.63-2.271-1.89c0-1.188,0.703-1.781,2.108-1.781
		C227.896,224.167,228.653,224.763,228.653,225.95z"/>
	<path fill="#213266" d="M253.936,237.056c0,2.956-1.66,4.434-4.98,4.434h-10.05v-3.252h10.05c0.861,0,1.29-0.515,1.29-1.546
		c0-0.425-0.139-0.774-0.417-1.053l-8.397-8.87l-0.49-3.617l11.868-4.289l0.437,3.235l-8.306,3.146
		c1.054,1.176,2.156,2.405,3.309,3.688c1.15,1.284,2.253,2.515,3.308,3.689c0.23,0.279,0.493,0.625,0.79,1.037
		c0.298,0.411,0.622,0.902,0.972,1.473C253.729,235.833,253.936,236.475,253.936,237.056z"/>
	<path fill="#213266" d="M270.33,241.489c-1.575,0-2.715-0.503-3.417-1.508c-0.012,2.689-0.698,4.938-2.053,6.742
		c-1.442,1.953-3.502,2.928-6.18,2.928h-4.182l-0.544-3.271h4.542c0.656,0,1.278-0.112,1.872-0.336
		c0.594-0.225,1.139-0.543,1.637-0.955c0.496-0.46,0.884-0.979,1.163-1.555s0.417-1.185,0.417-1.825v-10.433h3.289v4.67
		c0,1.431,1.152,2.193,3.454,2.291L270.33,241.489L270.33,241.489z"/>
	<path fill="#213266" d="M297.865,235.855c0,0.884-0.15,1.673-0.454,2.363c-0.302,0.689-0.725,1.271-1.264,1.744
		c-0.538,0.473-1.19,0.836-1.952,1.091c-0.763,0.255-1.606,0.382-2.527,0.382c-1.503,0-3.059-0.691-4.67-2.072
		c-1.601,1.355-3.157,2.035-4.671,2.035c-1.346,0-2.823-0.665-4.437-1.998l-0.182-0.109c-0.242,0.303-0.496,0.592-0.764,0.864
		c-0.267,0.272-0.559,0.506-0.881,0.7c-0.321,0.193-0.689,0.349-1.107,0.463c-0.419,0.114-0.906,0.173-1.463,0.173h-4.127v-3.254
		h4.107c1.043,0,1.778-0.27,2.209-0.808c0.43-0.539,0.646-1.348,0.646-2.427v-4.562h3.09v4.526c0,0.473,0.066,0.911,0.199,1.316
		c0.134,0.407,0.328,0.764,0.581,1.073c0.255,0.309,0.563,0.551,0.927,0.727c0.364,0.176,0.781,0.264,1.254,0.264
		c1.043,0,1.823-0.287,2.345-0.864c0.521-0.575,0.781-1.396,0.781-2.463v-4.579h3.126v4.689c0,0.97,0.276,1.747,0.828,2.335
		c0.551,0.589,1.293,0.882,2.226,0.882c1.006,0,1.764-0.272,2.272-0.817s0.763-1.321,0.763-2.327v-4.762h3.145V235.855
		L297.865,235.855z M286.27,224.623c0,0.582-0.199,1.072-0.6,1.473c-0.412,0.388-0.896,0.581-1.454,0.581
		c-0.304,0-0.594-0.048-0.873-0.146c-0.279-0.097-0.518-0.233-0.718-0.407c-0.199-0.176-0.36-0.392-0.481-0.646
		c-0.121-0.255-0.183-0.538-0.183-0.854c0-1.138,0.686-1.709,2.055-1.709C285.519,222.914,286.27,223.483,286.27,224.623z
		 M289.359,220.079c0,0.291-0.059,0.563-0.172,0.818c-0.116,0.256-0.271,0.479-0.464,0.672c-0.206,0.17-0.428,0.304-0.664,0.4
		c-0.236,0.099-0.488,0.146-0.754,0.146c-0.315,0-0.609-0.057-0.881-0.164c-0.272-0.107-0.513-0.248-0.718-0.418
		c-0.484-0.375-0.727-0.86-0.727-1.453c0-1.164,0.69-1.745,2.072-1.745C288.59,218.334,289.359,218.916,289.359,220.079z
		 M292.432,224.623c0,0.618-0.188,1.115-0.563,1.491c-0.377,0.374-0.855,0.563-1.438,0.563c-0.606,0-1.145-0.182-1.617-0.545
		c-0.449-0.376-0.672-0.879-0.672-1.509c0-1.138,0.678-1.709,2.036-1.709C291.68,222.914,292.432,223.483,292.432,224.623z"/>
</g>
</svg>
