<?xml version="1.0" encoding="utf-8"?>
<!-- Generator: Adobe Illustrator 19.0.0, SVG Export Plug-In . SVG Version: 6.00 Build 0)  -->
<svg version="1.1" id="Layer_1" xmlns="http://www.w3.org/2000/svg" xmlns:xlink="http://www.w3.org/1999/xlink" x="0px" y="0px"
	 viewBox="-270 148.3 300 300" style="enable-background:new -270 148.3 300 300;" xml:space="preserve">
<style type="text/css">
	.st0{fill:#7E746F;}
	.st1{fill:#691014;}
	.st2{fill:#171242;}
	.st3{fill:#3C3870;}
	.st4{fill:#591416;}
	.st5{fill:#36368B;}
	.st6{fill:#6C302B;}
	.st7{fill:#59549B;}
	.st8{fill:#7E4136;}
	.st9{fill:#8F5247;}
	.st10{fill:#5E53A2;}
	.st11{fill:#9B6353;}
	.st12{fill:#695EA3;}
	.st13{fill:#7A6EA8;}
	.st14{fill:#817FBC;}
	.st15{fill:#B1A4CF;}
	.st16{fill:#AE796E;}
	.st17{fill:#CFA295;}
	.st18{fill:#E1C0AD;}
	.st19{fill:#124573;}
</style>
<path class="st0" d="M-133.5,233.5c-3.3-0.3-6.5-0.6-9.7-1c0.1-2.1,0.6-4,1.3-5.8c2-5.3,6-8,11.3-9.1c4.7-0.9,9.3-0.8,13.7,1.3
	c3.1,1.5,5.3,3.8,6.7,6.9c0.3,0.7,0.7,0.9,1.4,0.9c2.4,0,4.8,0,7.2,0c0.8,0,1.1,0.2,1,1c0,10.6,0,21.3,0,31.9c0,1.4,0,1.4,1.4,1.4
	c1.7,0,3.4,0,5.3,0c0,0.3,0.1,0.6,0.1,0.9c0,2.3,0,4.7,0,7c0,0.7-0.2,0.9-0.9,0.9c-1.7,0-3.3,0-5,0c-0.7,0-0.9,0.2-0.9,0.9
	c0,3,0,5.9,0,8.9c0,0.3,0,0.6,0,1c-0.4,0-0.7,0.1-0.9,0.1c-2.6,0-5.2,0-7.7,0c-0.9,0-1-0.3-1-1.1c0-2.8,0-5.6,0-8.5
	c0-0.8-0.3-1.1-1.1-1c-10.6,0-21.3,0-31.9,0c-0.3,0-0.7,0-1.2,0c0.2-1,0.3-2,0.5-2.9c1.1-4.7,3.5-8.7,6.8-12.2
	c4.1-4.2,8.3-8.2,12.5-12.4c1.7-1.7,3.5-3.5,4.6-5.7c1.1-2.2,1.4-4.5,0.9-6.8c-0.6-2.9-3.1-4.8-6.3-5c-4.5-0.2-7.3,2.4-7.8,7.1
	C-133.4,232.6-133.5,233-133.5,233.5z M-110.3,239.3c-0.1,0-0.2,0-0.3-0.1c-0.1,0.2-0.3,0.4-0.4,0.6c-1.4,2.8-3.2,5.4-5.4,7.6
	c-2.4,2.4-5,4.7-7.4,7.1c-1.7,1.7-3.4,3.6-5,5.4c-0.2,0.2-0.4,0.6-0.6,1c0.5,0.1,0.8,0.1,1.1,0.1c5.6,0,11.2,0,16.8,0
	c0.9,0,1.2-0.2,1.2-1.2c0-6.6,0-13.1,0-19.7C-110.3,239.9-110.3,239.6-110.3,239.3z"/>
<path class="st1" d="M-132.2,308.6c4.2-6.9,8.3-13.7,12.5-20.7c4.2,7,8.4,13.9,12.6,20.9c-4.2,2.9-8.5,5.7-12.7,8.6
	C-123.9,314.4-128,311.5-132.2,308.6z"/>
<path class="st2" d="M-119.5,209.5c-4.2-6.8-8.2-13.5-12.3-20.3c0.7-0.5,1.5-1.1,2.2-1.6c3.2-2.2,6.3-4.4,9.5-6.5
	c0.2-0.2,0.7-0.3,0.9-0.2c3.9,2.7,7.8,5.5,11.8,8.3C-111.4,196-115.4,202.7-119.5,209.5z"/>
<path class="st3" d="M-163.5,203.5c1-2.2,2-4.3,2.9-6.5c0.8-1.8,1.6-3.5,2.4-5.3c0.2-0.5,0.4-0.7,1-0.6c4.1,0.3,8.1,0.6,12.1,0.8
	c0.7,0,0.6,0.5,0.6,0.9c0,4.6,0,9.2,0,13.8c0,2.2,0,4.4,0,6.7C-150.8,210-157.1,206.8-163.5,203.5z"/>
<path class="st4" d="M-94.8,284.7c6.1,3.4,12.1,6.7,18.2,10.1c-0.5,1-0.9,1.9-1.4,2.9c-1.3,2.8-2.7,5.5-4,8.3
	c-0.2,0.5-0.5,0.7-1.1,0.6c-3.6-0.4-7.3-0.7-11-1.1c-1.3-0.1-1.3-0.1-1.2-1.4c0.2-6.2,0.3-12.3,0.4-18.5
	C-94.9,285.4-94.9,285.2-94.8,284.7z"/>
<path class="st5" d="M-182.2,227.9c0-1.3,0-2.6,0-3.8c0-2.5,0-5.1-0.1-7.6c0-0.5,0.1-0.8,0.7-1c3.3-1.3,6.6-2.6,9.8-3.9
	c0.5-0.2,0.8-0.2,1,0.3c2.6,5.4,5.2,10.8,7.8,16.2c0.1,0.1,0.1,0.2,0.1,0.5C-169.3,228.4-175.6,228.1-182.2,227.9z"/>
<path class="st6" d="M-57.2,269.9c0,0.3,0.1,0.6,0.1,0.9c0.1,3.5,0.2,7,0.4,10.5c0,0.4,0,0.8-0.5,1c-3.5,1.4-7,2.9-10.6,4.4
	c-2.8-5.7-5.7-11.3-8.6-17.1C-69.9,269.6-63.6,269.8-57.2,269.9z"/>
<path class="st7" d="M-172.7,248.7c-5.3,2.3-10.5,4.5-15.8,6.7c-0.7-1.4-1.4-2.8-2.1-4.2c-0.8-1.6-1.6-3.3-2.4-5
	c-0.1-0.3-0.1-0.7,0-0.9c2.3-2.5,4.7-5,7-7.5C-181.5,241.5-177.1,245-172.7,248.7z"/>
<path class="st8" d="M-45.7,252.3c-2.4,2.5-4.8,5.1-7.2,7.6c-4.3-3.5-8.5-7-12.9-10.6c5.2-2.2,10.3-4.4,15.5-6.5
	C-48.8,246-47.2,249.1-45.7,252.3z"/>
<path class="st9" d="M-51,231.5c-4.8-1.5-9.5-3.1-14.5-4.6c3.7-3.6,7.3-7.2,11-10.8c1.3,1.2,2.5,2.3,3.8,3.4c1,0.9,2,1.8,2.9,2.7
	c0.2,0.2,0.3,0.6,0.2,0.9c-1,2.7-2.1,5.4-3.2,8.1C-50.9,231.3-50.9,231.3-51,231.5z"/>
<path class="st10" d="M-173.7,270.9c-3.6,3.6-7.1,7.1-10.7,10.7c-0.8-0.8-1.7-1.5-2.6-2.3c-1.3-1.2-2.6-2.4-4-3.5
	c-0.4-0.3-0.4-0.6-0.3-1.1c1-2.5,2-5,3-7.5c0.2-0.5,0.4-0.7,0.9-0.5C-182.9,268-178.3,269.4-173.7,270.9z"/>
<path class="st11" d="M-59.4,206.2c-4.6,0.4-9.2,0.7-14,1.1c1.9-4.4,3.7-8.7,5.6-13c1.9,0.7,3.7,1.3,5.6,2c0.9,0.3,2.2,0.5,2.6,1.1
	c0.5,0.7,0.2,1.9,0.2,2.9C-59.4,202.3-59.4,204.2-59.4,206.2z"/>
<path class="st12" d="M-166.3,291c-0.6,1.4-1.2,2.7-1.8,4c-1.1,2.4-2.2,4.7-3.3,7.1c-0.3,0.6-0.5,0.7-1.1,0.5
	c-2.1-0.9-4.3-1.7-6.4-2.6c-0.2-0.1-0.5-0.4-0.5-0.7c0-2.3,0.1-4.6,0.1-6.9c0-0.4,0-0.8,0.6-0.8c4-0.2,7.9-0.4,11.9-0.5
	C-166.7,290.9-166.6,291-166.3,291z"/>
<path class="st13" d="M-152.4,305.7c-0.1,1.4-0.2,2.8-0.3,4.1c-0.2,2.4-0.4,4.9-0.6,7.3c0,0.6-0.3,0.8-0.9,0.8
	c-2.2-0.1-4.3-0.1-6.5-0.3c-0.2,0-0.6-0.2-0.7-0.4c-0.7-2-1.4-4.1-2.1-6.2c-0.1-0.4-0.3-0.7,0.3-0.9c3.5-1.4,6.9-2.9,10.3-4.3
	C-152.8,305.8-152.7,305.8-152.4,305.7z"/>
<path class="st14" d="M-136.6,315.7c0.2,1.1,0.3,2.2,0.5,3.2c0.3,1.9,0.6,3.8,0.9,5.7c0.1,0.5,0,0.7-0.5,0.8c-1.7,0.3-3.4,0.7-5,1
	c-0.2,0-0.5-0.1-0.6-0.2c-0.9-1.4-1.9-2.9-2.8-4.3c-0.2-0.3-0.3-0.5,0-0.8c2.4-1.7,4.8-3.5,7.1-5.2
	C-136.9,315.8-136.8,315.8-136.6,315.7z"/>
<path class="st15" d="M-119.5,318.8c0.5,0.9,1,1.6,1.5,2.4c0.9,1.5,1.7,2.9,2.6,4.4c0.2,0.4,0.2,0.6-0.2,0.8
	c-1.3,0.8-2.5,1.7-3.8,2.5c-0.1,0.1-0.4,0.1-0.5,0c-1.2-0.9-2.4-1.7-3.7-2.6c-0.2-0.2-0.4-0.3-0.2-0.6c1.4-2.2,2.7-4.4,4.1-6.6
	C-119.7,319-119.6,319-119.5,318.8z"/>
<path class="st16" d="M-75.2,187c-3.7,1.8-7.4,3.5-11.3,5.3c0-0.9,0-1.7,0-2.5c0.1-2.9,0.3-5.9,0.4-8.8c0.1-1.5-0.1-1.3,1.3-1.3
	c2,0,4.1-0.1,6.1-0.1c0.2,0,0.6,0.2,0.7,0.4C-77,182.3-76.1,184.6-75.2,187z"/>
<path class="st17" d="M-94.3,175.6c-2.6,2.5-5.2,5-7.9,7.6c-0.3-0.8-0.5-1.4-0.7-2.1c-0.7-2.5-1.4-5-2.1-7.4
	c-0.3-1.3-0.4-1.1,0.7-1.5c1.7-0.6,3.4-1.2,5.1-1.8c0.2-0.1,0.6,0,0.7,0.1C-97.1,172.2-95.7,173.9-94.3,175.6z"/>
<path class="st18" d="M-114.4,171.4c-1.7,2.8-3.3,5.6-5,8.4c-0.4-0.6-0.8-1.1-1.1-1.6c-1.2-2-2.4-3.9-3.6-5.9
	c-0.6-1-0.6-0.8,0.3-1.4c1.3-0.9,2.6-1.8,4-2.7c0.2-0.1,0.5-0.2,0.6-0.1C-117.6,169.2-116.1,170.3-114.4,171.4z"/>
<g>
	<g>
		<path class="st19" d="M-141.4,345c1.7,1.9,3.3,3.7,4.9,5.5c-3.3,2.7-6.5,5.4-9.7,8.1c1.5,2.1,3.1,4,4.2,6.2
			c1.1,2.1,2.1,4.4,2.5,6.8c0.5,2.9-0.9,5.2-3.3,6.9c-1,0.7-2.2,1.4-3.4,1.7c-5,1.4-10.3,1.6-15.2,0.2c-2.7-0.8-4.8-0.8-7.5,0
			c-4.7,1.4-9.5,1.3-13.9-1.5c-6.7,3-11.5,3-15.3-0.1c-2.4,2-5.1,2.8-8.5,1.6c0.8,3.3,1.5,6.4,2.2,9.7c-1.7,0.6-3.4,1.3-5.1,1.9
			c-5.1,1.7-10.1,3.6-15.3,4.9c-3,0.8-6.3,0.8-9.5,0.5c-5.4-0.4-10.1-5.8-10.4-11.2c-0.3-4.9,0.8-9.5,2.2-14.1
			c0.6-2,1.2-3.9,1.9-6.1c2.3,0.9,4.5,1.6,6.6,2.5c0.3,0.1,0.5,1.1,0.3,1.6c-0.9,3.7-2.2,7.4-2.8,11.2c-1,5.6,2.1,9,7.8,8.6
			c1.8-0.1,3.7-0.5,5.4-1c3-1,6-2.2,8.9-3.3c0.3-0.1,0.6-0.3,1.1-0.5c-1.5-5.8-2.9-11.6-4.5-17.6c2.7-0.7,5.3-1.3,8-2
			c0.3,1.1,0.5,2,0.8,3c0.2,0.8,0.4,1.6,0.7,2.4c0.6,1.4,1.5,2.6,3.2,2.6c1.7,0,2.2-1.5,2.6-2.9c0.4-1.4,0.7-2.8,1-4.4
			c2.5,0.4,5,0.8,7.6,1.2c-0.2,1.3-0.4,2.5-0.5,3.7c-0.1,1.7,0.8,2.5,2.8,2.5c2,0,3.1-0.9,3-2.5c-0.2-1.5-0.6-2.9-1-4.6
			c2.2-0.7,4.4-1.4,7-2.2c0.3,1.5,0.6,2.9,0.9,4.3c0.9,4.6,6.3,6.8,10.2,4.3c0.5-0.3,0.9-1.4,0.9-2.1c0-1.3-0.4-2.6-0.7-4.1
			c2.5-0.6,4.8-1.1,7.3-1.7c0.3,1.8,0.6,3.3,0.9,4.8c0.5,2.5,1.6,3.6,4.2,3.8c2.5,0.2,5,0.2,7.5,0.2c0.5,0,1-0.1,1.5-0.2
			c2.1-0.5,2.7-1.5,1.5-3.3c-2.3-3.6-4.8-7.1-7.2-10.7c-0.3-0.4-0.6-0.8-1-1.4C-151.3,353.5-146.4,349.3-141.4,345z"/>
		<path class="st19" d="M-3.2,365c2.5-0.5,4.8-1.1,7.4-1.7c0.6,3.2,1.4,6.3,1.7,9.4c0.2,2.2-1,4.1-2.8,5.5c-3.6,2.8-7.7,3.5-12,2.4
			c-1.1-0.3-2.1-1.1-3.4-1.8c-1.5,1.6-3.6,2.5-6.1,2.3c-2.4-0.2-4.3-1.3-6-3.2c-2.7,3.2-6.4,3.3-10.1,3.1c-3.6-0.1-7.2-0.6-10.9-0.9
			c0-10.7,0-21.1,0-31.6c2.6,0,5,0,7.7,0c0,0.6,0,1.2,0,1.8c0,7,0,14.1,0,21.1c0,1.4,0.4,1.9,1.8,1.9c1.2-0.1,2.3,0.1,3.5,0
			c2.7-0.3,3.4-1.4,2.9-4.1c-0.1-0.5-0.2-1-0.4-1.7c2.4-0.5,4.8-0.9,7.3-1.4c0.3,1.3,0.5,2.4,0.7,3.5c0.6,2.5,1.7,3.9,3.1,3.8
			c1.4-0.1,2.6-1.6,3-4c0.2-1.1,0.4-2.2,0.6-3.5c2.4,0.4,4.8,0.8,7.2,1.3c-0.2,1.3-0.4,2.5-0.6,3.7c-0.1,0.5-0.1,1,0.1,1.4
			c0.5,1,2.9,1.3,4.5,0.6c1.3-0.5,2.2-1.3,1.8-2.9C-2.3,368.5-2.8,366.8-3.2,365z"/>
		<path class="st19" d="M-87,348.5c2.5,0,4.9,0,7.5,0c0,0.6,0.1,1.2,0.1,1.8c0,7,0,14.1,0,21.1c0,1.3,0.3,1.8,1.7,2
			c3,0.3,5-1.1,6.7-3.3c1.5-2.1,2.9-4.3,4.3-6.3c1.8-2.4,4.1-3.9,7.2-3.9c2.7,0,4.7,1.2,5.5,3.8c1.1,3.7,2.1,7.4,2.7,11.2
			c0.8,5.8-4.9,10-10.3,7.8c-1.1-0.4-2.1-1.1-3-1.7c-1.3-0.9-2.6-1.9-4-2.9c-3,3.6-7,3.4-11,2.9c-2.4-0.3-4.7-0.5-7.2-0.8
			C-87,369.5-87,359.1-87,348.5z M-65.2,372.6c2.1,1.2,3.8,2.3,5.6,3.3c1.1,0.6,1.9,0.1,1.7-1c-0.4-2.3-0.9-4.5-1.6-6.8
			c-0.3-1.1-1.2-1.3-2-0.3C-62.7,369.3-63.8,370.8-65.2,372.6z"/>
		<path class="st19" d="M-93.4,386.8c-8.3,2.8-16.1,6.4-24.6,7.5c-8,1.1-14.8-3.8-15.7-11.5c-0.3-2.3-0.1-4.8,0.5-7.1
			c1-4.1,2.3-8.1,3.6-12.3c2.6,0.6,5,1.2,7.6,1.8c-0.2,0.8-0.5,1.5-0.6,2.3c-0.9,3.6-2.1,7.2-2.6,10.9c-0.8,5.1,2.4,8.5,7.6,8
			c2.6-0.2,5.3-0.9,7.8-1.7c2.7-0.8,5.2-1.8,8-2.8c-1.5-6.1-3-12.1-4.5-18.1c2.5-0.5,4.8-1,7.4-1.5
			C-97.2,370.5-95.3,378.5-93.4,386.8z"/>
		<path class="st19" d="M-118,368.6c0-2.2,0-4.4,0-6.7c2.2,0,4.4,0,6.7,0c0,2.2,0,4.4,0,6.7C-113.5,368.6-115.6,368.6-118,368.6z"/>
		<path class="st19" d="M-198.1,351.4c2,0,4,0,5.9,0c0.3,0,0.8,0.6,0.8,0.9c0.1,1.9,0,3.8,0,5.8c-2.3,0-4.5,0-6.8,0
			C-198.1,356-198.1,353.9-198.1,351.4z"/>
		<path class="st19" d="M-201.2,358.3c-2.4,0-4.6,0-6.9,0c0-2-0.1-3.9,0-5.9c0-0.3,0.6-0.9,1-0.9c1.6-0.1,3.2-0.1,4.8,0
			c0.4,0,1,0.6,1,0.9C-201.1,354.3-201.2,356.2-201.2,358.3z"/>
		<path class="st19" d="M-196.4,342.4c0,2.2,0,4.3,0,6.4c-2.2,0-4.4,0-6.7,0c0-2.1,0-4.2,0-6.4
			C-200.9,342.4-198.8,342.4-196.4,342.4z"/>
	</g>
	<path class="st19" d="M-174.8,395c0-2.2,0-4.2,0-6.4c2.1,0,4.2,0,6.4,0c0,2.1,0,4.2,0,6.4C-170.5,395-172.5,395-174.8,395z"/>
	<path class="st19" d="M-159.3,395.1c-2.2,0-4.3,0-6.4,0c0-2.2,0-4.3,0-6.5c2.1,0,4.2,0,6.4,0C-159.3,390.8-159.3,392.9-159.3,395.1
		z"/>
</g>
</svg>
