<?xml version="1.0" encoding="UTF-8" standalone="no"?>
<svg width="100px" height="100px" viewBox="0 0 100 100" version="1.1" xmlns="http://www.w3.org/2000/svg" xmlns:xlink="http://www.w3.org/1999/xlink" xmlns:sketch="http://www.bohemiancoding.com/sketch/ns">
    <!-- Generator: Sketch 3.4.2 (15857) - http://www.bohemiancoding.com/sketch -->
    <title>zarinpal-partners-anetwork</title>
    <desc>Created with Sketch.</desc>
    <defs></defs>
    <g id="Page-1" stroke="none" stroke-width="1" fill="none" fill-rule="evenodd" sketch:type="MSPage">
        <g id="zarinpal-partners-anetwork" sketch:type="MSLayerGroup" transform="translate(9.000000, 16.000000)">
            <g id="Group" transform="translate(15.046512, 0.000000)" sketch:type="MSShapeGroup">
                <path d="M23.156088,0.0150112672 L15.9755363,12.2420147 L30.3363089,12.2420147 L23.156088,0.0150112672 Z" id="Shape" fill="#602976"></path>
                <path d="M30.683157,12.9893148 L23.3910711,25.4029801 L37.9735882,25.4029801 L30.683157,12.9893148 Z" id="Shape" fill="#602976"></path>
                <path d="M38.3124933,26.0908877 L31.0217312,38.5045531 L45.6009387,38.5045531 L38.3124933,26.0908877 Z" id="Shape" fill="#602976"></path>
                <path d="M45.9620183,39.0609489 L38.6735729,51.4755933 L53.2544352,51.4755933 L45.9620183,39.0609489 Z" id="Shape" fill="#602976"></path>
                <path d="M15.5118585,12.9893148 L8.22010346,25.4029801 L22.8022897,25.4029801 L15.5118585,12.9893148 Z" id="Shape" fill="#CEBCD3"></path>
                <path d="M7.82493482,26.0908877 L0.533179799,38.5045531 L15.115697,38.5045531 L7.82493482,26.0908877 Z" id="Shape" fill="#CEBCD3"></path>
                <path d="M15.5118585,39.0609489 L8.22010346,51.4755933 L22.8022897,51.4755933 L15.5118585,39.0609489 Z" id="Shape" fill="#CEBCD3"></path>
                <path d="M23.0968458,25.116787 L15.8060837,12.7031217 L30.3889318,12.7031217 L23.0968458,25.116787 Z" id="Shape" fill="#602976"></path>
                <path d="M23.0968458,50.9182184 L15.8060837,38.5045531 L30.3889318,38.5045531 L23.0968458,50.9182184 Z" id="Shape" fill="#CEBCD3"></path>
                <path d="M15.5118585,38.1586413 L8.22010346,25.7449759 L22.8022897,25.7449759 L15.5118585,38.1586413 Z" id="Shape" fill="#CEBCD3"></path>
                <path d="M7.53468114,51.4755933 L0.242926116,39.0609489 L14.8244504,39.0609489 L7.53468114,51.4755933 Z" id="Shape" fill="#602976"></path>
                <path d="M38.3124933,51.4755933 L31.0217312,39.0609489 L45.6009387,39.0609489 L38.3124933,51.4755933 Z" id="Shape" fill="#602976"></path>
                <path d="M30.683157,38.1586413 L23.3910711,25.7449759 L37.9735882,25.7449759 L30.683157,38.1586413 Z" id="Shape" fill="#602976"></path>
            </g>
            <g id="Group" transform="translate(0.000000, 58.000000)" fill="#602976" sketch:type="MSShapeGroup">
                <path
                    d="M0.251038168,10.6776389 L3.93622901,0.308305556 L5.30426336,0.308305556 L9.23152672,10.6776389 L7.78496565,10.6776389 L6.66549618,7.53744444 L2.65321374,7.53744444 L1.59928626,10.6776389 L0.251038168,10.6776389 L0.251038168,10.6776389 Z M3.01987786,6.41972222 L6.2728626,6.41972222 L5.27149237,3.54841667 C4.96604198,2.67605556 4.73911832,1.95922222 4.59072137,1.39822222 C4.46860305,2.06311111 4.2960916,2.72311111 4.07380534,3.37852778 L3.01987786,6.41972222 L3.01987786,6.41972222 Z"
                    id="Shape"></path>
                <path
                    d="M10.7043664,10.6776389 L10.7043664,0.308611111 L12.0068588,0.308611111 L17.0470992,8.44983333 L17.0470992,0.308611111 L18.2645725,0.308611111 L18.2645725,10.6779444 L16.9620802,10.6779444 L11.9218397,2.52969444 L11.9218397,10.6779444 L10.7043664,10.6779444 L10.7043664,10.6776389 Z"
                    id="Shape"></path>
                <path
                    d="M20.896145,10.6776389 L20.896145,0.308611111 L27.8343206,0.308611111 L27.8343206,1.53236111 L22.1658664,1.53236111 L22.1658664,4.70830556 L27.4741489,4.70830556 L27.4741489,5.92472222 L22.1658664,5.92472222 L22.1658664,9.45419444 L28.056916,9.45419444 L28.056916,10.6779444 L20.896145,10.6779444 L20.896145,10.6776389 Z"
                    id="Shape"></path>
                <path d="M32.724,10.6776389 L32.724,1.53205556 L29.5622176,1.53205556 L29.5622176,0.308305556 L37.1684885,0.308305556 L37.1684885,1.53205556 L33.9937214,1.53205556 L33.9937214,10.6776389 L32.724,10.6776389 L32.724,10.6776389 Z" id="Shape"></path>
                <path
                    d="M40.6180992,10.6776389 L38.071855,0.308305556 L39.3743473,0.308305556 L40.8338931,7.10569444 C40.9909466,7.81763889 41.1263588,8.525 41.2398206,9.22747222 C41.4840573,8.11922222 41.6284351,7.48030556 41.6717176,7.31072222 L43.4976183,0.308305556 L45.0295076,0.308305556 L46.4037252,5.55683333 C46.7484389,6.85819444 46.997313,8.08194444 47.1500382,9.22777778 C47.2721565,8.57205556 47.431374,7.82038889 47.6283092,6.97125 L49.1336107,0.308305556 L50.4101336,0.308305556 L47.7785611,10.6776389 L46.5545954,10.6776389 L44.5317595,2.77719444 C44.3614122,2.11719444 44.2612443,1.71172222 44.2303282,1.56077778 C44.1301603,2.03713889 44.0364847,2.44261111 43.9489924,2.77719444 L41.9134809,10.6776389 L40.6180992,10.6776389 L40.6180992,10.6776389 Z"
                    id="Shape"></path>
                <path
                    d="M51.6801641,5.62772222 C51.6801641,3.90652778 52.108042,2.55902778 52.9631794,1.58552778 C53.8183168,0.611722222 54.9223282,0.124972222 56.2752137,0.124972222 C57.160958,0.124972222 57.9595191,0.353833333 58.6708969,0.810944444 C59.3822748,1.26836111 59.924542,1.90636111 60.2976985,2.72433333 C60.670855,3.54261111 60.8575878,4.47027778 60.8575878,5.50763889 C60.8575878,6.55905556 60.6609618,7.49986111 60.2683282,8.32944444 C59.8753855,9.15963889 59.3195153,9.78755556 58.5994809,10.2144167 C57.8794466,10.6412778 57.1025267,10.8548611 56.2690305,10.8548611 C55.3659733,10.8548611 54.5584466,10.6192778 53.8473779,10.1475 C53.136,9.67602778 52.5971336,9.03252778 52.2307786,8.21669444 C51.8634962,7.40055556 51.6801641,6.53766667 51.6801641,5.62772222 L51.6801641,5.62772222 Z M52.9891489,5.64880556 C52.9891489,6.89822222 53.3001641,7.88272222 53.9221947,8.60169444 C54.5442252,9.32066667 55.3239275,9.68030556 56.262229,9.68030556 C57.2178435,9.68030556 58.0043473,9.31730556 58.6220496,8.591 C59.2394427,7.865 59.5479847,6.83466667 59.5479847,5.50030556 C59.5479847,4.65605556 59.4159733,3.91936111 59.1522595,3.28991667 C58.8882366,2.66047222 58.5017863,2.1725 57.9935267,1.826 C57.484958,1.47919444 56.9145573,1.30625 56.2820153,1.30625 C55.3829771,1.30625 54.609458,1.63991667 53.961458,2.30694444 C53.313458,2.97397222 52.9891489,4.08802778 52.9891489,5.64880556 L52.9891489,5.64880556 Z"
                    id="Shape"></path>
                <path
                    d="M62.9849198,10.6776389 L62.9849198,0.308611111 L67.239584,0.308611111 C68.0950305,0.308611111 68.7448855,0.402111111 69.1903855,0.588194444 C69.6352672,0.774277778 69.9911107,1.10336111 70.2572977,1.57483333 C70.5231756,2.04661111 70.6564237,2.56758333 70.6564237,3.13805556 C70.6564237,3.87352778 70.4359924,4.49380556 69.9951298,4.99827778 C69.5542672,5.50275 68.8738053,5.82327778 67.953126,5.96016667 C68.2891832,6.13433333 68.5445496,6.30666667 68.7192252,6.47625 C69.0899084,6.84413889 69.4414237,7.30369444 69.7728435,7.85552778 L71.442,10.6776389 L69.8448779,10.6776389 L68.5751565,8.52011111 C68.2041641,7.89769444 67.8987137,7.42163889 67.6588053,7.09133333 C67.4185878,6.76133333 67.2037214,6.53033333 67.0138969,6.39802778 C66.8240725,6.26602778 66.6311565,6.17436111 66.4345305,6.12241667 C66.2904618,6.08941667 66.0548817,6.07291667 65.7277901,6.07291667 L64.2549504,6.07291667 L64.2549504,10.6773333 L62.9849198,10.6773333 L62.9849198,10.6776389 Z M64.2546412,4.88491667 L66.9839084,4.88491667 C67.5645115,4.88491667 68.0183588,4.82013889 68.3454504,4.69027778 C68.672542,4.56041667 68.921416,4.35294444 69.0917634,4.06786111 C69.2618015,3.78247222 69.3468206,3.47263889 69.3468206,3.13775 C69.3468206,2.64763889 69.1820382,2.244 68.8524733,1.92836111 C68.5232176,1.61241667 68.0025916,1.45413889 67.2912137,1.45413889 L64.2543321,1.45413889 L64.2543321,4.88491667 L64.2546412,4.88491667 Z"
                    id="Shape"></path>
                <path
                    d="M73.0650916,10.6776389 L73.0650916,0.308611111 L74.334813,0.308611111 L74.334813,5.45080556 L79.1002099,0.308611111 L80.8216145,0.308611111 L76.7960382,4.51 L80.9984542,10.6779444 L79.3228053,10.6779444 L75.9056565,5.42972222 L74.334813,7.08491667 L74.334813,10.6779444 L73.0650916,10.6779444 L73.0650916,10.6776389 Z"
                    id="Shape"></path>
            </g>
        </g>
    </g>
</svg>
