<?xml version="1.0" encoding="utf-8"?>
<!-- Generator: Adobe Illustrator 16.0.0, SVG Export Plug-In . SVG Version: 6.00 Build 0)  -->
<!DOCTYPE svg PUBLIC "-//W3C//DTD SVG 1.1//EN" "http://www.w3.org/Graphics/SVG/1.1/DTD/svg11.dtd">
<svg version="1.1" id="Layer_1" xmlns="http://www.w3.org/2000/svg" xmlns:xlink="http://www.w3.org/1999/xlink" x="0px" y="0px"
	 width="300px" height="300px" viewBox="0 0 300 300" enable-background="new 0 0 300 300" xml:space="preserve">
<g>
	<path fill="#522B1C" d="M84.842,180.527c0,5.347,4.331,9.677,9.676,9.677h114.005c5.342,0,9.672-4.33,9.672-9.677V66.035
		c0-5.344-4.329-9.675-9.672-9.675H94.518c-5.346,0-9.677,4.332-9.677,9.675L84.842,180.527L84.842,180.527L84.842,180.527z"/>
	<path fill="#D1A238" d="M84.842,128.968c0,0,14.458-35.094,38.192-35.107c13.166,0,21.294,2.112,29.907,7.965
		c14.863,10.096,29.133,19.976,39.496,19.017c17.555-1.625,25.758-26.982,25.758-26.982v29.418c0,0-16.98,29.749-41.848,29.42
		c-19.834-0.262-54.894-28.987-68.103-26.495c-17.229,3.25-23.404,27.469-23.404,27.469L84.842,128.968L84.842,128.968z"/>
</g>
<g>
	<path fill="#231F20" d="M74.453,218.688c0-1.553-0.103-2.852-0.611-4.534c-1.042-3.468-5.42-6.84-8.619-9.302
		c-1.059-0.817-1.978-1.523-2.567-2.073l-0.305-0.287l-1.322,0.475l-0.135,0.876c-0.164,1.052-0.331,2.139-0.358,3.219
		c-1.61,1.667-2.803,3.22-3.746,4.858c-0.914,1.585-2.453,4.712-2.453,7.775c0,4.19,1.487,7.365,4.294,9.171
		c1.271,0.845,2.962,1.274,5.027,1.274c3.295,0,6.161-1.271,8.541-3.807C73.59,224.687,74.453,221.079,74.453,218.688z
		 M69.531,221.658c-1.825,1.318-3.668,1.958-5.638,1.958c-3.025,0-5.779-2.162-5.779-4.541c0-2.374,1.72-4.938,5.26-7.839
		c1.765,1.051,4.042,2.649,5.637,4.629c1.287,1.622,1.94,2.899,1.94,3.792C70.95,220.317,70.487,220.97,69.531,221.658z"/>
	<path fill="#231F20" d="M108.847,232.016l0.447,0.424l0.47-0.397c1.276-1.094,2.344-2.35,3.26-3.85l0.274-0.447l-0.363-0.381
		c-1.525-1.604-3.072-2.985-4.602-4.101l-0.507-0.375l-0.415,0.479c-1.086,1.248-2.165,2.657-3.073,3.869l-0.389,0.516l1.336,1.136
		C106.513,229.924,107.669,230.901,108.847,232.016z"/>
	<path fill="#231F20" d="M128.895,248.148l-0.244-0.195l-0.212,0.223c-1.024,1.063-2.089,2.347-3,3.604l-0.143,0.198
		c-1.322-1.382-2.423-2.386-3.652-3.346l-0.245-0.188l-0.215,0.221c-1.023,1.059-2.087,2.343-2.999,3.607l-0.188,0.256l0.248,0.21
		c1.496,1.232,2.845,2.433,4.377,3.891l0.235,0.221l0.234-0.216c1.071-0.995,1.847-2.003,2.905-3.513l0.16-0.229l-0.19-0.205
		c-0.071-0.076-0.139-0.146-0.21-0.218c1.391,1.155,2.674,2.298,4.117,3.67l0.234,0.225l0.237-0.221
		c1.07-0.992,1.846-2.002,2.901-3.509l0.162-0.228l-0.189-0.202C131.582,250.44,130.329,249.266,128.895,248.148z"/>
	<path fill="#231F20" d="M133.173,223.771h-0.915l-0.204-0.466c-0.976,1.201-1.948,2.305-2.885,3.985l-0.18,0.14l0.167,0.237
		c1.466,2.877,3.684,7.176,3.684,8.923c0,0.002-0.049,0.576-1.693,1.185c-1.535,0.561-3.975,0.855-7.168,0.855h-1.729
		c-1.75,0-3.094-0.631-4.234-1.557c-0.66-0.521-0.98-1.465-0.98-2.683c0-0.773,0.308-2.424,0.802-4.227l0.097-0.377l-0.876-1.032
		l-3.299,2.385l-1.155,4.495c-0.482,1.838-3.283,2.994-5.8,2.994H89.12c-2.671,0-4.688-2.157-5.262-5.313
		c-1.246-6.777-2.383-12.205-3.579-16.87l-0.065-0.3l-0.963-0.675l-0.395,0.475c-0.804,0.994-1.51,2.074-2.193,3.131l-0.685,1.046
		l0.082,0.297c1.592,5.789,3.093,11.258,3.093,13.797c0,0.503-0.733,1.45-2.098,2.224c-1.502,0.859-3.813,1.786-5.782,1.786
		c-3.001,0-4.467-1.39-4.612-4.383l-0.034-0.705l-2.754,0.211l-0.046,0.588c-0.08,0.965-0.114,1.892-0.114,2.836
		c0,4.779,2.697,7.636,7.223,7.636c2.415,0,5.002-0.854,7.908-2.617c1.113-0.673,1.927-0.857,2.448-1.834
		c1.505,3.414,4.056,5.713,7.755,5.713h17.649c3.217,0,5.993-1.239,7.52-3.291c1.441,2.212,4.021,3.291,7.85,3.291h1.73
		c6.008,0,8.781-1.271,10.592-3.085l0.062-0.385c1.29-1.709,2.77-4.255,2.77-7.563c0-4.661-2.945-9.568-3.846-11.159
		L133.173,223.771z"/>
	<path fill="#231F20" d="M143.992,207.458c-1.164,1.056-4.083,2.631-5.138,3.982c0.603,6.5-0.101,16.497-0.101,23.374v3.682
		c0,2.479,1.417,5.149,1.041,7.517l1.218,0.262c2.178-2.405,3.555-3.987,3.668-6.052c0.189-1.652,0.445-3.908,0.445-6.196
		c0-8.758-0.095-18.264-0.887-26.456L143.992,207.458z"/>
	<path fill="#231F20" d="M151.09,198.194c-0.672,0.527-1.424,0.942-2.101,1.204c-1.051,0.412-2.066,0.53-3.082,0.53
		c-2.857,0-5.56-1.13-8.154-1.13c-2.667,0-3.419,3.054-3.419,4.82l1.277,2.948h0.263c0.828-2.345,1.503-3.547,2.104-3.547
		c1.879,0,4.585,0.311,6.952,0.311c2.104,0,3.833-0.768,5.261-1.967c0.375-0.68,0.716-1.849,1.089-2.9L151.09,198.194z"/>
	<path fill="#231F20" d="M211.504,226.116h-0.898l-0.204-0.227c-1.004,1.162-1.999,2.342-2.961,3.965l-0.2,0.217l0.185,0.283
		c1.503,2.772,3.772,6.923,3.772,8.587c0,0.007-0.1,0.593-1.733,1.162c-1.58,0.54-4.09,0.869-7.369,0.869h-1.311
		c-2.658,0-4.733-1.269-6.93-3.701c-6-6.594-10.296-11.063-13.83-14.129l1.279-2.064l-0.763-0.336
		c-1.262-0.506-3.061-1.246-4.822-2.201c3.016-1.374,7.372-2.955,10.521-4.069c3.827-1.297,6.775-2.196,8.769-2.661l0.23-0.056
		l0.146-0.192c1.219-1.518,2.237-3.057,3.036-4.559l0.198-0.375l-0.679-0.962l-0.472,0.137c-9.369,2.753-19.529,5.921-23.883,8.557
		c-0.254,0.165-1.114,0.767-1.6,1.563c-0.777,1.29-1.14,2.392-1.14,3.468c0,0.661,0.12,1.301,0.229,1.865l0.081,0.442l0.126,0.142
		c0.556,0.633,1.409,1.468,2.476,2.508c3.71,3.489,7.729,7.504,9.371,10.813c0.335,0.691,0.518,1.083,0.57,1.544
		c-3.263,2.766-10.547,4.024-16.065,4.024c-6.157,0-13.499-1.445-13.499-8.332c0-1.245,0.184-2.423,0.55-3.597l0.205-0.663
		l-2.792-0.854l-0.242,0.571c-0.983,2.334-1.404,4.34-1.404,6.714c0,5.636,2.835,12.352,16.333,12.352
		c7.104,0,13.867-1.632,17.689-4.277c1.315-1.027,2.312-2.812,3.021-5.447c0.676,0.776,1.448,1.727,2.256,2.714l0.396,1.23
		c2.594,3.23,5.349,6.869,10.52,6.869h1.228c6.149,0,8.982-1.36,10.837-3.108l0.066-0.438c1.326-1.651,2.852-4.146,2.852-7.352
		c0-4.513-3.027-9.504-3.955-11.038L211.504,226.116z"/>
	<path fill="#231F20" d="M195.881,228.328l1.343,1.134c1.229,1.035,2.383,2.015,3.559,3.125l0.446,0.426l0.471-0.399
		c1.275-1.091,2.343-2.351,3.256-3.849l0.274-0.448l-0.36-0.379c-1.527-1.608-3.077-2.988-4.599-4.103l-0.51-0.375l-0.412,0.475
		c-1.089,1.248-2.167,2.659-3.077,3.875L195.881,228.328z"/>
	<path fill="#231F20" d="M240.009,249.288l-0.51-0.373l-0.412,0.477c-1.09,1.25-2.166,2.658-3.074,3.873l-0.388,0.516l1.34,1.136
		c1.227,1.036,2.384,2.016,3.556,3.13l0.452,0.422l0.468-0.4c1.272-1.091,2.342-2.35,3.255-3.846l0.28-0.447l-0.365-0.382
		C243.086,251.787,241.535,250.408,240.009,249.288z"/>
	<path fill="#231F20" d="M243.75,244.397c1.29-1.711,2.768-4.096,2.768-7.404c0-4.664-2.944-9.576-3.847-11.164l-0.196,0.287h-0.915
		l-0.208-0.381c-0.976,1.2-1.949,2.341-2.885,4.026l-0.179,0.159l0.168,0.245c1.465,2.876,3.682,7.188,3.682,8.932
		c0,0.005-0.047,1.666-1.69,2.279c-1.532,0.561-3.976,1.944-7.168,1.944h-1.164c-0.188,0-2.197-1.307-3.186-1.664
		c-1.609-0.581-3.372-2.941-3.372-4.665v-2.141c0-9.343,1.013-19.003,0.408-27.258l0.477-0.362l-0.73-0.561l-0.238,0.287
		c-1.13,0.897-2.238,2.147-3.545,3.568l-0.167,0.216l0.035,0.296c0.481,6.819,0.983,14.826,0.983,22.534
		c0,5.438,0.005,8.979,2.533,11.551c1.643,1.644,3.714,2.891,6.917,2.891h0.861c6.012,0,8.778-1.188,10.594-3.003L243.75,244.397z"
		/>
</g>
</svg>
