<?xml version="1.0" encoding="utf-8"?>
<!-- Generator: Adobe Illustrator 16.0.0, SVG Export Plug-In . SVG Version: 6.00 Build 0)  -->
<!DOCTYPE svg PUBLIC "-//W3C//DTD SVG 1.1//EN" "http://www.w3.org/Graphics/SVG/1.1/DTD/svg11.dtd">
<svg version="1.1" id="Layer_1" xmlns="http://www.w3.org/2000/svg" xmlns:xlink="http://www.w3.org/1999/xlink" x="0px" y="0px"
	 width="300px" height="300px" viewBox="0 0 300 300" enable-background="new 0 0 300 300" xml:space="preserve">
<path fill="#E12426" d="M6.38,62.145c0,0,29.13,25.407,68.597,26.253c0.846,21.512,8.524,51.83,12.477,57.08
	C40.084,126.678,15.356,86.366,6.38,62.145L6.38,62.145z M292.285,62.145c0,0-29.133,25.407-68.598,26.253
	c-0.847,21.512-8.522,51.83-12.477,57.08C258.583,126.678,283.311,86.366,292.285,62.145L292.285,62.145z M215.01,88.775
	c-8.326-5.48-40.602-17.32-65.74-17.32s-57.415,11.838-65.74,17.32c-4.827,39.172,25.492,93.036,65.74,111.963
	C202.18,172.408,217.676,118.548,215.01,88.775L215.01,88.775z M149.803,181.811c-26.36-12.195-49.352-54.75-50.496-81.303
	c6.394-3.98,31.187-12.576,50.496-12.576c19.308,0,44.099,8.597,50.497,12.576C199.154,127.058,176.163,169.613,149.803,181.811
	L149.803,181.811z"/>
<path fill="#E12426" d="M154.92,103.855h18.859v32.24c0,2.98-0.465,5.792-1.393,8.438c-0.91,2.615-2.404,4.989-4.367,6.941
	c-1.984,1.982-4.064,3.373-6.242,4.176c-3.027,1.119-6.659,1.685-10.901,1.685c-2.453,0-5.13-0.17-8.03-0.517
	c-2.898-0.344-5.324-1.023-7.27-2.045c-1.95-1.021-3.732-2.467-5.348-4.346c-1.616-1.878-2.723-3.814-3.318-5.808
	c-0.963-3.21-1.444-6.05-1.444-8.524v-32.24h18.915v30.75c0,2.748,0.865,6.553,5.26,6.553c4.396,0,5.283-3.76,5.283-6.555v-30.75
	L154.92,103.855z M66.4,244.467h-9.154l0.153-1.738c-1.2,1.417-3.017,2.129-5.451,2.129c-2.4,0-4.08-0.521-5.04-1.562
	c-0.823-0.898-1.234-2.414-1.234-4.544v-15.154h9v14.904c0,1.065,0.035,1.771,0.101,2.114c0.068,0.344,0.48,0.514,1.234,0.514
	c0.652,0,1.046-0.141,1.183-0.425c0.137-0.285,0.206-1.019,0.206-2.203v-14.904h9v20.869H66.4z M90.36,238.859
	c0,2.319-0.6,3.951-1.8,4.897c-0.923,0.73-2.332,1.101-4.215,1.101c-2.194,0-4.097-0.722-5.708-2.168v4.757h-9v-23.849h9v1.845
	c1.646-1.488,3.582-2.234,5.812-2.234c1.611,0,2.914,0.317,3.908,0.957c1.337,0.853,2.004,2.236,2.004,4.152v10.54L90.36,238.859z
	 M81.362,239.351v-10.033c0-1.018-0.06-1.676-0.181-1.973c-0.12-0.297-0.489-0.446-1.105-0.446c-0.583,0-0.972,0.167-1.158,0.5
	c-0.189,0.331-0.283,0.971-0.283,1.919v10.034c0,1.211,0.48,1.814,1.439,1.814c0.549,0,0.899-0.13,1.054-0.392
	C81.284,240.514,81.362,240.038,81.362,239.351L81.362,239.351z M102.906,241.876c0,1.919-0.377,3.24-1.131,3.975
	c-1.063,1.02-3.12,1.528-6.169,1.528h-4.012v-3.334c0.995,0,1.577-0.097,1.749-0.286c0.172-0.188,0.258-0.745,0.258-1.667v-18.49
	h9.306v18.275L102.906,241.876z M102.906,222.322H93.6v-3.337h9.307v3.337H102.906z M126.51,237.297c0,2.652-0.686,4.545-2.057,5.68
	c-1.543,1.258-4.217,1.881-8.022,1.881c-3.84,0-6.53-0.534-8.072-1.598c-1.68-1.157-2.52-3.286-2.52-6.388v-6.068
	c0-2.629,0.848-4.549,2.545-5.768c1.698-1.217,4.174-1.829,7.428-1.829c3.772,0,6.5,0.636,8.178,1.899
	c1.68,1.265,2.52,3.438,2.52,6.513v2.769h-11.673v4.542c0,0.949,0.078,1.551,0.231,1.811c0.156,0.26,0.542,0.39,1.158,0.39
	c0.686,0,1.147-0.159,1.387-0.478c0.24-0.319,0.359-0.896,0.359-1.724v-3.194h8.537L126.51,237.297L126.51,237.297z
	 M117.458,231.017V228.8c0-0.63-0.085-1.101-0.257-1.404c-0.172-0.306-0.497-0.457-0.977-0.457c-0.583,0-0.96,0.122-1.132,0.369
	c-0.171,0.247-0.257,0.742-0.257,1.494v2.217h2.623V231.017z M143.787,230.557c-2.125,0-3.6,0.319-4.422,0.957
	c-0.617,0.474-0.926,1.218-0.926,2.236v10.717h-8.999v-20.869h8.999l-0.36,2.733c1.371-2.079,3.275-3.119,5.709-3.119
	L143.787,230.557L143.787,230.557z M164.87,238.304c0,2.432-0.739,4.133-2.211,5.103c-1.477,0.967-3.857,1.451-7.148,1.451
	c-3.223,0-5.64-0.411-7.25-1.241c-1.919-0.973-2.88-2.556-2.88-4.755v-1.74h7.972v1.348c0,1.188,0.087,1.926,0.26,2.218
	c0.169,0.3,0.58,0.445,1.232,0.445c0.686,0,1.143-0.125,1.362-0.373c0.222-0.247,0.335-0.939,0.335-2.075
	c0-0.779-1.901-1.894-5.709-3.335c-3.806-1.444-5.707-3.431-5.707-5.964c0-2.365,0.822-4.022,2.468-4.967
	c1.405-0.806,3.686-1.207,6.838-1.207c3.429,0,5.915,0.462,7.457,1.385c1.542,0.921,2.313,2.298,2.313,4.114v1.563h-7.971V228.8
	c0-0.703-0.052-1.147-0.152-1.335c-0.205-0.353-0.623-0.526-1.265-0.526c-0.571,0-0.959,0.122-1.161,0.371
	c-0.203,0.247-0.304,0.715-0.304,1.398c0,1.207,0.955,2.164,2.866,2.873c1.908,0.705,3.787,1.406,5.634,2.087
	c2.013,1.087,3.02,2.633,3.02,4.638V238.304z M173.303,244.467h-6.788v-5.181h6.788V244.467z M195.621,235.88
	c0,3.335-0.688,5.641-2.059,6.919c-1.475,1.372-4.13,2.061-7.97,2.061c-3.567,0-6.12-0.595-7.661-1.776
	c-1.645-1.255-2.47-3.406-2.47-6.458v-5.928c0-2.579,0.823-4.471,2.47-5.679c1.645-1.21,4.165-1.811,7.559-1.811
	c3.459,0,6.016,0.644,7.66,1.934c1.646,1.29,2.471,3.402,2.471,6.334h-8.486v-2.393c0-0.846-0.086-1.417-0.257-1.707
	c-0.172-0.295-0.531-0.442-1.08-0.442c-0.511,0-0.866,0.129-1.052,0.389c-0.19,0.26-0.283,0.848-0.283,1.77v9.276
	c0,1.063,0.118,1.787,0.359,2.178c0.241,0.39,0.648,0.584,1.232,0.584c0.582,0,0.985-0.188,1.21-0.567
	c0.221-0.377,0.332-1.112,0.332-2.202v-2.481h8.026L195.621,235.88z M218.657,236.729c0,2.838-0.832,4.904-2.497,6.193
	c-1.66,1.289-4.24,1.935-7.737,1.935c-3.876,0-6.575-0.597-8.1-1.794c-1.526-1.192-2.289-3.307-2.289-6.333v-5.357
	c0-2.745,0.72-4.756,2.161-6.033c1.612-1.419,4.232-2.128,7.865-2.128c3.737,0,6.462,0.674,8.177,2.023
	c1.614,1.257,2.418,3.146,2.418,5.68v5.816L218.657,236.729z M209.658,238.795v-9.415c0-1.113-0.063-1.797-0.181-2.058
	c-0.118-0.259-0.491-0.389-1.105-0.389c-0.548,0-0.91,0.142-1.079,0.423c-0.172,0.286-0.26,0.961-0.26,2.023v9.413
	c0,0.99,0.076,1.629,0.232,1.912c0.154,0.284,0.538,0.425,1.155,0.425c0.688,0,1.063-0.165,1.131-0.495
	C209.62,240.304,209.657,239.689,209.658,238.795L209.658,238.795z M253.73,244.467h-8.743v-14.478c0-1.04-0.038-1.818-0.103-2.325
	c-0.072-0.508-0.517-0.766-1.342-0.766c-0.582,0-0.975,0.215-1.181,0.641c-0.205,0.425-0.308,1.241-0.308,2.45v14.478h-8.743
	v-14.476c0-0.995-0.051-1.759-0.151-2.292c-0.105-0.531-0.519-0.799-1.234-0.799c-0.652,0-1.075,0.191-1.263,0.571
	c-0.189,0.377-0.282,1.218-0.282,2.52v14.478h-8.743v-20.865h8.743v1.987c0.649-0.78,1.478-1.39,2.416-1.776
	c0.96-0.403,2.092-0.602,3.392-0.602c2.402,0,4.286,0.792,5.657,2.379c0.789-0.807,1.627-1.406,2.521-1.794
	c0.892-0.389,1.954-0.583,3.186-0.583c2.368,0,4.014,0.543,4.938,1.632c0.822,0.946,1.236,2.545,1.236,4.789v14.833L253.73,244.467z
	"/>
</svg>
