<?xml version="1.0" encoding="utf-8"?>
<!-- Generator: Adobe Illustrator 19.0.0, SVG Export Plug-In . SVG Version: 6.00 Build 0)  -->
<svg version="1.1" id="Layer_2" xmlns="http://www.w3.org/2000/svg" xmlns:xlink="http://www.w3.org/1999/xlink" x="0px" y="0px"
	 viewBox="-270 148.3 300 300" style="enable-background:new -270 148.3 300 300;" xml:space="preserve">
<style type="text/css">
	.st0{fill:#2B3584;}
	.st1{fill:#F17523;}
</style>
<path class="st0" d="M-53.9,260.9h49.4c0,0-54.3,71-113.1,68.3c-35.9-3.1-46.8-35.6-46.8-35.6s21.7,18.7,43.8,17.7
	C-75.5,309.1-53.9,260.9-53.9,260.9z"/>
<path class="st0" d="M-196.5,260.9h-49.4c0,0,54.3-71,113.1-68.3c35.9,3.1,46.8,35.6,46.8,35.6s-21.7-18.7-43.8-17.7
	C-174.9,212.7-196.5,260.9-196.5,260.9z"/>
<path class="st0" d="M-124.6,218.6c-35.7,0-64.6,42.3-64.6,42.3s28.9,42.3,64.6,42.3c35.7,0,64.6-42.3,64.6-42.3
	S-88.9,218.6-124.6,218.6z M-124.4,297.1c-19.1,0-34.5-16-34.5-35.8c0-19.8,15.5-35.8,34.5-35.8c19.1,0,34.5,16,34.5,35.8
	C-89.8,281.1-105.3,297.1-124.4,297.1z"/>
<g>
	<path class="st1" d="M-110.2,271.7h17c-1.5,9.4-5.7,13.2-10.8,16.7c-5.1,3.5-11.6,5.3-19.5,5.3c-10,0-17.8-2.8-23.7-8.5
		c-5.8-5.6-8.7-13.5-8.7-23.7c0-10.5,2.9-18.7,8.8-24.5c5.9-5.8,13.5-8.7,22.9-8.7c9.1,0,16.5,2.8,22.3,8.5c5.8,5.7,8.7,13.7,8.7,24
		c0,0.6,0,3.2-0.1,4.5h-48.6c0.4,6.9,4.8,14.5,15.3,14.5S-111.9,276.2-110.2,271.7z M-139.8,257.2h30.9c-0.4-4.3-1.6-7.5-3.5-9.6
		c-3-3.3-6.9-5-11.6-5c-4.3,0-7.9,1.3-10.9,4C-137.9,249.2-139.5,252.7-139.8,257.2z"/>
</g>
<path class="st0" d="M-247.2,392c0,2.9-0.9,5-2.7,6.1c-1.5,1-3.7,1.5-6.8,1.5c-2.3,0-4.1-0.6-5.2-1.9c-0.9-1-1.4-2.3-1.4-3.9
	c0-0.8,0.2-2,0.7-3.5c0.6-1.8,1.1-2.7,1.7-2.7c0.4,0,0.6,0.3,0.6,0.8c0,0.2-0.2,0.7-0.5,1.6c-0.3,0.9-0.5,1.6-0.5,2.1
	c0,1.4,0.6,2.4,1.7,3c0.8,0.4,2.1,0.6,3.7,0.6c1.5,0,2.9-0.2,4.1-0.5c1.9-0.5,2.8-1.3,2.8-2.4c0-0.6-0.4-1.5-1.2-2.7
	c-0.7-1.1-1.3-1.9-1.9-2.4l1.6-3.3c0.1-0.2,0.2-0.2,0.4,0C-248.1,387.2-247.2,389.6-247.2,392z M-253.4,382.5l-2.1,2.1l-2.1-2.1
	l2.1-2L-253.4,382.5z"/>
<path class="st0" d="M-237.9,391.4h-1.8c-1,0-1.9-0.3-2.6-1c-0.9-0.9-1.4-2.2-1.4-4.1c0-1.2-0.1-3.1-0.2-5.6
	c-0.2-2.8-0.3-4.7-0.5-5.5c-0.1-0.3,0-0.5,0.1-0.6l2.5-2c0.3-0.2,0.5-0.4,0.5-0.4l0,0c0.1,0,0.1,0.2,0.1,0.4v12.8
	c0,1.4,0.8,2.2,2.4,2.2h0.9V391.4z"/>
<path class="st0" d="M-227.1,391.4h-1.4c-0.8,0-1.5-0.2-2.3-0.6c-0.7-0.4-1.3-1-1.7-1.6c-0.9,1.5-2.2,2.2-3.9,2.2h-2.4v-3.9h1.8
	c1.5,0,2.5-0.3,3.1-1c0.3-0.3,0.5-0.9,0.7-1.8c0.1-0.7,0.4-1,0.7-1c0.4,0,0.6,0.3,0.7,1c0.2,0.9,0.3,1.5,0.6,1.8
	c0.5,0.7,1.3,1,2.5,1h1.6V391.4z M-233.5,396l-1.8,1.9l-1.9-1.9l1.9-1.8L-233.5,396z M-229.4,396l-1.8,1.9l-1.9-1.9l1.9-1.8
	L-229.4,396z"/>
<path class="st0" d="M-209,385.6c0,1.4-0.3,2.7-0.8,3.7c-0.7,1.4-1.7,2-3.1,2c-1.3,0-2.3-0.7-3.1-2.1c-0.8,1.4-1.8,2.1-3,2.1
	c-1.3,0-2.3-0.7-3.1-2.1c-0.8,1.4-2,2.1-3.7,2.1h-2.1v-3.9h2.5c0.9,0,1.5-0.3,1.9-0.9c0.2-0.2,0.3-0.8,0.5-1.7
	c0.2-0.6,0.4-0.9,0.7-0.9c0.4,0,0.6,0.3,0.8,0.9c0.2,1,0.4,1.5,0.5,1.7c0.3,0.6,0.9,0.9,1.8,0.9c0.9,0,1.5-0.3,1.8-0.9
	c0.1-0.2,0.3-0.8,0.5-1.7c0.2-0.6,0.4-0.9,0.8-0.9c0.3,0,0.6,0.3,0.7,0.9c0.2,1,0.3,1.5,0.5,1.7c0.4,0.6,1,0.9,1.9,0.9
	c1.3,0,1.9-0.4,1.9-1.3c0-0.4-0.4-1.2-1.3-2.3l1.4-2.1c0.2-0.3,0.3-0.4,0.3-0.4c0.1,0,0.2,0.1,0.3,0.3c0.3,0.3,0.5,0.8,0.8,1.5
	C-209.2,384.1-209,384.9-209,385.6z"/>
<path class="st0" d="M-197.3,390.4c0,2.9-1,5.3-2.9,7.3c-0.6,0.6-1,0.9-1.1,0.9c-2.7,0-4.7-0.3-6-0.8c-0.3-0.1-0.3-0.2,0-0.3
	c1.9-0.7,3.6-1.6,5.3-2.9c1.9-1.5,2.8-2.8,2.8-3.9c0-0.5-0.3-1.2-1-2c-0.6-0.7-1.1-1.3-1.7-1.7l1.5-3.1c0.1-0.2,0.2-0.2,0.4-0.1
	C-198.3,385.7-197.3,387.9-197.3,390.4z"/>
<path class="st0" d="M-188.1,391.4h-1.8c-1,0-1.9-0.3-2.6-1c-0.9-0.9-1.4-2.2-1.4-4.1c0-1.2-0.1-3.1-0.2-5.6
	c-0.2-2.8-0.3-4.7-0.5-5.5c-0.1-0.3,0-0.5,0.1-0.6l2.5-2c0.3-0.2,0.5-0.4,0.5-0.4l0,0c0.1,0,0.1,0.2,0.1,0.4v12.8
	c0,1.4,0.8,2.2,2.4,2.2h0.9V391.4z"/>
<path class="st0" d="M-182.9,385.5c0,1.5-0.3,2.8-0.9,3.8c-0.8,1.4-2,2.1-3.6,2.1h-1.5v-3.9h1.7c1.5,0,2.2-0.3,2.2-0.8
	c0-0.5-0.6-1.3-1.7-2.6c-0.1-0.1-0.1-0.3,0-0.5l1.8-2.5c0.2-0.2,0.3-0.2,0.5-0.1c0.5,0.5,0.8,1.2,1.1,2.1
	C-183.1,384-182.9,384.8-182.9,385.5z M-184.4,394.9l-1.9,1.8l-1.9-1.9l1.9-1.9L-184.4,394.9z M-182.3,398l-1.9,1.9l-1.9-1.8
	l1.9-1.9L-182.3,398z M-180.3,394.9l-1.9,1.8l-1.9-1.9l1.9-1.9L-180.3,394.9z"/>
<path class="st0" d="M-142.6,391.4h-2.3c-1,0-2-0.5-3.1-1.4c-0.6-0.5-1.7-1.7-3.3-3.5c-0.1,1.6-0.8,2.9-2.1,3.9
	c-0.5,0.4-1.8,0.7-3.8,0.9c-1.7,0.2-3.3,0.3-4.8,0.3c-2.8,0-4.8-0.3-6.1-0.8c-1.9-0.8-2.8-2.4-2.8-4.8c0-1,0.3-2,0.8-2.9
	c0.5-0.9,0.9-1.3,1.2-1.3c0.4,0,0.6,0.2,0.6,0.6c0,0.2-0.1,0.5-0.2,0.9c-0.2,0.5-0.2,0.8-0.2,1.1c0,1.6,0.8,2.6,2.3,3
	c0.7,0.2,2.5,0.3,5.3,0.3c3.4,0,5.7-0.1,6.9-0.4c0.9-0.2,1.4-0.6,1.4-1.1c0-0.7-0.6-1.7-1.9-3c-1.1-1.3-2.2-2.2-3.2-2.8l0.7-3.9
	c4.2-1.7,8.1-3.1,11.5-4.2l-0.8,3.5c-1.8,0.6-4.6,1.5-8.6,2.9c1.6,1.5,3.2,3.2,5,5.1c1.4,1.5,2.3,2.4,2.8,2.8
	c0.7,0.6,1.5,0.9,2.3,0.9h2.3V391.4z"/>
<path class="st0" d="M-131.7,391.4h-1.4c-0.8,0-1.5-0.2-2.3-0.6c-0.7-0.4-1.3-1-1.7-1.6c-0.9,1.5-2.2,2.2-3.9,2.2h-2.4v-3.9h1.8
	c1.5,0,2.5-0.3,3.1-1c0.3-0.3,0.5-0.9,0.7-1.8c0.1-0.7,0.4-1,0.7-1c0.4,0,0.6,0.3,0.7,1c0.2,0.9,0.3,1.5,0.6,1.8
	c0.5,0.7,1.3,1,2.5,1h1.6V391.4z M-138.2,396l-1.8,1.9l-1.9-1.9l1.9-1.8L-138.2,396z M-134,396l-1.8,1.9l-1.9-1.9l1.9-1.8L-134,396z
	"/>
<path class="st0" d="M-126.6,385.5c0,1.5-0.3,2.8-0.9,3.8c-0.8,1.4-2,2.1-3.6,2.1h-1.5v-3.9h1.7c1.5,0,2.2-0.3,2.2-0.8
	c0-0.5-0.6-1.3-1.7-2.6c-0.1-0.1-0.1-0.3,0-0.5l1.8-2.5c0.2-0.2,0.3-0.2,0.5-0.1c0.5,0.5,0.8,1.2,1.1,2.1
	C-126.7,384-126.6,384.8-126.6,385.5z M-126.7,376.5l-2,2.1l-2.1-2.1l2.1-2.1L-126.7,376.5z"/>
<path class="st0" d="M-114.7,390.9c0,2.6-0.9,4.9-2.7,6.8c-0.6,0.6-0.9,0.9-1.1,0.9c-2.5,0-4.6-0.3-6-0.8c-0.3-0.1-0.3-0.2,0-0.3
	c1.8-0.6,3.5-1.6,5.3-3c1.9-1.5,2.8-2.7,2.8-3.7c-0.2,0-0.6,0-1,0c-0.5,0-0.8,0-1,0c-1.4,0-2.4-0.2-3-0.5c-0.8-0.4-1.3-1.2-1.3-2.4
	c0-1.1,0.3-2.3,1-3.7c0.8-1.7,1.8-2.5,2.9-2.5c1.4,0,2.5,0.8,3.2,2.4c0.6,1.3,0.9,2.7,0.9,4.2V390.9z M-117.1,387
	c-0.3-0.7-0.7-1.2-1.3-1.6c-0.4-0.3-0.8-0.4-1.2-0.4c-0.3,0-0.6,0.1-0.9,0.3c-0.3,0.2-0.4,0.5-0.4,0.8c0,0.7,0.6,1.1,1.7,1.1
	C-118.6,387.2-117.9,387.1-117.1,387z"/>
<path class="st0" d="M-100.2,391.4h-0.7c-1,0-1.7-0.1-2.3-0.4c0,3.1-0.9,5.5-2.8,7.3c-0.6,0.5-0.9,0.8-1.1,0.8c-2.7,0-4.7-0.3-6-0.8
	c-0.3-0.1-0.3-0.2,0-0.3c1.8-0.7,3.6-1.7,5.3-3c1.9-1.4,2.9-2.7,2.9-3.7c0-0.5-0.3-1.2-1-2c-0.5-0.6-1.1-1.2-1.7-1.7l1.6-3.2
	c0.1-0.2,0.2-0.2,0.3,0c1.5,2.1,2.9,3.1,4.2,3.1h1.3V391.4z"/>
<path class="st0" d="M-89.4,391.4h-1.4c-0.8,0-1.5-0.2-2.3-0.6c-0.7-0.4-1.3-1-1.7-1.6c-0.9,1.5-2.2,2.2-3.9,2.2h-2.4v-3.9h1.8
	c1.5,0,2.5-0.3,3.1-1c0.3-0.3,0.5-0.9,0.7-1.8c0.1-0.7,0.4-1,0.7-1c0.4,0,0.6,0.3,0.7,1c0.2,0.9,0.3,1.5,0.6,1.8
	c0.5,0.7,1.3,1,2.5,1h1.6V391.4z M-95.9,379.5l-1.9,1.9l-1.9-1.9l1.9-1.9L-95.9,379.5z M-91.7,379.5l-1.9,1.9l-1.8-1.9l1.9-1.9
	L-91.7,379.5z"/>
<path class="st0" d="M-73,391.4h-2.7c-1,0-2-0.5-3.1-1.4c-0.6-0.5-1.7-1.7-3.3-3.5c-0.2,3.2-2,4.8-5.7,4.8h-2.4v-3.9h1.9
	c3,0,4.5-0.4,4.5-1.1c0-0.7-0.6-1.8-1.9-3.1c-1.1-1.2-2.1-2.1-3.2-2.7l0.7-3.9c4.2-1.7,8.1-3.1,11.5-4.2l-0.8,3.5
	c-1.8,0.6-4.6,1.5-8.6,2.9c1.6,1.5,3.2,3.2,5,5.1c1.4,1.5,2.3,2.4,2.8,2.8c0.7,0.6,1.5,0.9,2.3,0.9h2.8V391.4z"/>
<path class="st0" d="M-68,376.5c0,0.1,0.1,0.2,0.1,0.3c0,0-0.1,0.1-0.2,0.1c-0.2,0-0.5,0-0.9-0.1c0.2,3.4,0.3,6.9,0.3,10.3
	c0,1.3-0.3,2.3-1,3.1c-0.7,0.9-1.7,1.4-2.9,1.4h-1.1v-3.9h1c0.8,0,1.3-0.2,1.6-0.5c0.2-0.2,0.3-0.7,0.2-1.3
	c-0.1-1.4-0.3-3.3-0.6-5.7c-0.3-2.6-0.6-4.4-0.8-5.2l2.5-2.5c0.1-0.1,0.3-0.1,0.3,0.1C-69.2,373.3-68.8,374.7-68,376.5z"/>
<path class="st0" d="M-62,388c0,0.7-0.4,1.9-1.2,3.5c-0.2,0.4-0.3,0.6-0.4,0.6c-0.1,0-0.2-0.5-0.3-1.4l-1.4-16l2.8-2.3
	c0.2-0.2,0.3-0.2,0.4-0.2c0.1,0,0.2,0.1,0.2,0.3V388z"/>
<path class="st0" d="M-31.9,385.3c0,2.2-0.7,3.8-2.2,4.7c-1.6,1.1-4.8,1.6-9.7,1.6c-2.6,0-4.6-0.3-5.9-0.9c-2-0.9-3-2.4-3-4.7
	c0-1,0.3-2,0.8-2.9c0.5-0.9,0.9-1.3,1.2-1.3c0.4,0,0.6,0.2,0.6,0.6c0,0.2-0.1,0.5-0.2,0.9c-0.2,0.5-0.2,0.8-0.2,1.1
	c0,1.6,0.9,2.6,2.7,3c0.8,0.2,2.4,0.3,5,0.3c5.9,0,8.9-0.5,8.9-1.5c0-0.2-0.3-0.6-0.8-1.3c-0.4-0.6-0.8-1-1-1.2l2-2.5
	c0.1-0.1,0.2-0.2,0.2-0.2c0.1,0,0.1,0,0.2,0.2C-32.4,382.6-31.9,383.9-31.9,385.3z M-42.8,379.5l-1.9,1.9l-1.9-1.9l1.9-1.9
	L-42.8,379.5z M-38.6,379.5l-1.9,1.9l-1.9-1.9l1.9-1.9L-38.6,379.5z"/>
<path class="st0" d="M-20.2,390.4c0,2.9-1,5.3-2.9,7.3c-0.6,0.6-1,0.9-1.1,0.9c-2.7,0-4.7-0.3-6-0.8c-0.3-0.1-0.3-0.2,0-0.3
	c1.9-0.7,3.6-1.6,5.3-2.9c1.9-1.5,2.8-2.8,2.8-3.9c0-0.5-0.3-1.2-1-2c-0.6-0.7-1.1-1.3-1.7-1.7l1.5-3.1c0.1-0.2,0.2-0.2,0.4-0.1
	C-21.1,385.7-20.2,387.9-20.2,390.4z"/>
<path class="st0" d="M-11,391.4h-1.8c-1,0-1.9-0.3-2.6-1c-0.9-0.9-1.4-2.2-1.4-4.1c0-1.2-0.1-3.1-0.2-5.6c-0.2-2.8-0.3-4.7-0.5-5.5
	c-0.1-0.3,0-0.5,0.1-0.6l2.5-2c0.3-0.2,0.5-0.4,0.5-0.4l0,0c0.1,0,0.1,0.2,0.1,0.4v12.8c0,1.4,0.8,2.2,2.4,2.2h0.9V391.4z"/>
<path class="st0" d="M7.7,391.4h-3c-3.3,0-5-1.6-5-4.7c-3.4,3.1-6.8,4.7-10.3,4.7h-1.2v-3.9h1.6c1.8,0,3.4-0.2,4.7-0.7
	c0.9-0.3,2.3-1.1,4.3-2.2c-2.4-0.8-4.1-1.2-5.2-1.2c-0.5,0-1.1,0.3-1.8,0.9c-0.6,0.6-1,0.9-1,0.9c-0.4,0-0.6-0.2-0.6-0.5
	c0-0.4,0.1-0.7,0.3-1.1c1.2-2.4,2.5-3.5,4.1-3.5c0.8,0,2.3,0.4,4.5,1.1c2.2,0.7,3.9,1.1,5.2,1.1c0.8,0,1.2,0,1.2,0.1
	c0,0,0,0.1-0.1,0.2l-1.3,2.8c-1.1,0-2.1,0.2-2.8,0.5c0,0.8,0.4,1.3,1.3,1.6c0.5,0.1,1.3,0.2,2.3,0.2h2.7V391.4z M-0.4,395.5
	l-2.1,2.1l-2-2.1l2-2.1L-0.4,395.5z"/>
<path class="st0" d="M12.9,385.5c0,1.5-0.3,2.8-0.9,3.8c-0.8,1.4-2,2.1-3.6,2.1H6.9v-3.9h1.7c1.5,0,2.2-0.3,2.2-0.8
	c0-0.5-0.6-1.3-1.7-2.6c-0.1-0.1-0.1-0.3,0-0.5l1.8-2.5c0.2-0.2,0.3-0.2,0.5-0.1c0.5,0.5,0.8,1.2,1.1,2.1
	C12.8,384,12.9,384.8,12.9,385.5z M11.4,376.7l-1.9,1.9l-1.9-1.9l1.9-1.9L11.4,376.7z M15.5,376.7l-1.9,1.9l-1.8-1.9l1.9-1.9
	L15.5,376.7z"/>
</svg>
