<?xml version="1.0" encoding="utf-8"?>
<!-- Generator: Adobe Illustrator 19.0.0, SVG Export Plug-In . SVG Version: 6.00 Build 0)  -->
<svg version="1.1" id="Layer_1" xmlns="http://www.w3.org/2000/svg" xmlns:xlink="http://www.w3.org/1999/xlink" x="0px" y="0px"
	 viewBox="-270 148.3 300 300" style="enable-background:new -270 148.3 300 300;" xml:space="preserve">
<style type="text/css">
	.st0{fill:#58595B;}
	.st1{fill:#FFFFFF;}
	.st2{fill:#F48320;}
</style>
<g>
	<path class="st0" d="M-2.1,284.1h-23h-3.5v-16.4v-3.8h-3.8h-23.9h-3.8v3.8v16.4h-2.6h-23h-3.9l0.1,3.9c0,0.1,0.2,8.4,0.2,15.1
		c0,2.1-1.2,4.1-2.5,5.5l-9.1-18.1l19.2-30.9l3.6-5.7h-6.8h-17.8h-2.1l-1.1,1.8l-6.9,11.1l-1.3-2.6l-1-2.1h-2.3h-21.8h-6.1l2.7,5.4
		l8.7,17.4h-16h-0.6h-2.3h-3.3h-14h-0.6h-2.3h-3.3h-14h-6.2l2.9,5.5l3.4,6.5l-1.5,2.4l-16.5,26.3c-1.5-1.5-2.9-3.5-2.9-5.8
		c0-6.8,0.2-31.6,0.2-31.9l0-3.8h-3.8h-23h-3.8v3.8v34c0,7.5,10.2,13.1,15.2,13.1h18.8h0.3h17.6h2.1l1.1-1.8l9.3-14.9h0.3h17.3h0.6
		h2.3h3.3h8.3h5.6h0.6h0.5h1.7h3.3h12.7h1.2h0.9h1h2.3h2h5.7c-3.2,2.1-5.3,5.7-5.3,9.7c0,6.4,5.2,11.6,11.6,11.6c3,0,5.8-1.1,7.8-3
		c2.1,1.9,4.8,3,7.8,3c6.4,0,11.6-5.2,11.6-11.6c0-4.1-2.1-7.7-5.3-9.7h4.6c4,0,11.2-3.6,14.1-8.8v5v3.8h3.8h23.7h0.2h1.6
		c-3.2,2.1-5.3,5.7-5.3,9.7c0,6.4,5.2,11.6,11.6,11.6s11.6-5.2,11.6-11.6c0-4.1-2.1-7.7-5.3-9.7h4.6c5.1,0,15.2-5.7,15.2-13.1v-17.4
		v-3.8H-2.1z M-92.9,319.5c-0.5-0.4-1-0.8-1.5-1.1h1.5h1.5C-91.9,318.7-92.4,319.1-92.9,319.5z"/>
	<g>
		<path class="st1" d="M-85.6,287.8h23c0,0,0,12.4,0,17.4c0,4.9-8.2,9.4-11.5,9.4c-3.3,0-18.8,0-18.8,0s7.5-4.6,7.5-11.5
			C-85.4,296.2-85.6,287.8-85.6,287.8z"/>
	</g>
	<g>
		<path class="st1" d="M-25.1,287.8c0,0,0.2,8.3,0.2,15.2c0,6.2-6.3,10.6-7.5,11.4v0v-46.7h-23.9v46.9h23.7c0,0,0.1,0,0.2,0
			c1.9,0,15.7,0,18.8,0c3.3,0,11.5-4.5,11.5-9.4c0-4.9,0-17.4,0-17.4H-25.1z"/>
	</g>
	<g>
		<polygon class="st1" points="-156.8,314.6 -176.5,314.6 -190.1,288.6 -170.4,288.6 		"/>
	</g>
	<g>
		<polygon class="st1" points="-136,314.6 -155.3,314.6 -168.9,288.6 -149.6,288.6 		"/>
	</g>
	<g>
		<path class="st1" d="M-187,298.8l-20.1,32.3c-1.1-0.7-7.6-5.1-7.6-11.4c0-6.9,0.2-31.9,0.2-31.9h-23c0,0,0,29.1,0,34
			c0,4.9,8.2,9.4,11.5,9.4c3,0,16.8,0,18.8,0c0.2,0,0.3,0,0.3,0h17.6l10.5-17L-187,298.8z"/>
	</g>
	<g>
		<circle class="st1" cx="-24.5" cy="328.1" r="7.9"/>
	</g>
	<g>
		<path class="st1" d="M-85,320.2c-4.3,0-7.7,3.4-7.8,7.6c-0.1-4.2-3.6-7.6-7.8-7.6c-4.3,0-7.9,3.5-7.9,7.9s3.5,7.9,7.9,7.9
			c4.3,0,7.7-3.4,7.8-7.6c0.1,4.2,3.6,7.6,7.8,7.6c4.3,0,7.9-3.5,7.9-7.9S-80.7,320.2-85,320.2z"/>
	</g>
	<g>
		<g>
			<polygon class="st1" points="-84.7,257.6 -102.5,257.6 -111,271.2 -103.1,287 			"/>
		</g>
	</g>
	<g>
		<polygon class="st2" points="-92.9,314.6 -114.7,314.6 -139.1,265.8 -117.3,265.8 		"/>
	</g>
	<g>
		<g>
			<polygon class="st1" points="-125.7,296.8 -129.9,288.6 -147.9,288.6 -135.8,311.7 			"/>
		</g>
		<g>
			<polygon class="st1" points="-116.8,313.8 -124.9,298.3 -135.1,313.3 -134.4,314.6 -117.2,314.6 -116.4,314.6 			"/>
		</g>
	</g>
</g>
</svg>
