<svg xmlns="http://www.w3.org/2000/svg" width="300" height="300" viewBox="0 0 300 300"><g fill-rule="evenodd" clip-rule="evenodd"><path fill="#ED2424" d="M8.566 109.783h282.867v80.434H8.566z"/><path fill="#FFF" d="M94.374 136.394v-.6-8.974c0-.95.454-1.405 1.408-1.405h4.797c.733.002 1.228.48 1.262 1.216.007.128 0 .256 0 .384v38.195c0 1.25-.19 1.542-1.402 1.853-2.43.624-4.89 1.1-7.397 1.276-1.59.113-3.19.2-4.784.182-2.66-.03-5.21-.592-7.45-2.11-2.504-1.692-3.94-4.127-4.677-7.01-.403-1.573-.57-3.176-.567-4.793.007-2.125-.004-4.255.098-6.377.107-2.205.646-4.32 1.705-6.276 1.648-3.04 4.273-4.75 7.584-5.494 2.093-.47 4.216-.47 6.344-.323 1.002.068 2.003.164 3.076.254zm-.024 25.774v-19.59c-1.46-.334-5.228-.535-6.643-.33-1.79.257-3.12 1.137-3.83 2.86a10.3 10.3 0 0 0-.803 3.72c-.05 2.03-.097 4.062-.02 6.09.044 1.218.216 2.45.51 3.632.467 1.866 1.557 3.278 3.55 3.674.946.188 1.938.228 2.904.208 1.432-.027 2.863-.17 4.332-.264zM52.568 154.923c-.577 3.516 2.026 6.943 5.48 7.148 1.89.112 3.8.03 5.698-.05 1.818-.078 3.628-.27 5.444-.412.11-.01.223-.006.335-.007.894 0 1.146.244 1.146 1.13v3.357c0 1.014-.257 1.4-1.246 1.544-2.05.305-4.108.612-6.172.78-1.75.14-3.517.19-5.27.107-4.192-.198-7.826-1.65-10.43-5.104a11.788 11.788 0 0 1-2.4-6.664c-.122-2.917-.205-5.857.015-8.762.326-4.29 2.14-7.856 5.953-10.163 1.77-1.07 3.732-1.56 5.78-1.71 2.574-.188 5.108.003 7.505 1.077 3.654 1.636 5.827 4.5 6.848 8.308.396 1.472.587 2.972.582 4.498-.004 1.12 0 2.238 0 3.358 0 1.25-.31 1.564-1.543 1.564-5.693.003-11.387 0-17.078 0-.21.003-.416.003-.646.003zm-.028-5.35h11.754c.034-1.137-.105-2.222-.478-3.265-.724-2.03-2.07-3.414-4.25-3.765-2.292-.368-4.283.237-5.717 2.172-1.058 1.428-1.282 3.096-1.31 4.86zM242.122 152.286c-.132 1.863-.123 3.747-.428 5.58-.637 3.845-2.44 6.997-5.94 8.988-1.736.99-3.626 1.495-5.606 1.638-2.59.188-5.146 0-7.562-1.058-3.73-1.634-5.87-4.584-6.89-8.44-.408-1.54-.532-3.114-.543-4.696-.01-1.854-.045-3.713.073-5.56.24-3.706 1.414-7.035 4.254-9.593 1.708-1.535 3.73-2.438 5.983-2.82 2.633-.446 5.258-.415 7.825.384 4.216 1.31 6.82 4.204 8.047 8.397.452 1.542.663 3.12.67 4.725.002.815 0 1.63 0 2.445.04.005.076.008.117.01zm-7.488.05c-.032 0-.065-.003-.098-.006 0-.91.003-1.82 0-2.733-.008-1.174-.192-2.318-.603-3.423-1.374-3.677-5.966-5-8.953-2.552-1.483 1.22-2.12 2.923-2.24 4.767-.136 2.1-.106 4.213-.11 6.322 0 .73.067 1.47.2 2.188.457 2.5 1.893 4.972 5.126 5.232 2.242.184 4.324-.524 5.508-2.75.376-.71.715-1.495.818-2.277.21-1.577.246-3.178.352-4.77zM169.52 149.22c-.093-1.48-.11-2.9-.288-4.3-.164-1.29-1.034-2.063-2.27-2.367a9.08 9.08 0 0 0-2.082-.284 83.89 83.89 0 0 0-9.427.408c-1.117.114-1.406-.315-1.383-1.214.025-1.04.005-2.078.005-3.118 0-.85.288-1.263 1.123-1.405 1.477-.254 2.96-.528 4.45-.646 1.893-.15 3.8-.202 5.698-.21 1.945-.007 3.847.312 5.665 1.033 3.15 1.247 4.975 3.59 5.62 6.866.183.934.26 1.902.26 2.854.023 6.302.014 12.603.014 18.902 0 1.105-.14 1.253-1.212 1.543-3.904 1.057-7.885 1.415-11.91 1.236-2.304-.102-4.577-.4-6.732-1.306-2.92-1.228-4.354-3.516-4.7-6.574a14.537 14.537 0 0 1 .218-4.766c.647-2.953 2.575-4.726 5.347-5.68 2.12-.728 4.33-.94 6.556-.972 1.63-.02 3.258-.002 5.05-.002zm-.086 5c-.104-.035-.133-.056-.16-.056-1.25-.003-2.497-.04-3.742.003-1.037.035-2.075.103-3.095.275-1.28.216-2.256.91-2.423 2.288-.137 1.102-.213 2.237-.104 3.336.155 1.554.923 2.3 2.448 2.588 2.22.416 4.444.387 6.662-.07.34-.073.425-.217.422-.545-.015-2-.008-3.998-.008-5.998v-1.823zM272.46 156.552v10.078c-.003 1.078-.354 1.43-1.433 1.43h-4.7c-.896 0-1.3-.41-1.3-1.324-.003-1.407-.003-2.815-.003-4.225 0-5.067.028-10.14-.023-15.208-.01-1.02-.226-2.06-.504-3.05-.375-1.34-1.444-1.932-2.76-1.972a55.49 55.49 0 0 0-4.792.063c-1.146.066-1.938.73-2.364 1.82-.417 1.06-.545 2.166-.545 3.285-.012 6.367-.007 12.732-.007 19.1 0 .223.01.45-.035.668-.105.515-.53.84-1.072.84-1.727.004-3.453.004-5.18.003-.644-.003-1.082-.413-1.142-1.05-.003-.05-.003-.096-.003-.146.003-6.748-.046-13.498.033-20.248.038-3.09 1.084-5.857 3.44-8 1.618-1.473 3.57-2.294 5.717-2.416 2.436-.14 4.894-.16 7.327-.01 4.55.285 8.178 3.58 9.02 8.06.2 1.063.296 2.154.31 3.234.042 3.022.018 6.044.018 9.068zM117.8 136.077c3.136-.08 6.207.39 9.256 1.066.81.18 1.128.578 1.132 1.415.01 1.04.01 2.078 0 3.118-.007.888-.374 1.213-1.258 1.128-1.75-.17-3.492-.407-5.246-.514-1.957-.117-3.924-.317-5.876.048-1.274.237-1.828.887-1.863 2.06-.013.483.133.885.527 1.166.598.428 1.19.866 1.813 1.254 2.7 1.674 5.442 3.283 8.105 5.017 1.002.655 1.907 1.51 2.717 2.398 1.522 1.673 1.876 3.77 1.79 5.945-.09 2.455-1.058 4.52-3.018 6.055-1.24.97-2.664 1.56-4.186 1.925-1.86.442-3.75.472-5.626.34-2.087-.144-4.163-.397-6.238-.646-.71-.085-1.406-.275-2.1-.466-.673-.185-.97-.61-.973-1.304-.007-1.07-.007-2.143.003-3.215.004-.597.394-1.013.99-.984.91.042 1.816.156 2.722.218 1.61.11 3.22.25 4.83.29 1.32.03 2.65-.008 3.966-.122 1.042-.09 1.772-.686 2.017-1.758.24-1.058-.047-1.96-.955-2.563-1.57-1.04-3.167-2.04-4.765-3.038-1.595-1-3.234-1.938-4.802-2.98-2.02-1.342-3.54-3.132-4.044-5.553-.572-2.726-.25-5.326 1.684-7.506 1.214-1.37 2.832-2.084 4.59-2.39 1.58-.277 3.193-.37 4.79-.547.006.048.012.096.016.144zM189.96 142.063V159.747c0 .223.012.447.02.67.062 1.52.64 2.17 2.165 2.236 1.854.08 3.708.075 5.562.097 1.036.012 1.27.236 1.27 1.263.004.96.004 1.922 0 2.88-.002.744-.226 1.07-.97 1.184-1.023.16-2.058.287-3.092.343-1.435.08-2.874.108-4.313.11-1.333 0-2.64-.196-3.9-.655-2.328-.853-3.57-2.61-4.016-4.963-.19-1-.28-2.03-.283-3.045-.02-9.198-.013-18.396-.013-27.594 0-1.095.27-1.4 1.357-1.585 1.573-.27 3.144-.547 4.714-.824.94-.167 1.49.27 1.494 1.228.007 1.583.003 3.166.003 4.75v.61h.574c2.383 0 4.765 0 7.15.002.94 0 1.292.353 1.296 1.308.005.99.005 1.984 0 2.975-.007.888-.432 1.32-1.326 1.323-2.353.007-4.704.004-7.054.004h-.637zM140.864 136.453h7.775c.87 0 1.23.358 1.23 1.218v3.072c0 .904-.396 1.313-1.315 1.317-2.367.008-4.734.02-7.102-.012-.503-.006-.6.148-.598.62.018 5.838.007 11.676.015 17.516 0 .316.028.64.094.95.196.95.836 1.47 2.047 1.517 1.884.073 3.77.07 5.657.104.19.005.387 0 .568.05.413.108.645.363.64.826-.013 1.12 0 2.238-.004 3.36 0 .618-.212.935-.814 1.06-.623.13-1.26.218-1.893.268-2.343.188-4.688.36-7.036.12-1.447-.146-2.83-.507-4.04-1.36-1.727-1.218-2.372-3.028-2.64-5.015-.097-.71-.105-1.433-.105-2.15-.007-9.278.003-18.556-.02-27.834 0-.983.524-1.254 1.15-1.368a441.99 441.99 0 0 1 4.955-.857c.88-.15 1.423.298 1.434 1.2.012 1.6.002 3.2.003 4.8v.598zM36.32 142.594V166.675c0 1.037-.344 1.385-1.366 1.385h-4.8c-.77-.003-1.25-.478-1.25-1.252-.004-9.148-.004-18.296-.004-27.444 0-.777.41-1.37 1.302-1.628 1.53-.44 3.07-.865 4.63-1.17 2.363-.455 4.76-.535 7.162-.492.27.006.542.042.8.11.432.116.683.412.686.87.004 1.376.02 2.75-.007 4.126-.013.682-.463 1.026-1.285 1.056-1.1.04-2.203.045-3.303.106-.843.048-1.68.163-2.566.252zM210.14 152.247v14.3c0 1.088-.422 1.512-1.497 1.512h-4.657c-.795 0-1.274-.46-1.313-1.263-.01-.11-.003-.223-.003-.337v-28.505c0-.16-.006-.322.015-.48.094-.647.516-1.02 1.173-1.02 1.698-.003 3.392-.003 5.09.002.73 0 1.18.453 1.19 1.2.01.85.003 1.697.003 2.546v12.044zM206.432 132.256c-.895 0-1.79.004-2.684 0-.766-.005-1.22-.45-1.223-1.22-.006-1.563-.01-3.128 0-4.694.004-.73.505-1.21 1.246-1.213 1.76-.005 3.516-.004 5.272 0 .708 0 1.247.467 1.257 1.16.02 1.6.02 3.195 0 4.793-.01.733-.502 1.17-1.232 1.172-.88.004-1.758 0-2.636 0z"/></g></svg>