<?xml version="1.0" encoding="utf-8"?>
<!-- Generator: Adobe Illustrator 19.2.0, SVG Export Plug-In . SVG Version: 6.00 Build 0)  -->
<svg version="1.1" id="Layer_1" xmlns="http://www.w3.org/2000/svg" xmlns:xlink="http://www.w3.org/1999/xlink" x="0px" y="0px"
	 viewBox="0 0 250 250" style="enable-background:new 0 0 250 250;" xml:space="preserve">
<style type="text/css">
	.st0{fill-rule:evenodd;clip-rule:evenodd;fill:#BFDEF5;}
	
		.st1{fill-rule:evenodd;clip-rule:evenodd;fill:none;stroke:#255F93;stroke-width:2.0571;stroke-linecap:round;stroke-linejoin:round;stroke-miterlimit:22.9256;}
	
		.st2{fill-rule:evenodd;clip-rule:evenodd;fill:none;stroke:#286092;stroke-width:1.8964;stroke-linecap:round;stroke-linejoin:round;stroke-miterlimit:22.9256;}
	.st3{fill-rule:evenodd;clip-rule:evenodd;fill:#FFFFFF;stroke:#255F93;stroke-width:1.8967;stroke-miterlimit:22.9256;}
	.st4{fill-rule:evenodd;clip-rule:evenodd;fill:#286092;stroke:#255F93;stroke-width:1.8967;stroke-miterlimit:22.9256;}
	.st5{fill-rule:evenodd;clip-rule:evenodd;fill:#D9DBDA;stroke:#255F93;stroke-width:2.3309;stroke-miterlimit:22.9256;}
	.st6{fill-rule:evenodd;clip-rule:evenodd;fill:#F7F8F9;stroke:#255F93;stroke-width:1.8961;stroke-miterlimit:22.9256;}
	.st7{fill-rule:evenodd;clip-rule:evenodd;fill:#255F93;}
	.st8{fill-rule:evenodd;clip-rule:evenodd;fill:#FFFFFF;stroke:#255F93;stroke-width:1.8964;stroke-miterlimit:22.9256;}
	.st9{fill-rule:evenodd;clip-rule:evenodd;fill:#87B8E3;stroke:#255F93;stroke-width:2.0183;stroke-miterlimit:22.9256;}
	
		.st10{fill-rule:evenodd;clip-rule:evenodd;fill:#FFFFFF;stroke:#255F93;stroke-width:2.0183;stroke-linecap:round;stroke-linejoin:round;stroke-miterlimit:22.9256;}
	.st11{fill-rule:evenodd;clip-rule:evenodd;fill:#FFFFFF;stroke:#255F93;stroke-width:2.0183;stroke-miterlimit:22.9256;}
	
		.st12{fill-rule:evenodd;clip-rule:evenodd;fill:none;stroke:#255F93;stroke-width:2.0183;stroke-linecap:round;stroke-miterlimit:22.9256;stroke-dasharray:2.0183,6.0548;}
	.st13{fill-rule:evenodd;clip-rule:evenodd;fill:#255F93;stroke:#255F93;stroke-width:2.0183;stroke-miterlimit:22.9256;}
	
		.st14{fill-rule:evenodd;clip-rule:evenodd;fill:none;stroke:#255F93;stroke-width:1.8964;stroke-linecap:round;stroke-linejoin:round;stroke-miterlimit:22.9256;}
	.st15{fill-rule:evenodd;clip-rule:evenodd;fill:#D1D3D4;stroke:#255F93;stroke-width:2.0183;stroke-miterlimit:22.9256;}
	.st16{fill-rule:evenodd;clip-rule:evenodd;fill:none;stroke:#255F93;stroke-width:2.0183;stroke-miterlimit:22.9256;}
	
		.st17{fill-rule:evenodd;clip-rule:evenodd;fill:none;stroke:#255F93;stroke-width:1.984;stroke-linecap:round;stroke-linejoin:round;stroke-miterlimit:22.9256;}
	
		.st18{fill-rule:evenodd;clip-rule:evenodd;fill:none;stroke:#286092;stroke-width:1.984;stroke-linecap:round;stroke-linejoin:round;stroke-miterlimit:22.9256;}
	
		.st19{fill-rule:evenodd;clip-rule:evenodd;fill:none;stroke:#255F93;stroke-width:1.9843;stroke-linecap:round;stroke-linejoin:round;stroke-miterlimit:22.9256;}
	
		.st20{fill-rule:evenodd;clip-rule:evenodd;fill:#E6E7E8;stroke:#E6E7E8;stroke-width:2.0183;stroke-linecap:round;stroke-linejoin:round;stroke-miterlimit:22.9256;}
	
		.st21{fill-rule:evenodd;clip-rule:evenodd;fill:#87B8E3;stroke:#255F93;stroke-width:2.0183;stroke-linecap:round;stroke-linejoin:round;stroke-miterlimit:22.9256;}
	
		.st22{fill-rule:evenodd;clip-rule:evenodd;fill:none;stroke:#255F93;stroke-width:2.0183;stroke-linecap:round;stroke-linejoin:round;stroke-miterlimit:22.9256;}
	
		.st23{fill-rule:evenodd;clip-rule:evenodd;fill:#FFFFFF;stroke:#255F93;stroke-width:1.984;stroke-linecap:round;stroke-linejoin:round;stroke-miterlimit:22.9256;}
	.st24{fill-rule:evenodd;clip-rule:evenodd;fill:#80AFD6;}
	
		.st25{fill-rule:evenodd;clip-rule:evenodd;fill:none;stroke:#3F4243;stroke-width:1.4173;stroke-linecap:round;stroke-linejoin:round;stroke-miterlimit:22.9256;}
	
		.st26{fill-rule:evenodd;clip-rule:evenodd;fill:none;stroke:#F05B72;stroke-width:1.4173;stroke-linecap:round;stroke-linejoin:round;stroke-miterlimit:22.9256;}
	
		.st27{fill-rule:evenodd;clip-rule:evenodd;fill:#FFFFFF;stroke:#255F93;stroke-width:2.1815;stroke-linecap:round;stroke-linejoin:round;stroke-miterlimit:22.9256;}
	
		.st28{fill-rule:evenodd;clip-rule:evenodd;fill:#D1D3D4;stroke:#255F93;stroke-width:2.1815;stroke-linecap:round;stroke-linejoin:round;stroke-miterlimit:22.9256;}
	.st29{fill-rule:evenodd;clip-rule:evenodd;fill:#F05B72;}
	.st30{fill-rule:evenodd;clip-rule:evenodd;fill:#5D9ED5;}
	.st31{fill-rule:evenodd;clip-rule:evenodd;fill:#FFFFFF;stroke:#255F93;stroke-width:1.984;stroke-miterlimit:22.9256;}
	.st32{fill-rule:evenodd;clip-rule:evenodd;fill:#FFFFFF;}
	
		.st33{fill-rule:evenodd;clip-rule:evenodd;fill:none;stroke:#255F93;stroke-width:1.984;stroke-linecap:round;stroke-linejoin:round;stroke-miterlimit:10;}
	
		.st34{fill-rule:evenodd;clip-rule:evenodd;fill:#EF413D;stroke:#255F93;stroke-width:1.984;stroke-linejoin:round;stroke-miterlimit:22.9256;}
	.st35{fill-rule:evenodd;clip-rule:evenodd;fill:#CEE6F7;}
	
		.st36{fill-rule:evenodd;clip-rule:evenodd;fill:#FFFFFF;stroke:#336296;stroke-width:2.1814;stroke-linecap:round;stroke-linejoin:round;stroke-miterlimit:22.9256;}
	
		.st37{fill-rule:evenodd;clip-rule:evenodd;fill:#FFFFFF;stroke:#336296;stroke-width:2.1815;stroke-linecap:round;stroke-linejoin:round;stroke-miterlimit:22.9256;}
	
		.st38{fill-rule:evenodd;clip-rule:evenodd;fill:#FFFFFF;stroke:#336296;stroke-width:2.1823;stroke-linecap:round;stroke-linejoin:round;stroke-miterlimit:22.9256;}
	.st39{fill:none;stroke:#336296;stroke-width:1.984;stroke-linecap:round;stroke-linejoin:round;stroke-miterlimit:22.9256;}
	
		.st40{fill-rule:evenodd;clip-rule:evenodd;fill:#FFFFFF;stroke:#336296;stroke-width:1.9033;stroke-linecap:round;stroke-linejoin:round;stroke-miterlimit:22.9256;}
	
		.st41{fill-rule:evenodd;clip-rule:evenodd;fill:#FFFFFF;stroke:#336296;stroke-width:2.0183;stroke-linecap:round;stroke-linejoin:round;stroke-miterlimit:22.9256;}
	
		.st42{fill-rule:evenodd;clip-rule:evenodd;fill:#97C0E6;stroke:#336296;stroke-width:2.0183;stroke-linecap:round;stroke-linejoin:round;stroke-miterlimit:22.9256;}
	.st43{fill:none;stroke:#336296;stroke-width:1.4173;stroke-linecap:round;stroke-linejoin:round;stroke-miterlimit:22.9256;}
	.st44{fill:none;stroke:#336296;stroke-width:1.4173;stroke-miterlimit:22.9256;}
	
		.st45{fill:none;stroke:#E7E7E7;stroke-width:0.8504;stroke-linecap:round;stroke-linejoin:round;stroke-miterlimit:22.9256;stroke-dasharray:0.8504,2.5512;}
	.st46{fill:none;stroke:#336396;stroke-width:1.8964;stroke-linecap:round;stroke-linejoin:round;stroke-miterlimit:22.9256;}
	.st47{fill-rule:evenodd;clip-rule:evenodd;fill:#336296;}
	
		.st48{fill:none;stroke:#97C0E6;stroke-width:0.8504;stroke-linecap:round;stroke-linejoin:round;stroke-miterlimit:22.9256;stroke-dasharray:0.8504,2.5512;}
	.st49{fill:none;stroke:#336296;stroke-width:2.0183;stroke-miterlimit:22.9256;}
	.st50{fill-rule:evenodd;clip-rule:evenodd;fill:#F79332;stroke:#336296;stroke-width:2.0183;stroke-miterlimit:22.9256;}
	.st51{fill-rule:evenodd;clip-rule:evenodd;fill:#FFFFFF;stroke:#336296;stroke-width:2.0183;stroke-miterlimit:22.9256;}
	.st52{fill:none;stroke:#336296;stroke-width:2.0571;stroke-linecap:round;stroke-linejoin:round;stroke-miterlimit:22.9256;}
	.st53{fill:none;stroke:#336296;stroke-width:2.0183;stroke-linecap:round;stroke-linejoin:round;stroke-miterlimit:22.9256;}
	.st54{fill:none;stroke:#336296;stroke-width:2.0183;stroke-linecap:round;stroke-linejoin:round;stroke-miterlimit:10;}
</style>
<g>
	<path class="st35" d="M107.1,73.7H139h41.5c13.2,0,24,10.8,24,24v0c0,13.2-10.8,24-24,24h0v8.8h23c4.8,0,8.8,4,8.8,8.8v0
		c0,4.8-4,9-8.8,9h-18.2l-0.7,0c-2.9,0-5.2,2.4-5.2,5.2v0c0,2.9,2.4,5.2,5.2,5.2h0.7v0h1.5c4.8,0,8.8,4,8.8,8.8l0,0
		c0,4.8-4,8.8-8.8,8.8h-39.1H78.2h-3.9c-13.2,0-24-10.8-24-24l0,0c0-13.2,10.8-24,24-24h2.8h1.2c1.9,0,3.4-1.5,3.4-3.4l0,0
		c0-1.9-1.5-3.4-3.4-3.4h-1.2h-5.5c-7.3,0-13.2-6-13.2-13.2v0c0-7.3,6-13.2,13.2-13.2h20V84.4h-5.9c-2.9,0-5.4-2.4-5.4-5.4l0,0
		c0-2.9,2.4-5.4,5.4-5.4H107.1L107.1,73.7z"/>
	<path class="st36" d="M79.9,163.8h104.8v-62.2c0-3.4-2.8-6.1-6.1-6.1H86c-3.4,0-6.1,2.8-6.1,6.1V163.8L79.9,163.8z"/>
	<path class="st37" d="M86,163.8h92.6v-59.5c0-1.7-1.4-3.1-3.1-3.1H89.1c-1.7,0-3.1,1.4-3.1,3.1V163.8L86,163.8z"/>
	<path class="st36" d="M60.7,163.8h143.2v1.6c0,3.4-2.8,6.1-6.1,6.1h-131c-3.4,0-6.1-2.8-6.1-6.1V163.8L60.7,163.8z"/>
	<path class="st38" d="M120.7,163.8h23.2v0.8c0,1.7-1.4,3.1-3.1,3.1h-17.1c-1.7,0-3.1-1.4-3.1-3.1V163.8L120.7,163.8z"/>
	<path class="st39" d="M132.3,123.2c-5.2,0-9.4,4.2-9.4,9.4c0,5.2,4.2,9.4,9.4,9.4c5.2,0,9.4-4.2,9.4-9.4
		C141.7,127.4,137.5,123.2,132.3,123.2L132.3,123.2z M136,130.3l-5.3,5.3l-2.6-2.6"/>
	<path class="st40" d="M180.4,76.8c11.5,0,20.8,9.3,20.8,20.8c0,11.5-9.3,20.8-20.8,20.8s-20.8-9.3-20.8-20.8
		C159.7,86.1,169,76.8,180.4,76.8L180.4,76.8z"/>
	<path class="st41" d="M167.3,74.6h20.3l9.2,10.7l0.4,24.5c-7.3,9.9-24.1,12-33.1,0.2V77.5C164.1,75.9,165.5,74.6,167.3,74.6
		L167.3,74.6z"/>
	<path class="st42" d="M196.8,84.9l-5.4-0.1c-2.1,0-3.8-1.7-3.8-3.8v-6.4L196.8,84.9L196.8,84.9L196.8,84.9z"/>
	<path class="st43" d="M183.5,80.1H171 M183.5,82.7h-9.6"/>
	<path class="st44" d="M190.4,95.4h-19.9c-0.9,0-1.6,0.7-1.6,1.6v11.6c0,0.9,0.7,1.6,1.6,1.6h19.9c0.9,0,1.6-0.7,1.6-1.6V97
		C192,96.1,191.3,95.4,190.4,95.4L190.4,95.4z"/>
	<path class="st43" d="M178.1,95.4v14.8 M173.5,95.4v14.8 M168.9,99H192 M182.8,95.4v14.8 M187.4,95.4v14.8 M168.9,102.6H192
		 M168.9,106.2H192 M192,88.6h-22.3 M192,91.2h-14.4"/>
	<path class="st45" d="M132.3,113.4c-10.6,0-19.2,8.6-19.2,19.2c0,10.6,8.6,19.2,19.2,19.2c10.6,0,19.2-8.6,19.2-19.2
		C151.5,122,142.9,113.4,132.3,113.4L132.3,113.4z"/>
	<path class="st46" d="M69.6,142.1H54.2 M67.3,149.7H43.5 M69.9,156.2h-7.7"/>
	<path class="st47" d="M49.9,141.2c0.5,0,0.9,0.4,0.9,0.9c0,0.5-0.4,0.9-0.9,0.9c-0.5,0-0.9-0.4-0.9-0.9
		C49,141.6,49.4,141.2,49.9,141.2L49.9,141.2z"/>
	<path class="st48" d="M132.3,118.3c-7.9,0-14.3,6.4-14.3,14.3c0,7.9,6.4,14.3,14.3,14.3c7.9,0,14.3-6.4,14.3-14.3
		C146.6,124.7,140.2,118.3,132.3,118.3L132.3,118.3z"/>
	<path class="st36" d="M71.8,83.8h23.1c6.6,0,11.9,5.4,11.9,11.9v25.4c0,5.1,3.9,8.5,8.1,10.9h-20H71.8c-6.6,0-11.9-5.4-11.9-11.9
		V95.7C59.9,89.2,65.3,83.8,71.8,83.8L71.8,83.8z"/>
	<path class="st49" d="M73.9,102h22v10.1c0,6.9-5.6,12.5-12.5,12.5h0c-6.9,0-12.5-5.6-12.5-12.5v-7C70.9,103.4,72.2,102,73.9,102
		L73.9,102z"/>
	<path class="st50" d="M98.8,91.2H80.4c-4.1,0-7.8,2.4-9.6,5.8h-1.3c-0.9,0-1.7,0.7-1.7,1.7v9.8h0.4c1.4,0,2.5-1.1,2.5-2.5
		c0-2.4,1.1-4,3.7-3.9h18.2c3.4,0,6.1-2.8,6.1-6.1V91.2L98.8,91.2z"/>
	<path class="st51" d="M95.9,106.8h0.7c1.4,0,2.6,1.2,2.6,2.6v0c0,1.4-1.2,2.6-2.6,2.6h-0.7V106.8L95.9,106.8z"/>
	<path class="st51" d="M70.9,106.8h-0.7c-1.4,0-2.6,1.2-2.6,2.6v0c0,1.4,1.2,2.6,2.6,2.6h0.7V106.8L70.9,106.8z"/>
	<path class="st43" d="M76.1,109.8c1.2-1.9,3.2-1.8,4.5,0 M86.2,109.8c1.2-1.9,3.2-1.8,4.5,0 M78.2,116.8c2.8,2.8,7.6,2.6,10.4,0"/>
	<path class="st52" d="M143,200.2c-4.7,0.9-9.4,1.3-14.2,1.3c-8,0-16-1.3-23.6-3.7 M119.5,201c-18.4-2.3-35.4-11.1-47.8-25
		 M187.3,174.4c-6.6,7.8-14.7,14.3-23.9,18.9 M100.4,54c9.1-3.6,18.7-5.5,28.5-5.5c9.8,0,19.5,1.9,28.6,5.6 M204.1,111.3
		c0.8,4.5,1.2,9.1,1.2,13.7c0,5.3-0.5,10.5-1.6,15.7 M68.9,77.4c5.7-7.2,12.7-13.3,20.6-18"/>
	<line class="st52" x1="38.1" y1="121.4" x2="38.1" y2="117.4"/>
	<line class="st52" x1="36.1" y1="119.4" x2="40.1" y2="119.4"/>
	<line class="st52" x1="47.5" y1="100.4" x2="47.5" y2="97.2"/>
	<line class="st52" x1="45.9" y1="98.8" x2="49.1" y2="98.8"/>
	<line class="st52" x1="50.9" y1="114.9" x2="50.9" y2="111.6"/>
	<line class="st52" x1="49.3" y1="113.2" x2="52.5" y2="113.2"/>
	<path class="st46" d="M46.3,133.5h10 M149.3,108.9l18.6,18.9 M166.5,119.7l0.8,0.8 M155,107.8l9.1,9.4"/>
	<line class="st53" x1="52" y1="126.6" x2="49.6" y2="124.2"/>
	<line class="st53" x1="49.6" y1="126.6" x2="52" y2="124.2"/>
	<path class="st35" d="M103.3,180.7c-2.1,0-3.8,1.7-3.8,3.8s1.7,3.8,3.8,3.8s3.8-1.7,3.8-3.8S105.4,180.7,103.3,180.7L103.3,180.7z"
		/>
	<path class="st35" d="M210.1,152.3c-2.1,0-3.8,1.7-3.8,3.8c0,2.1,1.7,3.8,3.8,3.8c2.1,0,3.8-1.7,3.8-3.8
		C213.9,154,212.2,152.3,210.1,152.3L210.1,152.3z"/>
	<path class="st54" d="M124.1,73c-1.1-3-3.9-5.1-7.2-5.1c-3.3,0-6.2,2.1-7.2,5.1 M109.7,78.1c1.1,3,3.9,5.1,7.2,5.1
		c3.3,0,6.2-2.1,7.2-5.1 M124.6,69.1V73 M120.7,73h3.8 M109.2,81.9v-3.8 M113.1,78.1h-3.8"/>
	<path class="st35" d="M157.8,61.6h9.8h4.1h0.1v0c0.3,0,0.6-0.3,0.6-0.7l0,0c0-0.4-0.3-0.7-0.6-0.7v0h-0.1h-4.1h-0.8
		c-1.2,0-2.2-1-2.2-2.2v0c0-1.2,1-2.2,2.2-2.2h18.3c1.2,0,2.2,1,2.2,2.2v0c0,1.2-1,2.2-2.2,2.2h-2.2h-5.7h0c-0.4,0-0.7,0.3-0.7,0.7
		l0,0c0,0.4,0.3,0.7,0.7,0.7h0h3.4c1.6,0,2.8,1.3,2.8,2.8l0,0c0,1.6-1.3,2.8-2.8,2.8h-22.8c-1.6,0-2.8-1.3-2.8-2.8l0,0
		C155,62.8,156.3,61.6,157.8,61.6L157.8,61.6z"/>
	<path class="st35" d="M148.7,190.5h-29c-3.3,0-6.1-2.7-6.1-6.1v0c0-3.3,2.7-6.1,6.1-6.1h29c3.3,0,6.1,2.7,6.1,6.1v0
		C154.8,187.8,152,190.5,148.7,190.5L148.7,190.5z"/>
	<path class="st46" d="M155.2,76.9h5.2 M158.5,68.9l3.7,3.7 M166.5,65.6v5.2 M45.2,142.1h-4.8"/>
</g>
</svg>
