<?xml version="1.0" encoding="utf-8"?>
<!-- Generator: Adobe Illustrator 19.2.0, SVG Export Plug-In . SVG Version: 6.00 Build 0)  -->
<svg version="1.1" id="Layer_1" xmlns="http://www.w3.org/2000/svg" xmlns:xlink="http://www.w3.org/1999/xlink" x="0px" y="0px"
	 viewBox="0 0 250 250" style="enable-background:new 0 0 250 250;" xml:space="preserve">
<style type="text/css">
	.st0{fill-rule:evenodd;clip-rule:evenodd;fill:#BFDEF5;}
	
		.st1{fill-rule:evenodd;clip-rule:evenodd;fill:none;stroke:#255F93;stroke-width:2.0571;stroke-linecap:round;stroke-linejoin:round;stroke-miterlimit:22.9256;}
	
		.st2{fill-rule:evenodd;clip-rule:evenodd;fill:none;stroke:#286092;stroke-width:1.8964;stroke-linecap:round;stroke-linejoin:round;stroke-miterlimit:22.9256;}
	.st3{fill-rule:evenodd;clip-rule:evenodd;fill:#FFFFFF;stroke:#255F93;stroke-width:1.8967;stroke-miterlimit:22.9256;}
	.st4{fill-rule:evenodd;clip-rule:evenodd;fill:#286092;stroke:#255F93;stroke-width:1.8967;stroke-miterlimit:22.9256;}
	.st5{fill-rule:evenodd;clip-rule:evenodd;fill:#D9DBDA;stroke:#255F93;stroke-width:2.3309;stroke-miterlimit:22.9256;}
	.st6{fill-rule:evenodd;clip-rule:evenodd;fill:#F7F8F9;stroke:#255F93;stroke-width:1.8961;stroke-miterlimit:22.9256;}
	.st7{fill-rule:evenodd;clip-rule:evenodd;fill:#255F93;}
	.st8{fill-rule:evenodd;clip-rule:evenodd;fill:#FFFFFF;stroke:#255F93;stroke-width:1.8964;stroke-miterlimit:22.9256;}
	.st9{fill-rule:evenodd;clip-rule:evenodd;fill:#87B8E3;stroke:#255F93;stroke-width:2.0183;stroke-miterlimit:22.9256;}
	
		.st10{fill-rule:evenodd;clip-rule:evenodd;fill:#FFFFFF;stroke:#255F93;stroke-width:2.0183;stroke-linecap:round;stroke-linejoin:round;stroke-miterlimit:22.9256;}
	.st11{fill-rule:evenodd;clip-rule:evenodd;fill:#FFFFFF;stroke:#255F93;stroke-width:2.0183;stroke-miterlimit:22.9256;}
	
		.st12{fill-rule:evenodd;clip-rule:evenodd;fill:none;stroke:#255F93;stroke-width:2.0183;stroke-linecap:round;stroke-miterlimit:22.9256;stroke-dasharray:2.0183,6.0548;}
	.st13{fill-rule:evenodd;clip-rule:evenodd;fill:#255F93;stroke:#255F93;stroke-width:2.0183;stroke-miterlimit:22.9256;}
	
		.st14{fill-rule:evenodd;clip-rule:evenodd;fill:none;stroke:#255F93;stroke-width:1.8964;stroke-linecap:round;stroke-linejoin:round;stroke-miterlimit:22.9256;}
	.st15{fill-rule:evenodd;clip-rule:evenodd;fill:#D1D3D4;stroke:#255F93;stroke-width:2.0183;stroke-miterlimit:22.9256;}
	.st16{fill-rule:evenodd;clip-rule:evenodd;fill:none;stroke:#255F93;stroke-width:2.0183;stroke-miterlimit:22.9256;}
	
		.st17{fill-rule:evenodd;clip-rule:evenodd;fill:none;stroke:#255F93;stroke-width:1.984;stroke-linecap:round;stroke-linejoin:round;stroke-miterlimit:22.9256;}
	
		.st18{fill-rule:evenodd;clip-rule:evenodd;fill:none;stroke:#286092;stroke-width:1.984;stroke-linecap:round;stroke-linejoin:round;stroke-miterlimit:22.9256;}
	
		.st19{fill-rule:evenodd;clip-rule:evenodd;fill:none;stroke:#255F93;stroke-width:1.9843;stroke-linecap:round;stroke-linejoin:round;stroke-miterlimit:22.9256;}
	
		.st20{fill-rule:evenodd;clip-rule:evenodd;fill:#E6E7E8;stroke:#E6E7E8;stroke-width:2.0183;stroke-linecap:round;stroke-linejoin:round;stroke-miterlimit:22.9256;}
	
		.st21{fill-rule:evenodd;clip-rule:evenodd;fill:#87B8E3;stroke:#255F93;stroke-width:2.0183;stroke-linecap:round;stroke-linejoin:round;stroke-miterlimit:22.9256;}
	
		.st22{fill-rule:evenodd;clip-rule:evenodd;fill:none;stroke:#255F93;stroke-width:2.0183;stroke-linecap:round;stroke-linejoin:round;stroke-miterlimit:22.9256;}
	
		.st23{fill-rule:evenodd;clip-rule:evenodd;fill:#FFFFFF;stroke:#255F93;stroke-width:1.984;stroke-linecap:round;stroke-linejoin:round;stroke-miterlimit:22.9256;}
	.st24{fill-rule:evenodd;clip-rule:evenodd;fill:#80AFD6;}
	
		.st25{fill-rule:evenodd;clip-rule:evenodd;fill:none;stroke:#3F4243;stroke-width:1.4173;stroke-linecap:round;stroke-linejoin:round;stroke-miterlimit:22.9256;}
	
		.st26{fill-rule:evenodd;clip-rule:evenodd;fill:none;stroke:#F05B72;stroke-width:1.4173;stroke-linecap:round;stroke-linejoin:round;stroke-miterlimit:22.9256;}
	
		.st27{fill-rule:evenodd;clip-rule:evenodd;fill:#FFFFFF;stroke:#255F93;stroke-width:2.1815;stroke-linecap:round;stroke-linejoin:round;stroke-miterlimit:22.9256;}
	
		.st28{fill-rule:evenodd;clip-rule:evenodd;fill:#D1D3D4;stroke:#255F93;stroke-width:2.1815;stroke-linecap:round;stroke-linejoin:round;stroke-miterlimit:22.9256;}
	.st29{fill-rule:evenodd;clip-rule:evenodd;fill:#F05B72;}
	.st30{fill-rule:evenodd;clip-rule:evenodd;fill:#5D9ED5;}
	.st31{fill-rule:evenodd;clip-rule:evenodd;fill:#FFFFFF;stroke:#255F93;stroke-width:1.984;stroke-miterlimit:22.9256;}
	.st32{fill-rule:evenodd;clip-rule:evenodd;fill:#FFFFFF;}
	
		.st33{fill-rule:evenodd;clip-rule:evenodd;fill:none;stroke:#255F93;stroke-width:1.984;stroke-linecap:round;stroke-linejoin:round;stroke-miterlimit:10;}
	
		.st34{fill-rule:evenodd;clip-rule:evenodd;fill:#EF413D;stroke:#255F93;stroke-width:1.984;stroke-linejoin:round;stroke-miterlimit:22.9256;}
	.st35{fill-rule:evenodd;clip-rule:evenodd;fill:#CEE6F7;}
	
		.st36{fill-rule:evenodd;clip-rule:evenodd;fill:#FFFFFF;stroke:#336296;stroke-width:2.1814;stroke-linecap:round;stroke-linejoin:round;stroke-miterlimit:22.9256;}
	
		.st37{fill-rule:evenodd;clip-rule:evenodd;fill:#FFFFFF;stroke:#336296;stroke-width:2.1815;stroke-linecap:round;stroke-linejoin:round;stroke-miterlimit:22.9256;}
	
		.st38{fill-rule:evenodd;clip-rule:evenodd;fill:#FFFFFF;stroke:#336296;stroke-width:2.1823;stroke-linecap:round;stroke-linejoin:round;stroke-miterlimit:22.9256;}
	.st39{fill:none;stroke:#336296;stroke-width:1.984;stroke-linecap:round;stroke-linejoin:round;stroke-miterlimit:22.9256;}
	
		.st40{fill-rule:evenodd;clip-rule:evenodd;fill:#FFFFFF;stroke:#336296;stroke-width:1.9033;stroke-linecap:round;stroke-linejoin:round;stroke-miterlimit:22.9256;}
	
		.st41{fill-rule:evenodd;clip-rule:evenodd;fill:#FFFFFF;stroke:#336296;stroke-width:2.0183;stroke-linecap:round;stroke-linejoin:round;stroke-miterlimit:22.9256;}
	
		.st42{fill-rule:evenodd;clip-rule:evenodd;fill:#97C0E6;stroke:#336296;stroke-width:2.0183;stroke-linecap:round;stroke-linejoin:round;stroke-miterlimit:22.9256;}
	.st43{fill:none;stroke:#336296;stroke-width:1.4173;stroke-linecap:round;stroke-linejoin:round;stroke-miterlimit:22.9256;}
	.st44{fill:none;stroke:#336296;stroke-width:1.4173;stroke-miterlimit:22.9256;}
	
		.st45{fill:none;stroke:#E7E7E7;stroke-width:0.8504;stroke-linecap:round;stroke-linejoin:round;stroke-miterlimit:22.9256;stroke-dasharray:0.8504,2.5512;}
	.st46{fill:none;stroke:#336396;stroke-width:1.8964;stroke-linecap:round;stroke-linejoin:round;stroke-miterlimit:22.9256;}
	.st47{fill-rule:evenodd;clip-rule:evenodd;fill:#336296;}
	
		.st48{fill:none;stroke:#97C0E6;stroke-width:0.8504;stroke-linecap:round;stroke-linejoin:round;stroke-miterlimit:22.9256;stroke-dasharray:0.8504,2.5512;}
	.st49{fill:none;stroke:#336296;stroke-width:2.0183;stroke-miterlimit:22.9256;}
	.st50{fill-rule:evenodd;clip-rule:evenodd;fill:#F79332;stroke:#336296;stroke-width:2.0183;stroke-miterlimit:22.9256;}
	.st51{fill-rule:evenodd;clip-rule:evenodd;fill:#FFFFFF;stroke:#336296;stroke-width:2.0183;stroke-miterlimit:22.9256;}
	.st52{fill:none;stroke:#336296;stroke-width:2.0571;stroke-linecap:round;stroke-linejoin:round;stroke-miterlimit:22.9256;}
	.st53{fill:none;stroke:#336296;stroke-width:2.0183;stroke-linecap:round;stroke-linejoin:round;stroke-miterlimit:22.9256;}
	.st54{fill:none;stroke:#336296;stroke-width:2.0183;stroke-linecap:round;stroke-linejoin:round;stroke-miterlimit:10;}
</style>
<g>
	<path class="st0" d="M102.1,73.7h31.8h41.5c13.2,0,24,10.8,24,24v0c0,13.2-10.8,24-24,24h0v8.8h23c4.8,0,8.8,4,8.8,8.8v0
		c0,4.8-4,9-8.8,9h-18.2l-0.7,0c-2.9,0-5.2,2.4-5.2,5.2v0c0,2.9,2.4,5.2,5.2,5.2h0.7v0h1.5c4.8,0,8.8,4,8.8,8.8l0,0
		c0,4.8-4,8.8-8.8,8.8h-39.1H73.2h-3.9c-13.2,0-24-10.8-24-24l0,0c0-13.2,10.8-24,24-24h2.8h1.2c1.9,0,3.4-1.5,3.4-3.4l0,0
		c0-1.9-1.5-3.4-3.4-3.4h-1.2h-5.5c-7.3,0-13.2-6-13.2-13.2v0c0-7.3,6-13.2,13.2-13.2h20V84.4h-5.9c-2.9,0-5.4-2.4-5.4-5.4l0,0
		c0-2.9,2.4-5.4,5.4-5.4H102.1z"/>
	<g>
		<path class="st1" d="M179.8,70.3c14.7,14.4,23,34.1,23,54.7c0,2.8-0.2,5.7-0.5,8.5"/>
		<path class="st1" d="M197.6,152.9c-3.4,8.7-8.3,16.6-14.6,23.5"/>
		<path class="st1" d="M87.1,190.7c-23.1-13.8-37.3-38.8-37.3-65.7c0-1.7,0.1-3.4,0.2-5.1"/>
		<path class="st1" d="M140.4,200.2c-4.7,0.9-9.4,1.3-14.2,1.3c-8,0-16-1.3-23.6-3.7"/>
		<path class="st1" d="M97.8,54c9.1-3.6,18.7-5.5,28.5-5.5c9.8,0,19.5,1.9,28.6,5.6"/>
		<path class="st1" d="M66.4,77.4c5.7-7.2,12.7-13.3,20.6-18"/>
	</g>
	<path class="st27" d="M85.7,156.3h81.2c3.1,0,5.7-2.6,5.7-5.7V99.4c0-3.1-2.6-5.7-5.7-5.7H85.7c-3.1,0-5.7,2.6-5.7,5.7v51.2
		C80,153.7,82.6,156.3,85.7,156.3z"/>
	<path class="st28" d="M172.6,105.3v-5.9c0-3.1-2.6-5.7-5.7-5.7H85.7c-3.1,0-5.7,2.6-5.7,5.7v5.9H172.6z"/>
	<circle class="st7" cx="87.3" cy="99.5" r="2.1"/>
	<circle class="st29" cx="93.9" cy="99.5" r="2.1"/>
	<circle class="st30" cx="100.5" cy="99.5" r="2.1"/>
	<path class="st0" d="M60,87.6h-9.2c-3.3,0-6-2.7-6-6v0c0-3.3,2.7-6,6-6H60c3.3,0,6,2.7,6,6v0C66,84.9,63.3,87.6,60,87.6z"/>
	<line class="st2" x1="47.5" y1="125.1" x2="43.2" y2="125.1"/>
	<line class="st2" x1="97.3" y1="125.1" x2="64" y2="125.1"/>
	<line class="st2" x1="71.5" y1="146.1" x2="67.2" y2="146.1"/>
	<line class="st2" x1="78.8" y1="132.7" x2="54.2" y2="132.7"/>
	<g>
		<line class="st1" x1="57.7" y1="120.9" x2="57.7" y2="117.7"/>
		<line class="st1" x1="56.1" y1="119.3" x2="59.3" y2="119.3"/>
	</g>
	<line class="st2" x1="87.4" y1="118.4" x2="77" y2="118.4"/>
	<line class="st2" x1="65.4" y1="139.2" x2="50.1" y2="139.2"/>
	<circle class="st7" cx="57.5" cy="125.1" r="0.9"/>
	<line class="st2" x1="75.5" y1="139.2" x2="83.3" y2="139.2"/>
	<circle class="st7" cx="46.6" cy="132.7" r="0.9"/>
	<line class="st2" x1="105.5" y1="132.7" x2="89.7" y2="132.7"/>
	<path class="st8" d="M111.9,117.8h32c1.8,0,3.3,1.5,3.3,3.3v18.3c0,1.8-1.5,3.3-3.3,3.3h-32c-1.8,0-3.3-1.5-3.3-3.3v-18.3
		C108.6,119.3,110.1,117.8,111.9,117.8z"/>
	<path class="st7" d="M123.5,127.2h15.3l0.2-1.1c0,0,0,0,0,0c0-0.1,0-0.1-0.1-0.2c-0.1-0.1-0.2-0.1-0.3-0.2c0,0,0,0-0.1,0h-14.2
		l0.7-1.5h13.5c0.1,0,0.2,0,0.3,0c0.4,0.1,0.9,0.3,1.2,0.6c0.3,0.3,0.6,0.8,0.6,1.3c0,0.1,0,0.2,0,0.2l-1.5,10.2
		c-0.1,0.5-0.3,1-0.6,1.3c-0.3,0.3-0.8,0.6-1.4,0.6h-0.1H124h-7.5h-1.2l0.5-1.1l6.4-13.6h-5.9v-1.5h7.1h1.2l-0.5,1.1l-6.4,13.6h6.3
		h12.8h0.1c0.1,0,0.2,0,0.3-0.1c0.1-0.1,0.2-0.3,0.2-0.5l0.7-5h-16.6L123.5,127.2L123.5,127.2z M124.8,134.5c-0.2,0-0.4,0.2-0.4,0.4
		l0,0c0,0.2,0.2,0.4,0.4,0.4h9.5c0.2,0,0.4-0.2,0.4-0.4l0,0c0-0.2-0.2-0.4-0.4-0.4H124.8L124.8,134.5z M132.7,132.2
		c-0.2,0-0.4,0.2-0.4,0.4l0,0c0,0.2,0.2,0.4,0.4,0.4h1.8c0.2,0,0.4-0.2,0.4-0.4l0,0c0-0.2-0.2-0.4-0.4-0.4H132.7L132.7,132.2z
		 M126.2,132.2c-0.2,0-0.4,0.2-0.4,0.4l0,0c0,0.2,0.2,0.4,0.4,0.4h4.8c0.2,0,0.4-0.2,0.4-0.4l0,0c0-0.2-0.2-0.4-0.4-0.4H126.2z"/>
	<path class="st31" d="M154.7,152.7l-11.9-14.1c-0.2-0.2-0.5-0.3-0.8-0.2c-0.3,0.1-0.5,0.4-0.5,0.7v18.6c0,0.3,0.2,0.6,0.5,0.7
		l0.2,0c0.2,0,0.4-0.1,0.6-0.3l3.2-4.3l2.2,6.3c0.3,0.8,1.2,1.2,2,1c0.8-0.3,1.2-1.2,1-2l-2.2-6.2l5,1c0.3,0.1,0.6-0.1,0.8-0.3
		C154.9,153.3,154.9,153,154.7,152.7z"/>
	<line class="st18" x1="145.1" y1="114.9" x2="145.1" y2="109.9"/>
	<line class="st18" x1="149.2" y1="116.6" x2="152.7" y2="113.1"/>
	<line class="st18" x1="150.9" y1="120.7" x2="155.9" y2="120.7"/>
	<path class="st32" d="M168.5,111.8c7.7,0,13.9-6.2,13.9-13.9S176.2,84,168.5,84c-7.7,0-13.9,6.2-13.9,13.9S160.9,111.8,168.5,111.8
		z"/>
	<path class="st17" d="M181.7,93.3c0.5,1.5,0.8,3,0.8,4.6c0,7.7-6.2,13.9-13.9,13.9s-13.9-6.2-13.9-13.9c0-7.7,6.2-13.9,13.9-13.9
		c1.4,0,2.7,0.2,4,0.6"/>
	<g>
		<line class="st1" x1="71.2" y1="156.6" x2="71.2" y2="153.3"/>
		<line class="st1" x1="69.6" y1="155" x2="72.8" y2="155"/>
	</g>
	<g>
		<line class="st1" x1="68" y1="114" x2="68" y2="110.8"/>
		<line class="st1" x1="66.4" y1="112.4" x2="69.6" y2="112.4"/>
	</g>
	<line class="st2" x1="68.4" y1="104.9" x2="48.5" y2="104.9"/>
	<line class="st2" x1="55" y1="98.5" x2="44.6" y2="98.5"/>
	<circle class="st7" cx="63.5" cy="98.5" r="0.9"/>
	<line class="st2" x1="55.8" y1="112.4" x2="42.8" y2="112.4"/>
	<polyline class="st33" points="182.5,86.2 177.7,86.2 174.4,99.6 163.1,99.6 161.3,90.6 176.6,90.6 	"/>
	<path class="st34" d="M165.4,96.7v-3.2V96.7z"/>
	<path class="st34" d="M169,96.7v-3.2V96.7z"/>
	<path class="st34" d="M172.2,96.7v-3.2V96.7z"/>
	<circle class="st7" cx="165.2" cy="104" r="2"/>
	<circle class="st7" cx="172.9" cy="104" r="2"/>
	<g>
		<line class="st1" x1="99.6" y1="181.7" x2="99.6" y2="178.5"/>
		<line class="st1" x1="98" y1="180.1" x2="101.2" y2="180.1"/>
	</g>
	<g>
		<line class="st1" x1="117.4" y1="164.3" x2="117.4" y2="161.1"/>
		<line class="st1" x1="115.8" y1="162.7" x2="119" y2="162.7"/>
	</g>
	<g>
		<line class="st1" x1="153.9" y1="182.3" x2="153.9" y2="179.1"/>
		<line class="st1" x1="152.3" y1="180.7" x2="155.5" y2="180.7"/>
	</g>
	<line class="st2" x1="164.6" y1="172.6" x2="163.1" y2="170"/>
	<line class="st2" x1="161.6" y1="167.5" x2="156.7" y2="158.9"/>
	<line class="st2" x1="157.7" y1="169.3" x2="156.2" y2="166.8"/>
	<line class="st2" x1="149.1" y1="168.1" x2="146.2" y2="162.8"/>
</g>
</svg>
