<?xml version="1.0" encoding="utf-8"?>
<!-- Generator: Adobe Illustrator 19.2.0, SVG Export Plug-In . SVG Version: 6.00 Build 0)  -->
<svg version="1.1" id="Layer_1" xmlns="http://www.w3.org/2000/svg" xmlns:xlink="http://www.w3.org/1999/xlink" x="0px" y="0px"
	 viewBox="0 0 250 250" style="enable-background:new 0 0 250 250;" xml:space="preserve">
<style type="text/css">
	.st0{fill-rule:evenodd;clip-rule:evenodd;fill:#BFDEF5;}
	
		.st1{fill-rule:evenodd;clip-rule:evenodd;fill:none;stroke:#255F93;stroke-width:2.0571;stroke-linecap:round;stroke-linejoin:round;stroke-miterlimit:22.9256;}
	
		.st2{fill-rule:evenodd;clip-rule:evenodd;fill:none;stroke:#286092;stroke-width:1.8964;stroke-linecap:round;stroke-linejoin:round;stroke-miterlimit:22.9256;}
	.st3{fill-rule:evenodd;clip-rule:evenodd;fill:#FFFFFF;stroke:#255F93;stroke-width:1.8967;stroke-miterlimit:22.9256;}
	.st4{fill-rule:evenodd;clip-rule:evenodd;fill:#286092;stroke:#255F93;stroke-width:1.8967;stroke-miterlimit:22.9256;}
	.st5{fill-rule:evenodd;clip-rule:evenodd;fill:#D9DBDA;stroke:#255F93;stroke-width:2.3309;stroke-miterlimit:22.9256;}
	.st6{fill-rule:evenodd;clip-rule:evenodd;fill:#F7F8F9;stroke:#255F93;stroke-width:1.8961;stroke-miterlimit:22.9256;}
	.st7{fill-rule:evenodd;clip-rule:evenodd;fill:#255F93;}
	.st8{fill-rule:evenodd;clip-rule:evenodd;fill:#FFFFFF;stroke:#255F93;stroke-width:1.8964;stroke-miterlimit:22.9256;}
	.st9{fill-rule:evenodd;clip-rule:evenodd;fill:#87B8E3;stroke:#255F93;stroke-width:2.0183;stroke-miterlimit:22.9256;}
	
		.st10{fill-rule:evenodd;clip-rule:evenodd;fill:#FFFFFF;stroke:#255F93;stroke-width:2.0183;stroke-linecap:round;stroke-linejoin:round;stroke-miterlimit:22.9256;}
	.st11{fill-rule:evenodd;clip-rule:evenodd;fill:#FFFFFF;stroke:#255F93;stroke-width:2.0183;stroke-miterlimit:22.9256;}
	
		.st12{fill-rule:evenodd;clip-rule:evenodd;fill:none;stroke:#255F93;stroke-width:2.0183;stroke-linecap:round;stroke-miterlimit:22.9256;stroke-dasharray:2.0183,6.0548;}
	.st13{fill-rule:evenodd;clip-rule:evenodd;fill:#255F93;stroke:#255F93;stroke-width:2.0183;stroke-miterlimit:22.9256;}
	
		.st14{fill-rule:evenodd;clip-rule:evenodd;fill:none;stroke:#255F93;stroke-width:1.8964;stroke-linecap:round;stroke-linejoin:round;stroke-miterlimit:22.9256;}
	.st15{fill-rule:evenodd;clip-rule:evenodd;fill:#D1D3D4;stroke:#255F93;stroke-width:2.0183;stroke-miterlimit:22.9256;}
	.st16{fill-rule:evenodd;clip-rule:evenodd;fill:none;stroke:#255F93;stroke-width:2.0183;stroke-miterlimit:22.9256;}
	
		.st17{fill-rule:evenodd;clip-rule:evenodd;fill:none;stroke:#255F93;stroke-width:1.984;stroke-linecap:round;stroke-linejoin:round;stroke-miterlimit:22.9256;}
	
		.st18{fill-rule:evenodd;clip-rule:evenodd;fill:none;stroke:#286092;stroke-width:1.984;stroke-linecap:round;stroke-linejoin:round;stroke-miterlimit:22.9256;}
	
		.st19{fill-rule:evenodd;clip-rule:evenodd;fill:none;stroke:#255F93;stroke-width:1.9843;stroke-linecap:round;stroke-linejoin:round;stroke-miterlimit:22.9256;}
	
		.st20{fill-rule:evenodd;clip-rule:evenodd;fill:#E6E7E8;stroke:#E6E7E8;stroke-width:2.0183;stroke-linecap:round;stroke-linejoin:round;stroke-miterlimit:22.9256;}
	
		.st21{fill-rule:evenodd;clip-rule:evenodd;fill:#87B8E3;stroke:#255F93;stroke-width:2.0183;stroke-linecap:round;stroke-linejoin:round;stroke-miterlimit:22.9256;}
	
		.st22{fill-rule:evenodd;clip-rule:evenodd;fill:none;stroke:#255F93;stroke-width:2.0183;stroke-linecap:round;stroke-linejoin:round;stroke-miterlimit:22.9256;}
	
		.st23{fill-rule:evenodd;clip-rule:evenodd;fill:#FFFFFF;stroke:#255F93;stroke-width:1.984;stroke-linecap:round;stroke-linejoin:round;stroke-miterlimit:22.9256;}
	.st24{fill-rule:evenodd;clip-rule:evenodd;fill:#80AFD6;}
	
		.st25{fill-rule:evenodd;clip-rule:evenodd;fill:none;stroke:#3F4243;stroke-width:1.4173;stroke-linecap:round;stroke-linejoin:round;stroke-miterlimit:22.9256;}
	
		.st26{fill-rule:evenodd;clip-rule:evenodd;fill:none;stroke:#F05B72;stroke-width:1.4173;stroke-linecap:round;stroke-linejoin:round;stroke-miterlimit:22.9256;}
	
		.st27{fill-rule:evenodd;clip-rule:evenodd;fill:#FFFFFF;stroke:#255F93;stroke-width:2.1815;stroke-linecap:round;stroke-linejoin:round;stroke-miterlimit:22.9256;}
	
		.st28{fill-rule:evenodd;clip-rule:evenodd;fill:#D1D3D4;stroke:#255F93;stroke-width:2.1815;stroke-linecap:round;stroke-linejoin:round;stroke-miterlimit:22.9256;}
	.st29{fill-rule:evenodd;clip-rule:evenodd;fill:#F05B72;}
	.st30{fill-rule:evenodd;clip-rule:evenodd;fill:#5D9ED5;}
	.st31{fill-rule:evenodd;clip-rule:evenodd;fill:#FFFFFF;stroke:#255F93;stroke-width:1.984;stroke-miterlimit:22.9256;}
	.st32{fill-rule:evenodd;clip-rule:evenodd;fill:#FFFFFF;}
	
		.st33{fill-rule:evenodd;clip-rule:evenodd;fill:none;stroke:#255F93;stroke-width:1.984;stroke-linecap:round;stroke-linejoin:round;stroke-miterlimit:10;}
	
		.st34{fill-rule:evenodd;clip-rule:evenodd;fill:#EF413D;stroke:#255F93;stroke-width:1.984;stroke-linejoin:round;stroke-miterlimit:22.9256;}
	.st35{fill-rule:evenodd;clip-rule:evenodd;fill:#CEE6F7;}
	
		.st36{fill-rule:evenodd;clip-rule:evenodd;fill:#FFFFFF;stroke:#336296;stroke-width:2.1814;stroke-linecap:round;stroke-linejoin:round;stroke-miterlimit:22.9256;}
	
		.st37{fill-rule:evenodd;clip-rule:evenodd;fill:#FFFFFF;stroke:#336296;stroke-width:2.1815;stroke-linecap:round;stroke-linejoin:round;stroke-miterlimit:22.9256;}
	
		.st38{fill-rule:evenodd;clip-rule:evenodd;fill:#FFFFFF;stroke:#336296;stroke-width:2.1823;stroke-linecap:round;stroke-linejoin:round;stroke-miterlimit:22.9256;}
	.st39{fill:none;stroke:#336296;stroke-width:1.984;stroke-linecap:round;stroke-linejoin:round;stroke-miterlimit:22.9256;}
	
		.st40{fill-rule:evenodd;clip-rule:evenodd;fill:#FFFFFF;stroke:#336296;stroke-width:1.9033;stroke-linecap:round;stroke-linejoin:round;stroke-miterlimit:22.9256;}
	
		.st41{fill-rule:evenodd;clip-rule:evenodd;fill:#FFFFFF;stroke:#336296;stroke-width:2.0183;stroke-linecap:round;stroke-linejoin:round;stroke-miterlimit:22.9256;}
	
		.st42{fill-rule:evenodd;clip-rule:evenodd;fill:#97C0E6;stroke:#336296;stroke-width:2.0183;stroke-linecap:round;stroke-linejoin:round;stroke-miterlimit:22.9256;}
	.st43{fill:none;stroke:#336296;stroke-width:1.4173;stroke-linecap:round;stroke-linejoin:round;stroke-miterlimit:22.9256;}
	.st44{fill:none;stroke:#336296;stroke-width:1.4173;stroke-miterlimit:22.9256;}
	
		.st45{fill:none;stroke:#E7E7E7;stroke-width:0.8504;stroke-linecap:round;stroke-linejoin:round;stroke-miterlimit:22.9256;stroke-dasharray:0.8504,2.5512;}
	.st46{fill:none;stroke:#336396;stroke-width:1.8964;stroke-linecap:round;stroke-linejoin:round;stroke-miterlimit:22.9256;}
	.st47{fill-rule:evenodd;clip-rule:evenodd;fill:#336296;}
	
		.st48{fill:none;stroke:#97C0E6;stroke-width:0.8504;stroke-linecap:round;stroke-linejoin:round;stroke-miterlimit:22.9256;stroke-dasharray:0.8504,2.5512;}
	.st49{fill:none;stroke:#336296;stroke-width:2.0183;stroke-miterlimit:22.9256;}
	.st50{fill-rule:evenodd;clip-rule:evenodd;fill:#F79332;stroke:#336296;stroke-width:2.0183;stroke-miterlimit:22.9256;}
	.st51{fill-rule:evenodd;clip-rule:evenodd;fill:#FFFFFF;stroke:#336296;stroke-width:2.0183;stroke-miterlimit:22.9256;}
	.st52{fill:none;stroke:#336296;stroke-width:2.0571;stroke-linecap:round;stroke-linejoin:round;stroke-miterlimit:22.9256;}
	.st53{fill:none;stroke:#336296;stroke-width:2.0183;stroke-linecap:round;stroke-linejoin:round;stroke-miterlimit:22.9256;}
	.st54{fill:none;stroke:#336296;stroke-width:2.0183;stroke-linecap:round;stroke-linejoin:round;stroke-miterlimit:10;}
</style>
<path class="st0" d="M212.1,78.1h-17.2h-5.2c-2.4,0-4.3-1.9-4.3-4.3v0c0-2.4,1.9-4.3,4.3-4.3h1c3.6,0,6.6-3,6.6-6.6
	c0-3.6-3-6.6-6.6-6.6h-55.8c-0.1,0-0.3,0-0.4,0c-0.4,0-0.7,0-1.1,0c-37.9,0-68.6,30.7-68.6,68.6c0,2.9,0.2,5.8,0.5,8.7H63
	c-3.6,0-6.6,3-6.6,6.6v0c0,3.6,3,6.6,6.6,6.6h5.2H69c2.4,0,4.3,1.9,4.3,4.3v0c0,2.4-1.9,4.3-4.3,4.3h-1.6H50.6c-3.6,0-6.6,3-6.6,6.6
	v0c0,3.6,3,6.6,6.6,6.6h29.7h17c0,0-0.1,0-0.1,0c-0.1,0-0.2,0.1-0.3,0.1c-2.4,0.9-4.1,3.1-4.1,5.8c0,2.9,2,5.4,4.7,6h-4.7H80.5
	c-3.6,0-6.6,3-6.6,6.6v0c0,3.6,3,6.6,6.6,6.6h52.8h3c0.5,0,0.9,0,1.3-0.1c35.9-2.2,64.3-32,64.3-68.5c0-4.1-0.4-8.1-1-12h1.6
	c3.6,0,6.6-3,6.6-6.6v0c0-3.6-3-6.6-6.6-6.6h-0.7c-2.4,0-4.3-1.9-4.3-4.3v0c0-2.4,1.9-4.3,4.3-4.3h10.4c3.6,0,6.6-3,6.6-6.6v0
	C218.7,81.1,215.7,78.1,212.1,78.1z"/>
<path class="st10" d="M97.8,97.2v3.4c1.7,0.4,3,2,3,3.8c0,1.8-1.3,3.4-3,3.8v2.6c1.7,0.4,3,2,3,3.8s-1.3,3.4-3,3.8v2.6
	c1.7,0.4,3,2,3,3.8s-1.3,3.4-3,3.8v2.6c1.7,0.4,3,2,3,3.8c0,1.8-1.3,3.4-3,3.8v2.6c1.7,0.4,3,2,3,3.8c0,1.8-1.3,3.4-3,3.8v3.4h46.9
	h18.2h0.1v0c10.6,0,16.2-3.7,16.2-14.6V97.2h-34.4v0H97.8z"/>
<line class="st2" x1="137.6" y1="110.2" x2="112" y2="110.2"/>
<line class="st2" x1="137.4" y1="118.7" x2="112" y2="118.7"/>
<path class="st16" d="M143.6,110.2h6.7c0.7,0,1.3,0.6,1.3,1.3v6.7c0,0.7-0.6,1.3-1.3,1.3h-6.7c-0.7,0-1.3-0.6-1.3-1.3v-6.7
	C142.4,110.8,142.9,110.2,143.6,110.2z"/>
<line class="st2" x1="151.3" y1="127.2" x2="112" y2="127.2"/>
<path class="st16" d="M144.9,134.1h4c1.4,0,2.6,1.2,2.6,2.6v0c0,1.4-1.2,2.6-2.6,2.6h-4c-1.4,0-2.6-1.2-2.6-2.6v0
	C142.3,135.3,143.5,134.1,144.9,134.1z"/>
<line class="st17" x1="35.5" y1="124.5" x2="35.5" y2="120.8"/>
<line class="st17" x1="33.7" y1="122.6" x2="37.4" y2="122.6"/>
<line class="st18" x1="38" y1="131.6" x2="33" y2="131.6"/>
<line class="st18" x1="91.1" y1="131.6" x2="52.8" y2="131.6"/>
<line class="st18" x1="53.3" y1="155.7" x2="48.3" y2="155.7"/>
<line class="st18" x1="69.8" y1="140.3" x2="41.6" y2="140.3"/>
<line class="st17" x1="34" y1="101.2" x2="34" y2="97.5"/>
<line class="st17" x1="32.2" y1="99.4" x2="35.9" y2="99.4"/>
<line class="st18" x1="79.7" y1="123.9" x2="67.7" y2="123.9"/>
<line class="st18" x1="54.5" y1="147.8" x2="36.9" y2="147.8"/>
<circle class="st7" cx="45.4" cy="131.6" r="1.1"/>
<line class="st18" x1="66" y1="147.8" x2="75" y2="147.8"/>
<line class="st18" x1="41.9" y1="99.8" x2="53.5" y2="99.8"/>
<circle class="st7" cx="36" cy="140.3" r="1.1"/>
<line class="st18" x1="92.1" y1="140.3" x2="78.4" y2="140.3"/>
<line class="st18" x1="77.6" y1="106.9" x2="82.3" y2="106.9"/>
<line class="st18" x1="31.3" y1="106.9" x2="74.1" y2="106.9"/>
<line class="st18" x1="84.9" y1="114.6" x2="89.6" y2="114.6"/>
<line class="st18" x1="38.6" y1="114.6" x2="81.4" y2="114.6"/>
<line class="st19" x1="55.9" y1="94.2" x2="55.9" y2="90.7"/>
<line class="st17" x1="54.1" y1="92.4" x2="57.6" y2="92.4"/>
<path class="st1" d="M205.5,152.9c-3.4,8.7-8.3,16.6-14.6,23.5"/>
<path class="st1" d="M95,190.7c-12-7.2-21.9-17.5-28.4-29.9"/>
<path class="st1" d="M148.3,200.2c-4.7,0.9-9.4,1.3-14.2,1.3c-8,0-16-1.3-23.6-3.7"/>
<path class="st1" d="M105.7,54c9.1-3.6,18.7-5.5,28.5-5.5c9.8,0,19.5,1.9,28.6,5.6"/>
<path class="st1" d="M74.3,77.4C80,70.1,87,64,94.9,59.3"/>
<path class="st20" d="M160.8,83.7v49.2c7.9-2,16.1,3.6,18.2,11l0.1-43.9c0-8.9-7.3-16.3-16.3-16.3H160.8z"/>
<path class="st21" d="M160.8,78.6v49.2c7.9-2,16.1,3.6,18.2,11l0.1-43.9c0-8.9-7.3-16.3-16.3-16.3H160.8z"/>
<path class="st22" d="M144.7,97.2L144.7,97.2l-46.9,0v3.4c1.7,0.4,3,2,3,3.8c0,1.8-1.3,3.4-3,3.8v2.6c1.7,0.4,3,2,3,3.8
	s-1.3,3.4-3,3.8v2.6c1.7,0.4,3,2,3,3.8s-1.3,3.4-3,3.8v2.6c1.7,0.4,3,2,3,3.8c0,1.8-1.3,3.4-3,3.8v2.6c1.7,0.4,3,2,3,3.8
	c0,1.8-1.3,3.4-3,3.8v3.4h46.9h18.2h0.1v0c10.6,0,16.2-3.7,16.2-14.6"/>
<path class="st23" d="M135.6,104.5c6,0,10.8-4.9,10.8-10.8c0-6-4.9-10.8-10.8-10.8c-6,0-10.8,4.9-10.8,10.8
	C124.8,99.6,129.7,104.5,135.6,104.5z"/>
<polyline class="st17" points="139.9,91.1 133.8,97.2 130.8,94.2 "/>
<line class="st2" x1="112" y1="139.5" x2="112" y2="134.7"/>
<line class="st2" x1="115.2" y1="139.5" x2="115.2" y2="134.7"/>
<line class="st2" x1="118.3" y1="139.5" x2="118.3" y2="134.7"/>
<line class="st2" x1="121.5" y1="139.5" x2="121.5" y2="134.7"/>
<line class="st2" x1="124.6" y1="139.5" x2="124.6" y2="134.7"/>
<line class="st2" x1="127.8" y1="139.5" x2="127.8" y2="134.7"/>
<line class="st2" x1="131" y1="139.5" x2="131" y2="134.7"/>
<path class="st24" d="M113.2,151.4h11l4.2-4.2c0.5-0.5,1.3-0.5,1.8,0l4.2,4.2h11c2.7,0,4.9,2.2,4.9,4.9v9.6c0,2.7-2.2,4.9-4.9,4.9
	h-32.2c-2.7,0-4.9-2.2-4.9-4.9v-9.6C108.3,153.6,110.5,151.4,113.2,151.4z"/>
<line class="st2" x1="134.1" y1="139.5" x2="134.1" y2="134.7"/>
<line class="st2" x1="137.3" y1="139.5" x2="137.3" y2="134.7"/>
<path class="st11" d="M111,149.4h11l4.2-4.2c0.5-0.5,1.3-0.5,1.8,0l4.2,4.2h11c2.7,0,4.9,2.2,4.9,4.9v9.6c0,2.7-2.2,4.9-4.9,4.9H111
	c-2.7,0-4.9-2.2-4.9-4.9v-9.6C106.2,151.6,108.4,149.4,111,149.4z"/>
<line class="st2" x1="112.8" y1="161.4" x2="112.8" y2="154.1"/>
<line class="st2" x1="116.4" y1="161.4" x2="116.4" y2="154.1"/>
<line class="st2" x1="120" y1="161.4" x2="120" y2="154.1"/>
<line class="st2" x1="123.5" y1="161.4" x2="123.5" y2="154.1"/>
<line class="st2" x1="127.1" y1="161.4" x2="127.1" y2="154.1"/>
<line class="st2" x1="130.7" y1="161.4" x2="130.7" y2="154.1"/>
<line class="st2" x1="134.2" y1="161.4" x2="134.2" y2="154.1"/>
<line class="st2" x1="137.8" y1="161.4" x2="137.8" y2="154.1"/>
<line class="st2" x1="141.3" y1="161.4" x2="141.3" y2="154.1"/>
<line class="st25" x1="143" y1="159.3" x2="111.4" y2="159.3"/>
<line class="st26" x1="142.9" y1="158.9" x2="111.3" y2="158.9"/>
<circle class="st7" cx="112.8" cy="164.3" r="1.1"/>
<circle class="st7" cx="116.4" cy="164.3" r="1.1"/>
<circle class="st7" cx="120" cy="164.3" r="1.1"/>
<circle class="st7" cx="123.5" cy="164.3" r="1.1"/>
<circle class="st7" cx="127.1" cy="164.3" r="1.1"/>
<circle class="st7" cx="130.7" cy="164.3" r="1.1"/>
<circle class="st7" cx="134.2" cy="164.3" r="1.1"/>
<circle class="st7" cx="137.8" cy="164.3" r="1.1"/>
<circle class="st7" cx="141.3" cy="164.3" r="1.1"/>
<line class="st18" x1="135.6" y1="77.5" x2="135.6" y2="70.1"/>
<line class="st18" x1="127.2" y1="79.6" x2="123.5" y2="73.2"/>
<line class="st18" x1="121" y1="85.6" x2="114.6" y2="81.9"/>
<line class="st18" x1="143.9" y1="79.9" x2="147.6" y2="73.4"/>
<line class="st18" x1="149.9" y1="86.1" x2="156.3" y2="82.4"/>
</svg>
