<?xml version="1.0" encoding="utf-8"?>
<!-- Generator: Adobe Illustrator 19.2.0, SVG Export Plug-In . SVG Version: 6.00 Build 0)  -->
<svg version="1.1" id="Layer_1" xmlns="http://www.w3.org/2000/svg" xmlns:xlink="http://www.w3.org/1999/xlink" x="0px" y="0px"
	 viewBox="0 0 250 250" style="enable-background:new 0 0 250 250;" xml:space="preserve">
<style type="text/css">
	.st0{fill-rule:evenodd;clip-rule:evenodd;fill:#BFDEF5;}
	
		.st1{fill-rule:evenodd;clip-rule:evenodd;fill:none;stroke:#255F93;stroke-width:2.0571;stroke-linecap:round;stroke-linejoin:round;stroke-miterlimit:22.9256;}
	
		.st2{fill-rule:evenodd;clip-rule:evenodd;fill:none;stroke:#286092;stroke-width:1.8964;stroke-linecap:round;stroke-linejoin:round;stroke-miterlimit:22.9256;}
	.st3{fill-rule:evenodd;clip-rule:evenodd;fill:#FFFFFF;stroke:#255F93;stroke-width:1.8967;stroke-miterlimit:22.9256;}
	.st4{fill-rule:evenodd;clip-rule:evenodd;fill:#286092;stroke:#255F93;stroke-width:1.8967;stroke-miterlimit:22.9256;}
	.st5{fill-rule:evenodd;clip-rule:evenodd;fill:#D9DBDA;stroke:#255F93;stroke-width:2.3309;stroke-miterlimit:22.9256;}
	.st6{fill-rule:evenodd;clip-rule:evenodd;fill:#F7F8F9;stroke:#255F93;stroke-width:1.8961;stroke-miterlimit:22.9256;}
	.st7{fill-rule:evenodd;clip-rule:evenodd;fill:#255F93;}
	.st8{fill-rule:evenodd;clip-rule:evenodd;fill:#FFFFFF;stroke:#255F93;stroke-width:1.8964;stroke-miterlimit:22.9256;}
	.st9{fill-rule:evenodd;clip-rule:evenodd;fill:#87B8E3;stroke:#255F93;stroke-width:2.0183;stroke-miterlimit:22.9256;}
	
		.st10{fill-rule:evenodd;clip-rule:evenodd;fill:#FFFFFF;stroke:#255F93;stroke-width:2.0183;stroke-linecap:round;stroke-linejoin:round;stroke-miterlimit:22.9256;}
	.st11{fill-rule:evenodd;clip-rule:evenodd;fill:#FFFFFF;stroke:#255F93;stroke-width:2.0183;stroke-miterlimit:22.9256;}
	
		.st12{fill-rule:evenodd;clip-rule:evenodd;fill:none;stroke:#255F93;stroke-width:2.0183;stroke-linecap:round;stroke-miterlimit:22.9256;stroke-dasharray:2.0183,6.0548;}
	.st13{fill-rule:evenodd;clip-rule:evenodd;fill:#255F93;stroke:#255F93;stroke-width:2.0183;stroke-miterlimit:22.9256;}
	
		.st14{fill-rule:evenodd;clip-rule:evenodd;fill:none;stroke:#255F93;stroke-width:1.8964;stroke-linecap:round;stroke-linejoin:round;stroke-miterlimit:22.9256;}
	.st15{fill-rule:evenodd;clip-rule:evenodd;fill:#D1D3D4;stroke:#255F93;stroke-width:2.0183;stroke-miterlimit:22.9256;}
	.st16{fill-rule:evenodd;clip-rule:evenodd;fill:none;stroke:#255F93;stroke-width:2.0183;stroke-miterlimit:22.9256;}
	
		.st17{fill-rule:evenodd;clip-rule:evenodd;fill:none;stroke:#255F93;stroke-width:1.984;stroke-linecap:round;stroke-linejoin:round;stroke-miterlimit:22.9256;}
	
		.st18{fill-rule:evenodd;clip-rule:evenodd;fill:none;stroke:#286092;stroke-width:1.984;stroke-linecap:round;stroke-linejoin:round;stroke-miterlimit:22.9256;}
	
		.st19{fill-rule:evenodd;clip-rule:evenodd;fill:none;stroke:#255F93;stroke-width:1.9843;stroke-linecap:round;stroke-linejoin:round;stroke-miterlimit:22.9256;}
	
		.st20{fill-rule:evenodd;clip-rule:evenodd;fill:#E6E7E8;stroke:#E6E7E8;stroke-width:2.0183;stroke-linecap:round;stroke-linejoin:round;stroke-miterlimit:22.9256;}
	
		.st21{fill-rule:evenodd;clip-rule:evenodd;fill:#87B8E3;stroke:#255F93;stroke-width:2.0183;stroke-linecap:round;stroke-linejoin:round;stroke-miterlimit:22.9256;}
	
		.st22{fill-rule:evenodd;clip-rule:evenodd;fill:none;stroke:#255F93;stroke-width:2.0183;stroke-linecap:round;stroke-linejoin:round;stroke-miterlimit:22.9256;}
	
		.st23{fill-rule:evenodd;clip-rule:evenodd;fill:#FFFFFF;stroke:#255F93;stroke-width:1.984;stroke-linecap:round;stroke-linejoin:round;stroke-miterlimit:22.9256;}
	.st24{fill-rule:evenodd;clip-rule:evenodd;fill:#80AFD6;}
	
		.st25{fill-rule:evenodd;clip-rule:evenodd;fill:none;stroke:#3F4243;stroke-width:1.4173;stroke-linecap:round;stroke-linejoin:round;stroke-miterlimit:22.9256;}
	
		.st26{fill-rule:evenodd;clip-rule:evenodd;fill:none;stroke:#F05B72;stroke-width:1.4173;stroke-linecap:round;stroke-linejoin:round;stroke-miterlimit:22.9256;}
	
		.st27{fill-rule:evenodd;clip-rule:evenodd;fill:#FFFFFF;stroke:#255F93;stroke-width:2.1815;stroke-linecap:round;stroke-linejoin:round;stroke-miterlimit:22.9256;}
	
		.st28{fill-rule:evenodd;clip-rule:evenodd;fill:#D1D3D4;stroke:#255F93;stroke-width:2.1815;stroke-linecap:round;stroke-linejoin:round;stroke-miterlimit:22.9256;}
	.st29{fill-rule:evenodd;clip-rule:evenodd;fill:#F05B72;}
	.st30{fill-rule:evenodd;clip-rule:evenodd;fill:#5D9ED5;}
	.st31{fill-rule:evenodd;clip-rule:evenodd;fill:#FFFFFF;stroke:#255F93;stroke-width:1.984;stroke-miterlimit:22.9256;}
	.st32{fill-rule:evenodd;clip-rule:evenodd;fill:#FFFFFF;}
	
		.st33{fill-rule:evenodd;clip-rule:evenodd;fill:none;stroke:#255F93;stroke-width:1.984;stroke-linecap:round;stroke-linejoin:round;stroke-miterlimit:10;}
	
		.st34{fill-rule:evenodd;clip-rule:evenodd;fill:#EF413D;stroke:#255F93;stroke-width:1.984;stroke-linejoin:round;stroke-miterlimit:22.9256;}
	.st35{fill-rule:evenodd;clip-rule:evenodd;fill:#CEE6F7;}
	
		.st36{fill-rule:evenodd;clip-rule:evenodd;fill:#FFFFFF;stroke:#336296;stroke-width:2.1814;stroke-linecap:round;stroke-linejoin:round;stroke-miterlimit:22.9256;}
	
		.st37{fill-rule:evenodd;clip-rule:evenodd;fill:#FFFFFF;stroke:#336296;stroke-width:2.1815;stroke-linecap:round;stroke-linejoin:round;stroke-miterlimit:22.9256;}
	
		.st38{fill-rule:evenodd;clip-rule:evenodd;fill:#FFFFFF;stroke:#336296;stroke-width:2.1823;stroke-linecap:round;stroke-linejoin:round;stroke-miterlimit:22.9256;}
	.st39{fill:none;stroke:#336296;stroke-width:1.984;stroke-linecap:round;stroke-linejoin:round;stroke-miterlimit:22.9256;}
	
		.st40{fill-rule:evenodd;clip-rule:evenodd;fill:#FFFFFF;stroke:#336296;stroke-width:1.9033;stroke-linecap:round;stroke-linejoin:round;stroke-miterlimit:22.9256;}
	
		.st41{fill-rule:evenodd;clip-rule:evenodd;fill:#FFFFFF;stroke:#336296;stroke-width:2.0183;stroke-linecap:round;stroke-linejoin:round;stroke-miterlimit:22.9256;}
	
		.st42{fill-rule:evenodd;clip-rule:evenodd;fill:#97C0E6;stroke:#336296;stroke-width:2.0183;stroke-linecap:round;stroke-linejoin:round;stroke-miterlimit:22.9256;}
	.st43{fill:none;stroke:#336296;stroke-width:1.4173;stroke-linecap:round;stroke-linejoin:round;stroke-miterlimit:22.9256;}
	.st44{fill:none;stroke:#336296;stroke-width:1.4173;stroke-miterlimit:22.9256;}
	
		.st45{fill:none;stroke:#E7E7E7;stroke-width:0.8504;stroke-linecap:round;stroke-linejoin:round;stroke-miterlimit:22.9256;stroke-dasharray:0.8504,2.5512;}
	.st46{fill:none;stroke:#336396;stroke-width:1.8964;stroke-linecap:round;stroke-linejoin:round;stroke-miterlimit:22.9256;}
	.st47{fill-rule:evenodd;clip-rule:evenodd;fill:#336296;}
	
		.st48{fill:none;stroke:#97C0E6;stroke-width:0.8504;stroke-linecap:round;stroke-linejoin:round;stroke-miterlimit:22.9256;stroke-dasharray:0.8504,2.5512;}
	.st49{fill:none;stroke:#336296;stroke-width:2.0183;stroke-miterlimit:22.9256;}
	.st50{fill-rule:evenodd;clip-rule:evenodd;fill:#F79332;stroke:#336296;stroke-width:2.0183;stroke-miterlimit:22.9256;}
	.st51{fill-rule:evenodd;clip-rule:evenodd;fill:#FFFFFF;stroke:#336296;stroke-width:2.0183;stroke-miterlimit:22.9256;}
	.st52{fill:none;stroke:#336296;stroke-width:2.0571;stroke-linecap:round;stroke-linejoin:round;stroke-miterlimit:22.9256;}
	.st53{fill:none;stroke:#336296;stroke-width:2.0183;stroke-linecap:round;stroke-linejoin:round;stroke-miterlimit:22.9256;}
	.st54{fill:none;stroke:#336296;stroke-width:2.0183;stroke-linecap:round;stroke-linejoin:round;stroke-miterlimit:10;}
</style>
<path class="st0" d="M192.8,144.6h-16.5c-5.7,0-5.9-1.9-5.9-7.1c0-3.9-1.5-5.1-4.7-5.1c-1.5,0-2.7-1.2-2.7-2.7v0
	c0-1.5,1.2-2.7,2.7-2.7h4.7h8.4c5.7,0,10.4-4.7,10.4-10.4v0c0-5.7-4.7-10.4-10.4-10.4h19.1c6.1,0,11.1-5,11.1-11.1v0
	c0-6.1-5-11.1-11.1-11.1h-14.6h-3.6c0.1,0,0.3,0,0.4,0c-2-0.2-3.6-1.9-3.6-3.9v0c0-2,1.6-3.7,3.6-3.9c-0.1,0-0.3,0-0.4,0h3.6h0.8
	c5.2,0,9.5-4.3,9.5-9.5v0c0-5.2-4.3-9.5-9.5-9.5h-13.7h-1.7c-19.7,0-39.3,0-59,0H108h-0.9H62.5c-6.4,0-11.5,5.2-11.5,11.5v0
	c0,6.4,5.2,11.5,11.5,11.5c2.4,0,4.4,1.2,4.4,3.9v0c0,2.2-1.8,3.9-3.9,3.9h-0.7H47.8c-7.2,0-13.1,5.9-13.1,13.1v0
	c0,7.2,5.9,13.1,13.1,13.1h31.7c-6.1,0-11,5-11,11v0c0,6.1,5,11,11,11H81h6.9c1.9,0.1,3.4,1.6,3.4,3.4v0c0,1.9-1.5,3.4-3.4,3.4h-3.6
	c-6.2,0.3-11.3,6.1-11.3,12.3l0,0c0,3.6,1.6,6.8,4,9H73c-4.6,0-8.3,3.7-8.3,8.3v0c0,4.6,3.7,8.3,8.3,8.3h3.8h14l1,0
	c3.3,0.5,5.8,3.3,5.8,6.7v0c0,1.7-0.8,3.2-0.8,5.4l0,0c0,6.7,5.5,12.2,12.2,12.2h48.7c6.7,0,12.2-5.5,12.2-12.2l0,0
	c0-6.7-5.5-12.2-12.2-12.2h-0.6c-3.4,0-6.1-2.7-6.1-6.1l0,0c0-3.4,2.7-6.1,6.1-6.1h30h5.7c6.7,0,12.2-5.5,12.2-12.2l0,0
	C205,150.1,199.5,144.6,192.8,144.6z"/>
<path class="st0" d="M211,81.3h-4.9c-3.3,0-6.1-2.7-6.1-6.1v0c0-3.3,2.7-6.1,6.1-6.1h4.9c3.3,0,6.1,2.7,6.1,6.1v0
	C217,78.6,214.3,81.3,211,81.3z"/>
<path class="st0" d="M60.9,159.6H48.7c-4.4,0-8-3.6-8-8v0c0-4.4,3.6-8,8-8h12.2c4.4,0,8,3.6,8,8v0C68.9,156,65.3,159.6,60.9,159.6z"
	/>
<circle class="st0" cx="188.5" cy="135.1" r="3.8"/>
<g>
	<path class="st1" d="M182,67.1c14.7,14.4,23,34.1,23,54.7c0,2.8-0.2,5.7-0.5,8.5"/>
	<path class="st1" d="M199.7,149.6c-3.4,8.7-8.3,16.6-14.6,23.5"/>
	<path class="st1" d="M89.2,187.5c-23.1-13.8-37.3-38.8-37.3-65.7c0-1.7,0.1-3.4,0.2-5.1"/>
	<path class="st1" d="M142.6,197c-4.7,0.9-9.4,1.3-14.2,1.3c-8,0-16-1.3-23.6-3.7"/>
	<path class="st1" d="M100,50.7c9.1-3.6,18.7-5.5,28.5-5.5c9.8,0,19.5,1.9,28.6,5.6"/>
	<path class="st1" d="M68.6,74.1c5.7-7.2,12.7-13.3,20.6-18"/>
</g>
<circle class="st0" cx="43.3" cy="125.8" r="3.8"/>
<g>
	<line class="st1" x1="163.7" y1="109.6" x2="163.7" y2="106.4"/>
	<line class="st1" x1="162.1" y1="108" x2="165.3" y2="108"/>
</g>
<g>
	<line class="st1" x1="72" y1="97.6" x2="72" y2="94.4"/>
	<line class="st1" x1="70.4" y1="96" x2="73.6" y2="96"/>
</g>
<g>
	<line class="st1" x1="181.5" y1="92.2" x2="181.5" y2="89"/>
	<line class="st1" x1="179.9" y1="90.6" x2="183.1" y2="90.6"/>
</g>
<g>
	<line class="st1" x1="103.9" y1="95.6" x2="103.9" y2="92.4"/>
	<line class="st1" x1="102.3" y1="94" x2="105.5" y2="94"/>
</g>
<g>
	<line class="st1" x1="82.4" y1="160.3" x2="82.4" y2="157"/>
	<line class="st1" x1="80.8" y1="158.7" x2="84" y2="158.7"/>
</g>
<g>
	<line class="st1" x1="61" y1="123.7" x2="61" y2="121.6"/>
	<line class="st1" x1="60" y1="122.7" x2="62.1" y2="122.7"/>
</g>
<line class="st2" x1="78.6" y1="75.9" x2="94.6" y2="103.7"/>
<line class="st2" x1="84.3" y1="75.9" x2="89.5" y2="84.9"/>
<line class="st2" x1="169.6" y1="79.7" x2="171.8" y2="75.9"/>
<line class="st2" x1="152" y1="110.2" x2="168" y2="82.5"/>
<path class="st3" d="M106,125.6l20.6,0l20.6,0l6.1,50.4c-0.1,2.6-1.1,4.3-3.7,4.7l-23,0l-23,0c-2.6-0.4-3.7-2.2-3.7-4.7L106,125.6z"
	/>
<polygon class="st4" points="106,125.6 126.6,125.7 147.2,125.6 148.7,137.5 104.5,137.5 "/>
<path class="st5" d="M126.5,153l45.7,18.8c2.5,1,3.7,3.9,2.7,6.4l0,0c-1,2.5-3.9,3.7-6.4,2.7l-45.7-18.8c-2.5-1-3.7-3.9-2.7-6.4l0,0
	C121.1,153.2,124,152,126.5,153z"/>
<path class="st6" d="M126.5,153l9,3.7l-3.7,9.1l-9-3.7c-2.5-1-3.7-3.9-2.7-6.4l0,0C121.1,153.2,124,152,126.5,153z"/>
<g>
	<line class="st1" x1="115.3" y1="148.3" x2="115.3" y2="145.1"/>
	<line class="st1" x1="113.7" y1="146.7" x2="116.9" y2="146.7"/>
</g>
<circle class="st7" cx="119.4" cy="170.1" r="1.9"/>
<circle class="st7" cx="111.1" cy="161.6" r="3.9"/>
<line class="st2" x1="96.2" y1="106.4" x2="98.4" y2="110.2"/>
<line class="st2" x1="158.9" y1="180.8" x2="94.3" y2="180.8"/>
<path class="st8" d="M107.4,105.6L132.8,86c1.4-1.1,3.5-0.8,4.6,0.6l11.2,14.5c1.1,1.4,0.8,3.5-0.6,4.6l-25.4,19.6
	c-1.4,1.1-3.5,0.8-4.6-0.6l-11.2-14.5C105.7,108.8,106,106.7,107.4,105.6z"/>
<path class="st7" d="M122.1,105.9l12.5-9.6l-0.6-1c0,0,0,0,0,0c0-0.1-0.1-0.1-0.2-0.1c-0.1,0-0.3,0-0.4,0.1c0,0,0,0-0.1,0l-11.6,8.9
	l-0.4-1.7l11-8.5c0.1-0.1,0.2-0.1,0.3-0.2c0.4-0.2,0.9-0.3,1.3-0.3c0.5,0.1,0.9,0.3,1.2,0.7c0,0.1,0.1,0.1,0.1,0.2l5.2,9.2
	c0.3,0.5,0.4,1,0.3,1.5c-0.1,0.5-0.3,1-0.7,1.3l-0.1,0l-10.5,8.1l-6.1,4.7l-1,0.7l-0.3-1.2l-3.3-15.2l-4.8,3.7l-0.9-1.2l5.8-4.5
	l1-0.7l0.3,1.2l3.3,15.2l5.1-4l10.5-8.1l0.1,0c0.1-0.1,0.1-0.2,0.2-0.3c0-0.2,0-0.4-0.1-0.5l-2.6-4.6l-13.6,10.5L122.1,105.9
	L122.1,105.9z M127.7,111.1c-0.2,0.1-0.2,0.4-0.1,0.6l0,0c0.1,0.2,0.4,0.2,0.6,0.1l7.8-6c0.2-0.1,0.2-0.4,0.1-0.6l0,0
	c-0.1-0.2-0.4-0.2-0.6-0.1L127.7,111.1L127.7,111.1z M132.8,104.3c-0.2,0.1-0.2,0.4-0.1,0.6l0,0c0.1,0.2,0.4,0.2,0.6,0.1l1.5-1.2
	c0.2-0.1,0.2-0.4,0.1-0.6l0,0c-0.1-0.2-0.4-0.2-0.6-0.1L132.8,104.3L132.8,104.3z M127.5,108.3c-0.2,0.1-0.2,0.4-0.1,0.6l0,0
	c0.1,0.2,0.4,0.2,0.6,0.1l4-3.1c0.2-0.1,0.2-0.4,0.1-0.6l0,0c-0.1-0.2-0.4-0.2-0.6-0.1L127.5,108.3z"/>
<path class="st8" d="M126.6,125.6H87.3c-1.9,0.1-3.6-1.6-1.9-4.1l3.1-3.4c0.8-0.8,1.7-1.2,2.7-1.1h35.4H162c1,0,1.9,0.3,2.7,1.1
	l3.1,3.4c1.7,2.5,0,4.3-1.9,4.1H126.6z"/>
<line class="st2" x1="94.7" y1="75.9" x2="100.4" y2="85.7"/>
<g>
	<line class="st1" x1="135.5" y1="70.5" x2="135.5" y2="67.2"/>
	<line class="st1" x1="133.9" y1="68.9" x2="137.1" y2="68.9"/>
</g>
</svg>
