<?xml version="1.0" encoding="utf-8"?>
<!-- Generator: Adobe Illustrator 19.2.0, SVG Export Plug-In . SVG Version: 6.00 Build 0)  -->
<svg version="1.1" id="Layer_1" xmlns="http://www.w3.org/2000/svg" xmlns:xlink="http://www.w3.org/1999/xlink" x="0px" y="0px"
	 viewBox="0 0 250 250" style="enable-background:new 0 0 250 250;" xml:space="preserve">
<style type="text/css">
	.st0{fill-rule:evenodd;clip-rule:evenodd;fill:#BFDEF5;}
	
		.st1{fill-rule:evenodd;clip-rule:evenodd;fill:none;stroke:#255F93;stroke-width:2.0571;stroke-linecap:round;stroke-linejoin:round;stroke-miterlimit:22.9256;}
	
		.st2{fill-rule:evenodd;clip-rule:evenodd;fill:none;stroke:#286092;stroke-width:1.8964;stroke-linecap:round;stroke-linejoin:round;stroke-miterlimit:22.9256;}
	.st3{fill-rule:evenodd;clip-rule:evenodd;fill:#FFFFFF;stroke:#255F93;stroke-width:1.8967;stroke-miterlimit:22.9256;}
	.st4{fill-rule:evenodd;clip-rule:evenodd;fill:#286092;stroke:#255F93;stroke-width:1.8967;stroke-miterlimit:22.9256;}
	.st5{fill-rule:evenodd;clip-rule:evenodd;fill:#D9DBDA;stroke:#255F93;stroke-width:2.3309;stroke-miterlimit:22.9256;}
	.st6{fill-rule:evenodd;clip-rule:evenodd;fill:#F7F8F9;stroke:#255F93;stroke-width:1.8961;stroke-miterlimit:22.9256;}
	.st7{fill-rule:evenodd;clip-rule:evenodd;fill:#255F93;}
	.st8{fill-rule:evenodd;clip-rule:evenodd;fill:#FFFFFF;stroke:#255F93;stroke-width:1.8964;stroke-miterlimit:22.9256;}
	.st9{fill-rule:evenodd;clip-rule:evenodd;fill:#87B8E3;stroke:#255F93;stroke-width:2.0183;stroke-miterlimit:22.9256;}
	
		.st10{fill-rule:evenodd;clip-rule:evenodd;fill:#FFFFFF;stroke:#255F93;stroke-width:2.0183;stroke-linecap:round;stroke-linejoin:round;stroke-miterlimit:22.9256;}
	.st11{fill-rule:evenodd;clip-rule:evenodd;fill:#FFFFFF;stroke:#255F93;stroke-width:2.0183;stroke-miterlimit:22.9256;}
	
		.st12{fill-rule:evenodd;clip-rule:evenodd;fill:none;stroke:#255F93;stroke-width:2.0183;stroke-linecap:round;stroke-miterlimit:22.9256;stroke-dasharray:2.0183,6.0548;}
	.st13{fill-rule:evenodd;clip-rule:evenodd;fill:#255F93;stroke:#255F93;stroke-width:2.0183;stroke-miterlimit:22.9256;}
	
		.st14{fill-rule:evenodd;clip-rule:evenodd;fill:none;stroke:#255F93;stroke-width:1.8964;stroke-linecap:round;stroke-linejoin:round;stroke-miterlimit:22.9256;}
	.st15{fill-rule:evenodd;clip-rule:evenodd;fill:#D1D3D4;stroke:#255F93;stroke-width:2.0183;stroke-miterlimit:22.9256;}
	.st16{fill-rule:evenodd;clip-rule:evenodd;fill:none;stroke:#255F93;stroke-width:2.0183;stroke-miterlimit:22.9256;}
	
		.st17{fill-rule:evenodd;clip-rule:evenodd;fill:none;stroke:#255F93;stroke-width:1.984;stroke-linecap:round;stroke-linejoin:round;stroke-miterlimit:22.9256;}
	
		.st18{fill-rule:evenodd;clip-rule:evenodd;fill:none;stroke:#286092;stroke-width:1.984;stroke-linecap:round;stroke-linejoin:round;stroke-miterlimit:22.9256;}
	
		.st19{fill-rule:evenodd;clip-rule:evenodd;fill:none;stroke:#255F93;stroke-width:1.9843;stroke-linecap:round;stroke-linejoin:round;stroke-miterlimit:22.9256;}
	
		.st20{fill-rule:evenodd;clip-rule:evenodd;fill:#E6E7E8;stroke:#E6E7E8;stroke-width:2.0183;stroke-linecap:round;stroke-linejoin:round;stroke-miterlimit:22.9256;}
	
		.st21{fill-rule:evenodd;clip-rule:evenodd;fill:#87B8E3;stroke:#255F93;stroke-width:2.0183;stroke-linecap:round;stroke-linejoin:round;stroke-miterlimit:22.9256;}
	
		.st22{fill-rule:evenodd;clip-rule:evenodd;fill:none;stroke:#255F93;stroke-width:2.0183;stroke-linecap:round;stroke-linejoin:round;stroke-miterlimit:22.9256;}
	
		.st23{fill-rule:evenodd;clip-rule:evenodd;fill:#FFFFFF;stroke:#255F93;stroke-width:1.984;stroke-linecap:round;stroke-linejoin:round;stroke-miterlimit:22.9256;}
	.st24{fill-rule:evenodd;clip-rule:evenodd;fill:#80AFD6;}
	
		.st25{fill-rule:evenodd;clip-rule:evenodd;fill:none;stroke:#3F4243;stroke-width:1.4173;stroke-linecap:round;stroke-linejoin:round;stroke-miterlimit:22.9256;}
	
		.st26{fill-rule:evenodd;clip-rule:evenodd;fill:none;stroke:#F05B72;stroke-width:1.4173;stroke-linecap:round;stroke-linejoin:round;stroke-miterlimit:22.9256;}
	
		.st27{fill-rule:evenodd;clip-rule:evenodd;fill:#FFFFFF;stroke:#255F93;stroke-width:2.1815;stroke-linecap:round;stroke-linejoin:round;stroke-miterlimit:22.9256;}
	
		.st28{fill-rule:evenodd;clip-rule:evenodd;fill:#D1D3D4;stroke:#255F93;stroke-width:2.1815;stroke-linecap:round;stroke-linejoin:round;stroke-miterlimit:22.9256;}
	.st29{fill-rule:evenodd;clip-rule:evenodd;fill:#F05B72;}
	.st30{fill-rule:evenodd;clip-rule:evenodd;fill:#5D9ED5;}
	.st31{fill-rule:evenodd;clip-rule:evenodd;fill:#FFFFFF;stroke:#255F93;stroke-width:1.984;stroke-miterlimit:22.9256;}
	.st32{fill-rule:evenodd;clip-rule:evenodd;fill:#FFFFFF;}
	
		.st33{fill-rule:evenodd;clip-rule:evenodd;fill:none;stroke:#255F93;stroke-width:1.984;stroke-linecap:round;stroke-linejoin:round;stroke-miterlimit:10;}
	
		.st34{fill-rule:evenodd;clip-rule:evenodd;fill:#EF413D;stroke:#255F93;stroke-width:1.984;stroke-linejoin:round;stroke-miterlimit:22.9256;}
	.st35{fill-rule:evenodd;clip-rule:evenodd;fill:#CEE6F7;}
	
		.st36{fill-rule:evenodd;clip-rule:evenodd;fill:#FFFFFF;stroke:#336296;stroke-width:2.1814;stroke-linecap:round;stroke-linejoin:round;stroke-miterlimit:22.9256;}
	
		.st37{fill-rule:evenodd;clip-rule:evenodd;fill:#FFFFFF;stroke:#336296;stroke-width:2.1815;stroke-linecap:round;stroke-linejoin:round;stroke-miterlimit:22.9256;}
	
		.st38{fill-rule:evenodd;clip-rule:evenodd;fill:#FFFFFF;stroke:#336296;stroke-width:2.1823;stroke-linecap:round;stroke-linejoin:round;stroke-miterlimit:22.9256;}
	.st39{fill:none;stroke:#336296;stroke-width:1.984;stroke-linecap:round;stroke-linejoin:round;stroke-miterlimit:22.9256;}
	
		.st40{fill-rule:evenodd;clip-rule:evenodd;fill:#FFFFFF;stroke:#336296;stroke-width:1.9033;stroke-linecap:round;stroke-linejoin:round;stroke-miterlimit:22.9256;}
	
		.st41{fill-rule:evenodd;clip-rule:evenodd;fill:#FFFFFF;stroke:#336296;stroke-width:2.0183;stroke-linecap:round;stroke-linejoin:round;stroke-miterlimit:22.9256;}
	
		.st42{fill-rule:evenodd;clip-rule:evenodd;fill:#97C0E6;stroke:#336296;stroke-width:2.0183;stroke-linecap:round;stroke-linejoin:round;stroke-miterlimit:22.9256;}
	.st43{fill:none;stroke:#336296;stroke-width:1.4173;stroke-linecap:round;stroke-linejoin:round;stroke-miterlimit:22.9256;}
	.st44{fill:none;stroke:#336296;stroke-width:1.4173;stroke-miterlimit:22.9256;}
	
		.st45{fill:none;stroke:#E7E7E7;stroke-width:0.8504;stroke-linecap:round;stroke-linejoin:round;stroke-miterlimit:22.9256;stroke-dasharray:0.8504,2.5512;}
	.st46{fill:none;stroke:#336396;stroke-width:1.8964;stroke-linecap:round;stroke-linejoin:round;stroke-miterlimit:22.9256;}
	.st47{fill-rule:evenodd;clip-rule:evenodd;fill:#336296;}
	
		.st48{fill:none;stroke:#97C0E6;stroke-width:0.8504;stroke-linecap:round;stroke-linejoin:round;stroke-miterlimit:22.9256;stroke-dasharray:0.8504,2.5512;}
	.st49{fill:none;stroke:#336296;stroke-width:2.0183;stroke-miterlimit:22.9256;}
	.st50{fill-rule:evenodd;clip-rule:evenodd;fill:#F79332;stroke:#336296;stroke-width:2.0183;stroke-miterlimit:22.9256;}
	.st51{fill-rule:evenodd;clip-rule:evenodd;fill:#FFFFFF;stroke:#336296;stroke-width:2.0183;stroke-miterlimit:22.9256;}
	.st52{fill:none;stroke:#336296;stroke-width:2.0571;stroke-linecap:round;stroke-linejoin:round;stroke-miterlimit:22.9256;}
	.st53{fill:none;stroke:#336296;stroke-width:2.0183;stroke-linecap:round;stroke-linejoin:round;stroke-miterlimit:22.9256;}
	.st54{fill:none;stroke:#336296;stroke-width:2.0183;stroke-linecap:round;stroke-linejoin:round;stroke-miterlimit:10;}
</style>
<g>
	<path class="st0" d="M191.9,142.2h-16.5c-5.7,0-5.9-1.9-5.9-7.1c0-3.9-1.5-5.1-4.7-5.1c-1.5,0-2.7-1.2-2.7-2.7v0
		c0-1.5,1.2-2.7,2.7-2.7h4.7h8.4c5.7,0,10.4-4.7,10.4-10.4v0c0-5.7-4.7-10.4-10.4-10.4H197c6.1,0,11.1-5,11.1-11.1v0
		c0-6.1-5-11.1-11.1-11.1h-14.6h-3.6c0.1,0,0.3,0,0.4,0c-2-0.2-3.6-1.9-3.6-3.9v0c0-2,1.6-3.7,3.6-3.9c-0.1,0-0.3,0-0.4,0h3.6h0.8
		c5.2,0,9.5-4.3,9.5-9.5v0c0-5.2-4.3-9.5-9.5-9.5h-13.7h-1.7c-19.7,0-39.3,0-59,0h-1.7h-0.9H61.7c-6.4,0-11.5,5.2-11.5,11.5v0
		c0,6.4,5.2,11.5,11.5,11.5c2.4,0,4.4,1.2,4.4,3.9v0c0,2.2-1.8,3.9-3.9,3.9h-0.7H47c-7.2,0-13.1,5.9-13.1,13.1v0
		c0,7.2,5.9,13.1,13.1,13.1h31.7c-6.1,0-11,5-11,11v0c0,6.1,5,11,11,11h1.4H87c1.9,0.1,3.4,1.6,3.4,3.4v0c0,1.9-1.5,3.4-3.4,3.4
		h-3.6C77.2,141.2,72,147,72,153.2l0,0c0,3.6,1.6,6.8,4,9h-3.9c-4.6,0-8.3,3.7-8.3,8.3v0c0,4.6,3.7,8.3,8.3,8.3h3.8h14l1,0
		c3.3,0.5,5.8,3.3,5.8,6.7v0c0,1.7-0.8,3.2-0.8,5.4l0,0c0,6.7,5.5,12.2,12.2,12.2h48.7c6.7,0,12.2-5.5,12.2-12.2l0,0
		c0-5.9-4.3-10.9-9.8-12c-0.8-0.1-11.2-0.2-12-0.2h-0.6c-3.4,0-6.1-2.7-6.1-6.1l0,0c0-3.4,2.7-6.1,6.1-6.1h39.7h5.7
		c6.7,0,12.2-5.5,12.2-12.2l0,0C204.1,147.7,198.6,142.2,191.9,142.2z"/>
	<path class="st0" d="M210.1,78.9h-4.9c-3.3,0-6.1-2.7-6.1-6.1v0c0-3.3,2.7-6.1,6.1-6.1h4.9c3.3,0,6.1,2.7,6.1,6.1v0
		C216.2,76.2,213.5,78.9,210.1,78.9z"/>
	<path class="st0" d="M60.1,157.1H47.8c-4.4,0-8-3.6-8-8v0c0-4.4,3.6-8,8-8h12.2c4.4,0,8,3.6,8,8v0
		C68.1,153.5,64.5,157.1,60.1,157.1z"/>
	<circle class="st0" cx="42.4" cy="119.6" r="3.8"/>
	<path class="st9" d="M85.1,92.4h79.8c3.3,0,6,2.7,6,6v61.3c0,3.3-2.7,6-6,6H85.1c-3.3,0-6-2.7-6-6V98.4
		C79.1,95.1,81.8,92.4,85.1,92.4z"/>
	<path class="st10" d="M97.1,68.7h3c0.4,1.5,1.7,2.6,3.3,2.6s2.9-1.1,3.3-2.6h2.3c0.4,1.5,1.7,2.6,3.3,2.6s2.9-1.1,3.3-2.6h2.3
		c0.4,1.5,1.7,2.6,3.3,2.6s2.9-1.1,3.3-2.6h2.3c0.4,1.5,1.7,2.6,3.3,2.6s2.9-1.1,3.3-2.6h2.3c0.4,1.5,1.7,2.6,3.3,2.6
		s2.9-1.1,3.3-2.6h3v105.2c0,0.7,0,1.3,0,2c0.1,1.8,0.5,4.6,5.6,6l1.5,0.4h-11.3h-37.3c-3.7,0-6.6-3-6.6-6.6V68.7z"/>
	<path class="st11" d="M85.1,92.4h73.3c3.3,0,6,2.7,6,6v61.3c0,3.3-2.7,6-6,6H85.1c-3.3,0-6-2.7-6-6V98.4
		C79.1,95.1,81.8,92.4,85.1,92.4z"/>
	<path class="st12" d="M84.1,98.6h69.7c2.7,0,5,2.2,5,5v50.8c0,2.7-2.2,5-5,5H84.1c-2.7,0-5-2.2-5-5v-50.8
		C79.1,100.9,81.4,98.6,84.1,98.6z"/>
	<path class="st11" d="M170.9,118.5h-19.4c-5.8,0-10.5,4.7-10.5,10.5l0,0c0,5.8,4.7,10.5,10.5,10.5h19.4V118.5z"/>
	<path class="st13" d="M151.5,134.8c3.2,0,5.8-2.6,5.8-5.8c0-3.2-2.6-5.8-5.8-5.8c-3.2,0-5.8,2.6-5.8,5.8
		C145.7,132.2,148.3,134.8,151.5,134.8z"/>
	<path class="st1" d="M178.5,68.6c14.7,14.4,23,34.1,23,54.7c0,2.8-0.2,5.7-0.5,8.5"/>
	<path class="st1" d="M196.3,151.2c-3.4,8.7-8.3,16.6-14.6,23.5"/>
	<path class="st1" d="M85.8,189.1c-23.1-13.8-37.3-38.8-37.3-65.7c0-1.7,0.1-3.4,0.2-5.1"/>
	<path class="st1" d="M139.2,198.6c-4.7,0.9-9.4,1.3-14.2,1.3c-8,0-16-1.3-23.6-3.7"/>
	<path class="st1" d="M96.5,52.3c9.1-3.6,18.7-5.5,28.5-5.5c9.8,0,19.5,1.9,28.6,5.6"/>
	<path class="st1" d="M65.1,75.7c5.7-7.2,12.7-13.3,20.6-18"/>
	<line class="st2" x1="138.1" y1="79.8" x2="108.6" y2="79.8"/>
	<line class="st2" x1="138.1" y1="85.7" x2="117" y2="85.7"/>
	<line class="st2" x1="138.1" y1="174.1" x2="112.9" y2="174.1"/>
	<polyline class="st14" points="110,171.6 106.8,174.8 105.2,173.2 	"/>
	<g>
		<line class="st1" x1="54.8" y1="102.1" x2="54.8" y2="98.1"/>
		<line class="st1" x1="52.8" y1="100.1" x2="56.8" y2="100.1"/>
	</g>
	<g>
		<line class="st1" x1="74.7" y1="90.9" x2="74.7" y2="87.7"/>
		<line class="st1" x1="73.1" y1="89.3" x2="76.4" y2="89.3"/>
	</g>
	<g>
		<line class="st1" x1="72.1" y1="118.3" x2="72.1" y2="115.1"/>
		<line class="st1" x1="70.5" y1="116.7" x2="73.7" y2="116.7"/>
	</g>
	<line class="st2" x1="60.2" y1="132.4" x2="55.8" y2="132.4"/>
	<line class="st2" x1="106.5" y1="132.4" x2="73.1" y2="132.4"/>
	<line class="st2" x1="73.5" y1="153.3" x2="69.2" y2="153.3"/>
	<line class="st2" x1="87.9" y1="139.9" x2="63.3" y2="139.9"/>
	<g>
		<line class="st1" x1="39.8" y1="153.2" x2="39.8" y2="150"/>
		<line class="st1" x1="38.2" y1="151.6" x2="41.4" y2="151.6"/>
	</g>
	<line class="st2" x1="96.5" y1="125.6" x2="86.1" y2="125.6"/>
	<line class="st2" x1="74.5" y1="146.4" x2="59.2" y2="146.4"/>
	<circle class="st7" cx="66.7" cy="132.4" r="0.9"/>
	<circle class="st0" cx="181.3" cy="132.6" r="3.8"/>
	<line class="st2" x1="84.6" y1="146.4" x2="92.4" y2="146.4"/>
	<path class="st15" d="M145.4,176.3v-4.8h8.8c3,0,5.4,2.4,5.4,5.4v0c0,5.4-5.5,5.8-9.5,5C145.9,181,145.5,178,145.4,176.3z"/>
	<line class="st2" x1="64.6" y1="107.3" x2="74.6" y2="107.3"/>
	<circle class="st7" cx="58.4" cy="139.9" r="0.9"/>
	<line class="st2" x1="117.8" y1="139.9" x2="101.9" y2="139.9"/>
</g>
</svg>
