<?xml version="1.0" encoding="UTF-8" standalone="no"?>
<svg width="114px" height="114px" viewBox="0 0 114 114" version="1.1" xmlns="http://www.w3.org/2000/svg" xmlns:xlink="http://www.w3.org/1999/xlink" xmlns:sketch="http://www.bohemiancoding.com/sketch/ns">
    <!-- Generator: Sketch 3.4.2 (15857) - http://www.bohemiancoding.com/sketch -->
    <title>Artboard 10</title>
    <desc>Created with Sketch.</desc>
    <defs></defs>
    <g id="Page-1" stroke="none" stroke-width="1" fill="none" fill-rule="evenodd" sketch:type="MSPage">
        <g id="Artboard-10" sketch:type="MSArtboardGroup" transform="translate(-44.000000, -284.000000)">
            <g id="File-Types-and-Folders-(2)" sketch:type="MSLayerGroup" transform="translate(61.000000, 289.000000)">
                <g id="icons" sketch:type="MSShapeGroup">
                    <g id="XMLID_12677_">
                        <g id="XMLID_25876_">
                            <g id="XMLID_25910_">
                                <path d="M80,32 L80,96 C80,100.4 76.4,104 72,104 L8,104 C3.6,104 0,100.4 0,96 L0,8 C0,3.6 3.6,0 8,0 L48,0 L80,32 L80,32 Z" id="XMLID_12680_" fill="#CBD1D3"></path>
                                <path d="M80,32 L56,32 C51.6,32 48,28.4 48,24 L48,0 L80,32 L80,32 Z" id="XMLID_12679_" fill="#A1A8AF"></path>
                                <path d="M80,32 L80,96 C80,100.4 76.4,104 72,104 L8,104 C3.6,104 0,100.4 0,96 L0,8 C0,3.6 3.6,0 8,0 L48,0" id="XMLID_25919_" stroke="#303338" stroke-width="8"></path>
                                <path d="M57.375,29 C53.86875,29 51,26.13125 51,22.625 L51,3.5 L76.5,29 L57.375,29 Z" id="XMLID_25918_" stroke="#303338" stroke-width="6.2856"></path>
                            </g>
                            <g id="XMLID_26035_" transform="translate(28.000000, 40.000000)" stroke="#303338" stroke-width="8">
                                <path d="M0,20 L12,32 L24,20" id="XMLID_26037_"></path>
                                <path d="M12,0 L12,32" id="XMLID_26036_"></path>
                            </g>
                            <path d="M16,76 L16,84 L64,84 L64,76" id="XMLID_26034_" stroke="#303338" stroke-width="8"></path>
                        </g>
                    </g>
                </g>
            </g>
        </g>
    </g>
</svg>