<svg xmlns="http://www.w3.org/2000/svg" width="917" height="723" viewBox="0 0 917 723"><g fill="none" fill-rule="evenodd"><path d="M0 0h917v723H0z"/><path fill="#0C174F" d="M262.2 707.1c-3.1 0-5.6-2.5-5.6-5.6v-88c0-3.1 2.5-5.6 5.6-5.6h391.7c3.1 0 5.6 2.5 5.6 5.6v88c0 3.1-2.5 5.6-5.6 5.6H262.2z"/><path fill="#FFF" d="M653.9 613.5v88H262.2v-88h391.7zm0-11.1H262.2c-6.2 0-11.2 5-11.2 11.2v88c0 6.2 5 11.2 11.2 11.2h391.7c6.2 0 11.2-5 11.2-11.2v-88c-.1-6.2-5.1-11.2-11.2-11.2z"/><path stroke="#FFF" stroke-width="11.156" d="M254.1 667.4l17.4-21.1s-21.7 44.6-17.4 41.5c4.3-3.1 51.4-69.4 48.3-62-3.1 7.4-57.5 79.3-48.9 75.6 8.6-3.7 66.9-73.8 65.7-68.2-1.2 5.6-19.8 46.5-15.5 40.3 4.3-6.2 55.8-56.4 55.2-52.7-.6 3.7-32.2 57-30.4 55.2 1.9-1.9 53.3-57 59.5-62.6 6.2-5.6-45.9 80-39 71.3 6.9-8.7 55.2-68.8 62.6-65.1 7.4 3.7-22.7 73.4-29.1 70.7-13-5.6 27.3-59.5 48.3-71.9 21-12.4-19.8 74.4-27.3 71.9-7.4-2.5 34.1-69.4 47.1-76.9 13-7.4-5.1 65.4-19.8 69.4-27.3 7.4 26.7-56.4 44.6-65.1 17.9-8.7 2.9 75.1-8.7 75.6-25.4 1.2 20.5-63.2 37.8-74.4 17.4-11.2 24.8 52.1 0 64.5-29.7 14.9 19.1-56.3 22.3-60.1 5.6-6.8 5.7 62.6 0 63.8-14.3 3.1 8.1-48.3 24.8-67.6 16.7-19.3 1.2 56.4-4.3 57.6-5.6 1.2 14.9-46.5 20.5-51.4 5.6-5-2.5 74.4-8.1 71.9s27.3-81.8 37.2-90.5c9.9-8.7-11.8 71.3-19.8 76.9-8.1 5.6 43.4-60.7 52.7-70.7 9.3-9.9-68.8 78.1-60.7 65.7 8.1-12.4 17.4 1.2 28.5-4.3 11.2-5.6 60.1-58.9 65.7-65.7 5.6-6.8-30.4 33.5-29.7 40.3.6 6.8-3.7 35.3-11.2 32.8-7.4-2.5 15.5-29.1 23.6-24.8 8.1 4.3 3.7 25.4 17.9 24.2"/><path fill="#0C174F" d="M324.1 602.2c-1.6 0-3.2-.6-4.3-1.9-1.1-1.3-1.5-2.9-1.2-4.5.3-1.9 33-191.8 23.5-286.3-12.2-121.1-39.2-215.1-39.4-216-.8-2.9.8-6 3.7-6.9L532 15.8c.5-.2 1.1-.3 1.7-.3 1.1 0 2.3.4 3.2 1 1.4 1 2.3 2.6 2.3 4.4 0 1 1.2 24.9 23.4 38.7 7.4 4.6 15.4 6.9 23.7 6.9 11.1 0 18.9-4.2 19-4.2.8-.4 1.7-.7 2.7-.7 1.3 0 2.5.4 3.6 1.3 1.7 1.5 2.4 3.8 1.8 6-.3 1-33.2 104.8-35.7 255.8-2.4 151.4 18.3 269.8 18.5 271 .3 1.6-.2 3.2-1.2 4.5-1.1 1.3-2.6 1.9-4.3 1.9H324.1v.1z"/><path fill="#FFF" d="M533.6 21.2s.9 27.6 26 43.2c9.6 5.9 18.8 7.8 26.7 7.8 12.8 0 21.7-4.9 21.7-4.9s-33.5 103.9-35.9 257.6c-2.5 153.7 18.6 272.3 18.6 272.3H324.1s33.2-191.7 23.6-288C335.3 186.1 308 92.1 308 92.1l225.6-70.9zm0-11.2c-1.1 0-2.2.2-3.3.5L304.7 81.3c-5.8 1.8-9.1 7.9-7.4 13.8.3.9 27.1 94.4 39.3 215 9.4 93.7-23.1 282.9-23.5 284.8-.6 3.2.3 6.7 2.5 9.2 2.1 2.5 5.2 4.1 8.5 4.1h266.5c3.3 0 6.4-1.6 8.6-4.1 2.1-2.5 3-5.9 2.4-9.2-.2-1.2-20.9-119.2-18.4-270 2.4-150.3 35.1-253.2 35.4-254.2 1.4-4.4.1-9.2-3.5-12.1-2-1.7-4.5-2.5-7-2.5-1.8 0-3.7.5-5.4 1.4-.6.3-7.2 3.5-16.4 3.5-7.3 0-14.3-2-20.8-6.1-8.3-5.1-14.3-12.5-17.9-21.9-2.6-6.8-2.9-12.1-2.9-12.2-.1-3.5-1.8-6.7-4.7-8.7-1.8-1.4-4.1-2.1-6.4-2.1z"/><g transform="translate(398 110)"><ellipse cx="53.092" cy="415.687" fill="#E71113" transform="rotate(-110.684 53.092 415.687)" rx="4" ry="5.2"/><g fill="#FFF"><ellipse cx="85.097" cy="312.684" transform="rotate(-110.684 85.097 312.684)" rx="4" ry="5.2"/><path d="M73.1 316.8c0 2.8.8 22.2-12.8 28.4-8.6 3.9-19.5 2.9-29-4.3-9.4-7.1-14.2-17.2-12.9-27.2 1-7.3 4.5-12.4 9.1-13.3 3-.6 6.7-1 11 6.5 1 1.7 1.2 3.8-.5 4.8s-3.2-.7-4.2-2.3c-2-3.4-4.5-3.9-5.2-3.8-1 .2-4.4 3.6-5 8.3-1 7.4 2.8 15.8 10.2 21.3 7.4 5.6 18.2 7.5 24.5 4.8 5.1-2.2 8.2-7.5 9-15.2 1.1-11.3.6-20.9-3.5-26.5.3 1.7.7 4.1-1 4.7-1.8.6-3.8-.8-4.4-2.7-1.1-3.3-3.7-8-9.1-10.6-.9-.2-1.9-.4-2.8-.6-.8-.2-1.7-.3-2.5-.5-1.7-.4-2.9-2-2.7-3.8.2-1.8 1.7-3.1 3.5-3.1 2.6 0 5 .5 7 1.4 10.3 2.5 21.3 8.4 21.3 33.7zM70.4 361c-9.3.4-32.1-2-42.6-6.2-1.8-.7-2.7-2.8-2-4.5.7-1.8 2.8-2.7 4.5-2 9.3 3.7 28.6 7.9 37.1 7.6 1.1 0 7.5 0 7.5 2.6.1 2.5-3.6 2.5-4.5 2.5zM49.6 365.7c-.5 0-.9 0-1.3.2-1.2.2-2.2.4-2.9.6-1.8.6-2.9 2.5-2.3 4.4.6 1.8 4 3.8 5.9 3.2 4.4.5 23.4 12.5 40 28.1.6.5 4.2 2.8 4.4 1.9.2-1.3-3.3-6.2-3.7-6.6-5.3-5-16-15.7-25.4-23.3 2-.1 4.1-.4 6.3-.8 1.9-.4 3.8-2.1 3.9-4.1v-.1c0-1.9-1.7-2.6-3.4-3.5-2.6-1.3-14.4-.9-21.5 0zM75.9 426c-5.7 7.4-13 10.6-22 11-6.7.3-12.7-1.8-18.1-7.5-7-7.4-11.5-16.5-10.8-24.6 1.3-13.3 20.6-12.5 23-12.4 1.9.1 2.4-.1 2.3 1.8-.1 1.9-3.9 1.7-5.8 1.6-5.7-.3-14.1 4.7-14.6 10-.5 5.4 2.9 13.4 9.1 20 2.8 2.9 9.7 7 15.5 6.8 6.9-.3 13-4.5 17.4-10.3 3.3-4.3 4.8-10.2 4-13.9-.9-3.9-2.6-6.9-5.8-8.1-3.4-1.3-6.2-.4-10.3 2.5-1.6 1.1-5.2.4-6.3-1.1-1.1-1.6-1.6-4 0-5.1 6-4.3 11.9-4.1 17.6-1.9 2.9 1.1 7.8 7.4 8.9 15.2.9 6.4-2.4 13.8-4.1 16zM43 78.8c1 2.6-3.9 7.4-6.2 9.2 2.9 10.5 3.8 20.1-.8 20.2-4.3 0 1.3-9.3-3-17.3-5.7 2.7-11.3 3.9-17.3 2.7C7.9 92 1.7 86 .7 77.3c-.9-7.2-.9-17.1 5.5-19.7 9.3-3.7 14.3 1.6 22.1 10.8 3.7 4.3 6.3 7.2 8.1 11.8.5-.6 1.4-1.8 1.8-2.3.8-1.8 3.8-1.8 4.8.9zM6.8 75.1c1.8 5.4 5.9 10.1 10.6 11 5 1 8.8.2 13.4-2.3-1.5-4.2-4.4-7.8-7.7-11.6-4.8-5.6-10.8-9.8-13.6-8.5-4.7 2.3-3.9 7.9-2.7 11.4z"/><circle cx="68.5" cy="10.9" r="4"/><path d="M36.4 127.2c2.6 0 5 1.9 5 4.5s-2.3 4.5-4.9 4.5c-2.6 0-5-1.7-5-4.3 0-2.6 2.3-4.7 4.9-4.7zM75.3 326.5c-1.6 16.7 4.8 45.3 3.5 46.4-.8 1.1-1.3 2.5-1.7 3.7-.6.9-.8 1.9-.5 2.8.7 2.3 4.1 3.3 7.7 2.3 3.6-1 5.9-3.7 5.3-6-.3-.9-.9-1.6-1.8-2-7.7-7.9-8.6-27.1-9-32.5-.2-2.3-.1-10.4-1-14.5-.7-3.3-2.2-3.5-2.5-.2zM39.5 267.4c-.5 10.2 10.3 14.2 15.3 13.7s9.7-4.7 13.5-5.7c3.8-1 10.5 15 10.5 15 7.3 3.5 4.5-2.2 0-14s-15.3-22.2-25.8-23c-10.5-.8-13 3.8-13.5 14zm17.8 1.1c0 2.8-.6 4-2.8 4-2.3 0-5.3-2.9-5.3-5.7 0-2.8 1.8-3.3 4.1-3.3 2.2 0 4 2.3 4 5zM47.1 3.9c0 1.1-2.3 4.1-3.9 6.1-.3.1-.6.3-.9.5-.8.6-1.3 1.5-1.4 2.5-2.2 3-4 6-4.5 9.1-1.6 10.1 8.6 13.6 13.8 15 1.6.4 3.3-.5 3.7-2.1.1-.3.1-.5.1-.8 0-1.3-.9-2.5-2.2-2.9-10.8-3-10.7-6.1-10.3-8.6.2-1.4 1.4-3 2.8-4.7 9.4 10.2 27.4 37.5 26.8 62.4-.5 22.9-13.4 36.8-19.4 43.4-1 1.1-2.6 2.7-3.2 3.4-.8 1-1.1 1.6-.6 2.8.5 1.2 2.7.6 4 .7 5.5.2 19.3 8.5 15.3 17v.2c-6-.9-15.9-1.5-18.4.7-1.4 1.2-1.9 2.1-1.8 3.9.3 4 3.6 9.2 12.7 15.5 3.1 2.2 7.4 4.7 10.6 3 3.4-1.7 5.8-8.2 5.8-8.2 15.3 8.8 27.6 14.2 29.8 14.2 5.1 0 5.3-3.7-12.3-11.3-1.9-.8-12.3-7.3-22.4-15.4 3.1-6.5.4-13.4-3.5-17.6-2.5-2.7-5.5-5.8-9.6-6.9 6.8-7.7 18.5-17.9 18.9-45.4.4-28-20-57.3-28.3-67.9 2.2-3.3 3.2-6.3 3.2-9.1 0-1.6-.1-2.7-1.7-2.7-1.7.2-3 1.5-3.1 3.2zM66 157.5c.7 1.7-1.1 3.3-2.4 3.9-1.3.6-7.6-6.1-8.1-7.2 2.1.1 9.8 1.7 10.5 3.3zM83.4 182.4c-7.1 0-40.8-.4-46.1-.9-5.3-.5-18.3-5.6-17.4-9.5.9-3.9 7-5.8 18.1-2.9 11.1 2.9 42.5 7.8 45.3 8.9 2.9 1.1 3.8 4.3.1 4.4zM66.8 200.8s1.1 3.8 3.1 3.8 3.2-1.4 3.9-2.8c8 0 19.8 5.1 30.3 15.6 3.6 3.6 3.7-2.4 2.1-4.5s-10.7-15-26.6-18c-7-1.3-9.5-.8-10.1-1.8-.6-1.1-1-4.2-3.3-3.8-2.2.4-8 4.8-8.1 6.5-.1 1.7 2.5 4.9 8.7 5zM37.5 193.9c.2 2.8 7.3 21.1 11.7 27.6-2.8 2.3-10.7 8.7-12.1 10.8-1.4 2.1-2.2 10.8 4 6.1 6.2-4.7 11.8-12.5 11.8-12.5s12 18.8 17.4 19.9c5.4 1.2 9-.2 8.7-7-.3-6.8-.1-24.4-13.7-26.3-6.9-1-12.4 4.4-12.4 4.4s-7.4-13.3-9.1-21.1c-1.7-7.9-6.7-5.6-6.3-1.9zM66.6 219c1.4.6 6.4 12.3 7.2 16.7.8 4.4-.3 3.5-1.8 3.3-1.4-.2-12.8-11.5-14.5-14.9 0 0 .3-1.3 2.4-3.9 2.1-2.6 5.2-1.9 6.7-1.2zM30.5 391.2c-2.2 0-3.8-6.3 5.4-6.2 9.2.1 28.3-.8 29.9 0 1.6.8 4.9 2.3 2.1 3.8-2.8 1.5-31.9 2.4-37.4 2.4z"/></g><g transform="translate(80 5)"><g fill="#FFF"><path d="M17.9 141.1h-15v-1.8h15v1.8zM17.9 136.5H7V135h1.7c-.8-.4-1.3-.7-1.5-1-.2-.3-.4-.7-.4-1.1 0-.5.2-1.1.6-1.7l1.7.6c-.3.4-.4.8-.4 1.2 0 .3.1.7.3 1 .2.3.5.5.9.6.7.2 1.5.3 2.2.3h5.7v1.6h.1zM16.6 124c.5.5.9 1.1 1.2 1.7.3.6.4 1.2.4 1.8 0 1-.3 1.8-.8 2.4-.6.6-1.3.9-2.3.9-.6 0-1.2-.1-1.7-.4-.5-.3-.9-.7-1.1-1.2-.2-.5-.5-1.2-.6-2.2-.2-1.3-.4-2.3-.6-2.9h-.5c-.7 0-1.3.1-1.6.4-.4.4-.7 1-.7 1.9 0 .8.1 1.3.4 1.7.3.4.8.7 1.6.8l-.2 1.6c-1.2-.2-2-.7-2.6-1.4-.5-.7-.8-1.7-.8-3 0-1 .2-1.8.5-2.4.4-.6.8-.9 1.3-1.1.5-.2 1.3-.2 2.3-.2h2.5c1.7 0 2.8 0 3.3-.1.4-.1.9-.2 1.3-.4v1.7c-.4.3-.8.4-1.3.4zm-4.2.2c.3.6.5 1.5.7 2.7.1.7.2 1.2.4 1.4.1.3.3.5.6.6.3.2.6.2.9.2.5 0 .9-.2 1.2-.5.3-.3.5-.8.5-1.4 0-.6-.1-1.1-.4-1.6-.3-.5-.7-.8-1.1-1.1-.5-.2-1.1-.4-2-.4h-.8v.1zM17.9 120H7v-1.5h1.5c-.6-.4-1-.8-1.3-1.3-.3-.5-.4-1.1-.4-1.8 0-.5.1-1 .3-1.4.2-.4.4-.8.7-1.1.3-.3.7-.5 1.2-.6.5-.1 1.2-.2 2.2-.2h6.7v1.6h-6.6c-.8 0-1.4.1-1.8.2-.4.1-.7.4-.9.7-.2.3-.3.7-.3 1.1 0 .8.3 1.4.8 1.9s1.5.7 2.8.7h6v1.7zM17.9 101.9l-15 3.5v-1.8l9.9-2c1-.2 2-.4 3.1-.6l-2.8-.6-10.2-2.5v-2.1l7.6-1.9c1.9-.5 3.6-.8 5.3-1-1-.2-2.1-.4-3.3-.7l-9.7-2.1v-1.8l15 3.7v1.7L6.3 96.5l-1.8.4c.7.1 1.2.3 1.8.4l11.5 2.8v1.8h.1zM14.4 80.7l.2-1.7c1.2.3 2 .8 2.6 1.5.6.7.9 1.6.9 2.7 0 1.4-.5 2.5-1.4 3.3-1 .8-2.3 1.3-4.2 1.3-1.9 0-3.3-.4-4.3-1.3s-1.5-1.9-1.5-3.2c0-1.2.5-2.3 1.5-3.1 1-.8 2.4-1.3 4.2-1.3h.5v7.2c1.2-.1 2.1-.4 2.8-.9.6-.5.9-1.2.9-2 0-1.2-.7-2-2.2-2.5zm-3 5.4v-5.4c-.9.1-1.6.3-2.1.7-.7.5-1 1.2-1 2 0 .7.3 1.4.8 1.9.6.4 1.3.7 2.3.8zM17.9 75.5V77h-15v-1.6h5.4c-.5-.3-.9-.7-1.1-1.2-.2-.4-.4-.9-.4-1.5 0-.8.2-1.4.6-2.1.4-.7 1-1.1 1.9-1.5.8-.4 1.9-.6 3.1-.6 1.8 0 3.3.4 4.3 1.3 1 .8 1.5 1.8 1.5 2.9 0 .6-.1 1.1-.4 1.5-.3.4-.7.8-1.2 1.2h1.3v.1zm-5.5 0c1.1 0 2-.1 2.5-.3.5-.2 1-.5 1.3-.9.3-.4.4-.9.4-1.4 0-.7-.4-1.3-1.1-1.8-.7-.5-1.7-.8-3.1-.8-1.4 0-2.5.3-3.1.8-.6.5-1 1.1-1 1.9 0 .7.4 1.3 1.1 1.8.6.4 1.6.7 3 .7zM17.9 61.1h-15v-9h1.8v7.2h4.7v-6.2h1.8v6.2H18v1.8h-.1zM14.4 43.5l.2-1.7c1.2.3 2 .8 2.6 1.5.6.7.9 1.6.9 2.7 0 1.4-.5 2.5-1.4 3.3-1 .8-2.3 1.3-4.2 1.3-1.9 0-3.3-.4-4.3-1.3s-1.5-1.9-1.5-3.2c0-1.2.5-2.3 1.5-3.1 1-.8 2.4-1.3 4.2-1.3h.5v7.2c1.2-.1 2.1-.4 2.8-.9.6-.5.9-1.2.9-2 0-1.1-.7-2-2.2-2.5zm-3 5.4v-5.4c-.9.1-1.6.3-2.1.7-.7.5-1 1.2-1 2 0 .7.3 1.4.8 1.9.6.5 1.3.7 2.3.8zM14.6 40.4l-.3-1.6c.8-.1 1.3-.4 1.7-.8.4-.4.6-1 .6-1.7s-.2-1.3-.5-1.6c-.3-.4-.7-.6-1.2-.6-.4 0-.8.2-1 .5-.2.2-.4.8-.6 1.7-.4 1.3-.7 2.1-.9 2.5-.3.4-.6.8-1 1-.4.2-.9.4-1.4.4-.9 0-1.7-.3-2.3-1-.6-.7-.9-1.5-.9-2.7 0-.7.1-1.3.4-1.9.2-.5.6-1 1-1.2.4-.3 1-.5 1.7-.6l.2 1.6c-1.2.1-1.8.8-1.8 2.1 0 .7.1 1.2.4 1.6.3.3.6.5 1 .5s.7-.2.9-.5c.1-.2.4-.8.7-1.8.4-1.4.7-2.2 1-2.6.2-.4.6-.7 1-.9.4-.2.9-.3 1.5-.3 1 0 1.9.4 2.5 1.1.6.7 1 1.7 1 2.9-.2 2.2-1.3 3.5-3.7 3.9zM16.2 26.9l1.6-.2c.1.4.2.9.2 1.2 0 .6-.1 1-.3 1.4-.2.3-.5.6-.9.7-.4.1-1.1.2-2.2.2H8.3v1.2H7v-1.2H4.3l-1.1-1.6H7V27h1.4v1.6h6.4c.6 0 1 0 1.1-.1.2-.1.4-.4.4-.8 0-.3 0-.5-.1-.8zM5 25.3H2.9v-1.6H5v1.6zm12.9 0H7v-1.6h10.9v1.6zM17.9 18.5L7 22.2v-1.7l6.5-2.1c.7-.2 1.5-.4 2.2-.6-.6-.1-1.3-.3-2.1-.6L7 15v-1.7L17.9 17v1.5zM16.6 5.6c.5.5.9 1.1 1.2 1.7.3.6.4 1.2.4 1.8 0 1-.3 1.8-.8 2.4-.6.6-1.3.9-2.3.9-.6 0-1.2-.1-1.7-.4-.5-.3-.9-.7-1.1-1.2-.2-.5-.5-1.2-.6-2.2-.2-1.3-.4-2.3-.6-2.9h-.5c-.7 0-1.3.1-1.6.4-.4.4-.7 1-.7 1.9 0 .8.1 1.3.4 1.7.3.4.8.7 1.6.8l-.2 1.6c-1.2-.2-2-.7-2.6-1.4-.5-.7-.8-1.7-.8-3 0-1 .2-1.8.5-2.4.4-.6.8-.9 1.3-1.1C9 4 9.8 4 10.8 4h2.5c1.7 0 2.8 0 3.3-.1.4-.1.9-.2 1.3-.4v1.7c-.4.3-.8.4-1.3.4zm-4.2.2c.3.6.5 1.5.7 2.7.1.7.2 1.2.4 1.4.1.3.3.5.6.6.3.2.6.2.9.2.5 0 .9-.2 1.2-.5.3-.3.5-.8.5-1.4 0-.6-.1-1.1-.4-1.6-.3-.5-.7-.8-1.1-1.1-.5-.2-1.1-.4-2-.4h-.8v.1zM17.9 1.6h-15V0h15v1.6z"/></g><ellipse cx="3.501" cy="23.947" fill="#E71113" transform="rotate(-65.688 3.5 23.947)" rx="1.6" ry="2.5"/></g></g></g></svg>