<svg id="Layer_1" data-name="Layer 1" xmlns="http://www.w3.org/2000/svg" viewBox="0 0 141.73 141.73"><defs><style>.cls-1{fill:#96bee6;}.cls-1,.cls-10,.cls-12,.cls-16,.cls-19,.cls-2,.cls-21,.cls-3,.cls-4,.cls-5,.cls-6,.cls-7,.cls-8,.cls-9{fill-rule:evenodd;}.cls-10,.cls-2,.cls-6,.cls-9{fill:#fbfbfc;}.cls-10,.cls-11,.cls-12,.cls-13,.cls-14,.cls-15,.cls-17,.cls-18,.cls-19,.cls-2,.cls-21,.cls-4,.cls-5,.cls-6,.cls-8{stroke:#255c94;}.cls-10,.cls-11,.cls-12,.cls-13,.cls-14,.cls-15,.cls-17,.cls-18,.cls-19,.cls-2,.cls-3,.cls-4,.cls-5,.cls-6,.cls-8{stroke-linecap:round;}.cls-10,.cls-12,.cls-13,.cls-14,.cls-15,.cls-17,.cls-18,.cls-19,.cls-2,.cls-3,.cls-4,.cls-5,.cls-6,.cls-8{stroke-linejoin:round;}.cls-2{stroke-width:1.26px;}.cls-11,.cls-12,.cls-13,.cls-14,.cls-15,.cls-17,.cls-18,.cls-19,.cls-21,.cls-22,.cls-3,.cls-4,.cls-5{fill:none;}.cls-3{stroke:#285d93;}.cls-11,.cls-3,.cls-5,.cls-8{stroke-width:1.19px;}.cls-17,.cls-4{stroke-width:1.19px;}.cls-6{stroke-width:1.26px;}.cls-20,.cls-7{fill:#255c94;}.cls-8{fill:#d9dada;}.cls-10{stroke-width:1.26px;}.cls-11,.cls-21{stroke-miterlimit:22.93;}.cls-12{stroke-width:1.19px;}.cls-13{stroke-width:0.92px;}.cls-14{stroke-width:0.92px;}.cls-15{stroke-width:0.95px;}.cls-16{fill:#cde4f7;}.cls-18{stroke-width:1.19px;}.cls-19{stroke-width:0.91px;}.cls-21{stroke-width:0.89px;}</style></defs><title>01</title><path class="cls-1" d="M161.79,146.07h45.83a15,15,0,0,1,15,15h0a15,15,0,0,1-15,15H196.93v5.52H222A5.52,5.52,0,0,1,227.5,187h0a5.61,5.61,0,0,1-5.51,5.6h-11.8a3.3,3.3,0,0,0-3.28,3.28h0a3.29,3.29,0,0,0,3.28,3.28h1.42a5.52,5.52,0,0,1,5.51,5.51h0a5.52,5.52,0,0,1-5.51,5.51H141.33a15,15,0,0,1-15-15h0a15,15,0,0,1,15-15h2.5a2.14,2.14,0,0,0,2.13-2.13h0a2.14,2.14,0,0,0-2.13-2.13h-4.16a8.3,8.3,0,0,1-8.28-8.28h0a8.3,8.3,0,0,1,8.28-8.28h12.51v-6.69h-3.68a3.36,3.36,0,0,1-3.35-3.35h0a3.36,3.36,0,0,1,3.35-3.35h13.3Z" transform="translate(-107.8 -106.41)"/><path class="cls-2" d="M144.07,165.38a9.66,9.66,0,1,0-9.66-9.66A9.68,9.68,0,0,0,144.07,165.38Z" transform="translate(-107.8 -106.41)"/><path class="cls-3" d="M222.74,170.72a44.1,44.1,0,0,1,.29,5q0,1.5-.1,3" transform="translate(-107.8 -106.41)"/><path class="cls-4" d="M162.5,134.78a44.12,44.12,0,0,1,42.71,5.53" transform="translate(-107.8 -106.41)"/><path class="cls-5" d="M202.87,212.78a44.12,44.12,0,0,1-24,7.08q-1.79,0-3.58-.15" transform="translate(-107.8 -106.41)"/><path class="cls-5" d="M168.18,218.53a44.12,44.12,0,0,1-10.24-4" transform="translate(-107.8 -106.41)"/><path class="cls-1" d="M211.19,135h14.72a0.73,0.73,0,0,0,.66-0.73h0a0.73,0.73,0,0,0-.66-0.73H219a2.34,2.34,0,0,1-2.33-2.33h0a2.34,2.34,0,0,1,2.33-2.33h19.34a2.34,2.34,0,0,1,2.33,2.33h0a2.34,2.34,0,0,1-2.33,2.33h-6.65a0.73,0.73,0,0,0-.73.73h0a0.73,0.73,0,0,0,.73.73h1.91a3,3,0,0,1,3,3h0a3,3,0,0,1-3,3H211.19a3,3,0,0,1-3-3h0A3,3,0,0,1,211.19,135Z" transform="translate(-107.8 -106.41)"/><polygon class="cls-6" points="57.17 72 44.63 64.86 111.71 54.86 57.17 72"/><polygon class="cls-7" points="64.7 70.23 59.25 85.28 71.9 81.03 64.7 70.23"/><polygon class="cls-8" points="57.17 72 111.18 54.94 67.76 74.97 59.05 84.72 57.17 72"/><path class="cls-7" d="M192.75,153.34l-16.11,5.25a2.44,2.44,0,0,0-1.34,2.2v21.15l18.8-8.33V154.35A1,1,0,0,0,192.75,153.34Z" transform="translate(-107.8 -106.41)"/><polygon class="cls-9" points="68.41 58.86 85.48 53.63 85.48 66.61 68.41 73.9 68.41 58.86"/><polygon class="cls-10" points="67.86 74.85 82.73 94.3 111.71 54.86 67.86 74.85"/><line class="cls-11" x1="52.73" y1="81.05" x2="34.54" y2="86.6"/><line class="cls-11" x1="65.07" y1="89.76" x2="46.88" y2="95.31"/><path class="cls-12" d="M161.31,193l-29.61,9.88Z" transform="translate(-107.8 -106.41)"/><path class="cls-5" d="M128,204.39l-6.19,2.07Z" transform="translate(-107.8 -106.41)"/><line class="cls-13" x1="81.69" y1="59.09" x2="83.67" y2="58.49"/><line class="cls-14" x1="77.87" y1="60.27" x2="79.85" y2="59.66"/><line class="cls-14" x1="74.05" y1="61.45" x2="76.02" y2="60.84"/><line class="cls-14" x1="70.22" y1="62.62" x2="72.2" y2="62.01"/><line class="cls-15" x1="70.22" y1="65.95" x2="77.5" y2="63.7"/><path class="cls-4" d="M149,143.32a44.12,44.12,0,0,1,7.3-5.46" transform="translate(-107.8 -106.41)"/><path class="cls-4" d="M136.67,188.5a44.12,44.12,0,0,1-.81-22.45" transform="translate(-107.8 -106.41)"/><path class="cls-1" d="M121,156.8h7.86a0.39,0.39,0,0,0,.35-0.39h0a0.39,0.39,0,0,0-.35-0.39H126a1.25,1.25,0,0,1-1.25-1.25h0a1.25,1.25,0,0,1,1.25-1.25h10.33a1.25,1.25,0,0,1,1.25,1.25h0a1.25,1.25,0,0,1-1.25,1.25h-4.45a0.39,0.39,0,0,0-.39.39h0a0.39,0.39,0,0,0,.39.39h1.92a1.61,1.61,0,0,1,1.6,1.6h0a1.61,1.61,0,0,1-1.6,1.6H121a1.61,1.61,0,0,1-1.6-1.6h0A1.61,1.61,0,0,1,121,156.8Z" transform="translate(-107.8 -106.41)"/><path class="cls-1" d="M212.21,222.45h7.86a0.39,0.39,0,0,0,.35-0.39h0a0.39,0.39,0,0,0-.35-0.39h-2.79a1.25,1.25,0,0,1-1.25-1.25h0a1.25,1.25,0,0,1,1.25-1.25h10.33a1.25,1.25,0,0,1,1.25,1.25h0a1.25,1.25,0,0,1-1.25,1.25h-4.45a0.39,0.39,0,0,0-.39.39h0a0.39,0.39,0,0,0,.39.39h1.92a1.61,1.61,0,0,1,1.6,1.6h0a1.61,1.61,0,0,1-1.6,1.6H212.21a1.61,1.61,0,0,1-1.6-1.6h0A1.61,1.61,0,0,1,212.21,222.45Z" transform="translate(-107.8 -106.41)"/><path class="cls-16" d="M144.07,150.3h-2.64a1.94,1.94,0,0,1-2.49,1.49,24.65,24.65,0,0,0,0,3.11c0.24,3.29,2.26,5.37,5.12,7.16,2.86-1.79,4.88-3.87,5.12-7.16a24.69,24.69,0,0,0,0-3.11,1.94,1.94,0,0,1-2.49-1.49h-2.64Z" transform="translate(-107.8 -106.41)"/><line class="cls-17" x1="42.7" y1="79.99" x2="42.7" y2="77.69"/><line class="cls-18" x1="41.55" y1="78.84" x2="43.85" y2="78.84"/><line class="cls-17" x1="42.96" y1="111.8" x2="42.96" y2="109.09"/><line class="cls-18" x1="41.6" y1="110.44" x2="44.31" y2="110.44"/><line class="cls-17" x1="26.06" y1="102.91" x2="26.06" y2="100.6"/><line class="cls-18" x1="24.91" y1="101.75" x2="27.21" y2="101.75"/><line class="cls-18" x1="22.09" y1="85.78" x2="22.09" y2="83.93"/><line class="cls-18" x1="21.17" y1="84.86" x2="23.02" y2="84.86"/><line class="cls-18" x1="9.47" y1="93.19" x2="9.47" y2="91.96"/><line class="cls-17" x1="8.86" y1="92.58" x2="10.08" y2="92.58"/><line class="cls-18" x1="13.37" y1="118.45" x2="13.37" y2="117.22"/><line class="cls-17" x1="12.76" y1="117.84" x2="13.98" y2="117.84"/><line class="cls-17" x1="13.27" y1="80.69" x2="13.27" y2="78.39"/><line class="cls-17" x1="12.12" y1="79.54" x2="14.42" y2="79.54"/><line class="cls-17" x1="30.22" y1="113.15" x2="30.22" y2="111.92"/><line class="cls-17" x1="29.6" y1="112.53" x2="30.83" y2="112.53"/><path class="cls-19" d="M144.07,150.3h2.64a1.94,1.94,0,0,0,2.49,1.49,24.69,24.69,0,0,1,0,3.11c-0.24,3.29-2.26,5.37-5.12,7.16-2.86-1.79-4.88-3.87-5.12-7.16a24.68,24.68,0,0,1,0-3.11,1.94,1.94,0,0,0,2.49-1.49h2.64Z" transform="translate(-107.8 -106.41)"/><rect class="cls-20" x="34.18" y="48.48" width="4.18" height="3.2" rx="0.31" ry="0.31"/><path class="cls-21" d="M142.89,154.9h2.35v-1.54a0.55,0.55,0,0,0-.55-0.55h-1.25a0.55,0.55,0,0,0-.55.55v1.54Z" transform="translate(-107.8 -106.41)"/><path class="cls-16" d="M144.07,155.82a0.36,0.36,0,0,1,.16.67h0v0.59a0.16,0.16,0,0,1-.16.16h0a0.16,0.16,0,0,1-.16-0.16V156.5h0A0.36,0.36,0,0,1,144.07,155.82Z" transform="translate(-107.8 -106.41)"/><rect class="cls-22" width="141.73" height="141.73"/></svg>