<svg id="Layer_1" data-name="Layer 1" xmlns="http://www.w3.org/2000/svg" viewBox="0 0 141.73 141.73"><defs><style>.cls-1,.cls-11,.cls-14,.cls-15,.cls-16,.cls-17,.cls-6,.cls-7{fill:none;}.cls-13,.cls-2{fill:#fcd353;}.cls-12,.cls-16,.cls-17,.cls-18,.cls-2,.cls-3,.cls-4,.cls-5,.cls-7,.cls-8,.cls-9{fill-rule:evenodd;}.cls-3{fill:#96bee6;}.cls-10,.cls-12,.cls-3,.cls-4,.cls-5,.cls-6,.cls-7,.cls-9{stroke:#285d93;stroke-width:1.19px;}.cls-10,.cls-11,.cls-12,.cls-14,.cls-15,.cls-16,.cls-17,.cls-3,.cls-4,.cls-5,.cls-6,.cls-7,.cls-9{stroke-linecap:round;stroke-linejoin:round;}.cls-4{fill:#fbfbfc;}.cls-10,.cls-5{fill:#fff;}.cls-8{fill:#285d93;}.cls-9{fill:#e1e2e1;}.cls-11,.cls-14,.cls-15,.cls-16,.cls-17{stroke:#255c94;}.cls-11{stroke-width:1.32px;}.cls-12{fill:#fdc73d;}.cls-14,.cls-16{stroke-width:1.21px;}.cls-15{stroke-width:1.21px;}.cls-17{stroke-width:1.21px;}.cls-18{fill:#fab63c;}</style></defs><title>02</title><rect class="cls-1" width="141.73" height="141.73"/><path class="cls-2" d="M420.22,134.88H456a4.12,4.12,0,0,1,4.11,4.11h0a4.12,4.12,0,0,1-4.11,4.11h-0.59a2.7,2.7,0,0,0-2.69,2.69h0a2.7,2.7,0,0,0,2.69,2.69h14a4.12,4.12,0,0,1,4.11,4.11h0a4.12,4.12,0,0,1-4.11,4.11H463a2.7,2.7,0,0,0-2.69,2.69h0a2.7,2.7,0,0,0,2.69,2.69h0.44a4.12,4.12,0,0,1,4.11,4.11h0a4.12,4.12,0,0,1-4.11,4.11h-1a42.91,42.91,0,0,1-39.53,50.27,4.09,4.09,0,0,1-.84.09H387.23a4.12,4.12,0,0,1-4.11-4.11h0a4.12,4.12,0,0,1,4.11-4.11h10.68a3.74,3.74,0,0,0,3.73-3.73h0c0-2-5.78-3.73-3.73-3.73H368.55a4.12,4.12,0,0,1-4.11-4.11h0a4.12,4.12,0,0,1,4.11-4.11h11.51a2.7,2.7,0,0,0,2.69-2.69h0a2.7,2.7,0,0,0-2.69-2.69h-3.76a4.12,4.12,0,0,1-4.11-4.11h0a4.12,4.12,0,0,1,4.11-4.11h1.37A42.91,42.91,0,0,1,420.22,134.88Z" transform="translate(-345.74 -106.41)"/><path class="cls-3" d="M375.36,155.46l72.32-3.18a2.31,2.31,0,0,0,2.19-2.35h0a2.21,2.21,0,0,0-2.3-2.15L375.25,151a2.31,2.31,0,0,0-2.19,2.35h0A2.21,2.21,0,0,0,375.36,155.46Z" transform="translate(-345.74 -106.41)"/><path class="cls-3" d="M375.18,196.35l7.59-.1a14,14,0,0,1,0-4.51l-7.67.11a2.27,2.27,0,0,0-2.23,2.28h0a2.25,2.25,0,0,0,2.27,2.22h0Zm35-.48,15.9-.22a13.92,13.92,0,0,1,.24-4.51l-16.31.22a14,14,0,0,1,.17,4.5h0Zm43.45-.6,12.87-.18a2.27,2.27,0,0,0,2.23-2.28h0a2.25,2.25,0,0,0-2.27-2.22l-13.19.18a13.87,13.87,0,0,1,.41,3.36C453.67,194.52,453.66,194.89,453.63,195.27Z" transform="translate(-345.74 -106.41)"/><path class="cls-4" d="M375.14,191.84l0.22-36.38,72.32-3.18,3.92,16.93,13.74,8.56,0.18,12.82-12.25.17a13.84,13.84,0,0,0-26.94.37l-16.31.22a13.84,13.84,0,0,0-27.2.37Z" transform="translate(-345.74 -106.41)"/><polygon class="cls-5" points="82.35 50.94 95.57 50.23 99.47 63.55 82.35 63.55 82.35 50.94"/><line class="cls-6" x1="82.5" y1="67.72" x2="86.56" y2="67.72"/><line class="cls-6" x1="80.44" y1="84.73" x2="80.44" y2="75.94"/><line class="cls-6" x1="39.61" y1="70.64" x2="42.18" y2="70.64"/><line class="cls-6" x1="14.4" y1="70.64" x2="37.71" y2="70.64"/><line class="cls-6" x1="36.45" y1="75.11" x2="39.03" y2="75.11"/><line class="cls-6" x1="11.25" y1="75.11" x2="34.56" y2="75.11"/><line class="cls-6" x1="84.65" y1="53.44" x2="89.98" y2="58.86"/><line class="cls-6" x1="93.29" y1="58.46" x2="93.71" y2="58.89"/><line class="cls-6" x1="88.38" y1="53.48" x2="91.96" y2="57.12"/><path class="cls-7" d="M402.21,175.81a28,28,0,0,1-8.62-14.89,39.16,39.16,0,0,1,15.67-.81A28,28,0,0,1,402.21,175.81Z" transform="translate(-345.74 -106.41)"/><path class="cls-7" d="M402,171.77a25.13,25.13,0,0,0,4.07-9.29,36.62,36.62,0,0,0-9.07.47A25.14,25.14,0,0,0,402,171.77Z" transform="translate(-345.74 -106.41)"/><path class="cls-8" d="M401.52,162.43a36.43,36.43,0,0,0-4.52.52,25.14,25.14,0,0,0,5,8.83Z" transform="translate(-345.74 -106.41)"/><path class="cls-9" d="M396.44,205.28a11.15,11.15,0,1,0-11.15-11.15A11.17,11.17,0,0,0,396.44,205.28Z" transform="translate(-345.74 -106.41)"/><circle class="cls-10" cx="50.7" cy="87.72" r="5.01"/><line class="cls-11" x1="52.07" y1="89.09" x2="49.33" y2="86.35"/><line class="cls-11" x1="49.33" y1="89.09" x2="52.07" y2="86.35"/><path class="cls-9" d="M439.83,205.28a11.15,11.15,0,1,0-11.15-11.15A11.17,11.17,0,0,0,439.83,205.28Z" transform="translate(-345.74 -106.41)"/><circle class="cls-10" cx="94.09" cy="87.72" r="5.01"/><line class="cls-11" x1="95.46" y1="89.09" x2="92.72" y2="86.35"/><line class="cls-11" x1="92.72" y1="89.09" x2="95.46" y2="86.35"/><path class="cls-12" d="M465.38,181h-1.74a2.36,2.36,0,0,0-2.35,2.35h0a2.36,2.36,0,0,0,2.35,2.35h1.74V181Z" transform="translate(-345.74 -106.41)"/><circle class="cls-13" cx="29.61" cy="110.13" r="4.1"/><circle class="cls-13" cx="122.36" cy="32.57" r="4.1"/><line class="cls-14" x1="10.04" y1="94.58" x2="10.04" y2="92.22"/><line class="cls-15" x1="8.86" y1="93.4" x2="11.21" y2="93.4"/><line class="cls-15" x1="22.92" y1="67.5" x2="22.92" y2="65.6"/><line class="cls-14" x1="21.98" y1="66.55" x2="23.87" y2="66.55"/><line class="cls-14" x1="21.79" y1="87.99" x2="21.79" y2="86.09"/><line class="cls-15" x1="20.84" y1="87.04" x2="22.73" y2="87.04"/><line class="cls-15" x1="20.59" y1="104.07" x2="20.59" y2="102.18"/><line class="cls-15" x1="19.64" y1="103.12" x2="21.53" y2="103.12"/><line class="cls-14" x1="19.16" y1="116.77" x2="19.16" y2="114.87"/><line class="cls-15" x1="18.21" y1="115.82" x2="20.11" y2="115.82"/><line class="cls-15" x1="17.96" y1="48.91" x2="17.96" y2="47.02"/><line class="cls-14" x1="17.01" y1="47.97" x2="18.91" y2="47.97"/><path class="cls-16" d="M404,134.48a45.13,45.13,0,0,1,43.7,5.66" transform="translate(-345.74 -106.41)"/><path class="cls-17" d="M453.35,211.19a45.13,45.13,0,0,1-52.24,6.7" transform="translate(-345.74 -106.41)"/><path class="cls-16" d="M390.14,143.21a45.13,45.13,0,0,1,7.46-5.58" transform="translate(-345.74 -106.41)"/><path class="cls-18" d="M370.72,140.08h8a0.4,0.4,0,0,0,.36-0.4h0a0.4,0.4,0,0,0-.36-0.4H375.9a1.28,1.28,0,0,1-1.28-1.28h0a1.28,1.28,0,0,1,1.28-1.28h10.57a1.28,1.28,0,0,1,1.28,1.28h0a1.28,1.28,0,0,1-1.28,1.28h-4.55a0.4,0.4,0,0,0-.4.4h0a0.4,0.4,0,0,0,.4.4h2a1.64,1.64,0,0,1,1.64,1.64h0a1.64,1.64,0,0,1-1.64,1.64H370.72a1.64,1.64,0,0,1-1.64-1.64h0A1.64,1.64,0,0,1,370.72,140.08Z" transform="translate(-345.74 -106.41)"/><path class="cls-18" d="M461.59,205h8a0.4,0.4,0,0,0,.36-0.4h0a0.4,0.4,0,0,0-.36-0.4h-2.86a1.28,1.28,0,0,1-1.28-1.28h0a1.28,1.28,0,0,1,1.28-1.28h10.57a1.28,1.28,0,0,1,1.28,1.28h0a1.28,1.28,0,0,1-1.28,1.28h-4.55a0.4,0.4,0,0,0-.4.4h0a0.4,0.4,0,0,0,.4.4h2a1.64,1.64,0,0,1,1.64,1.64h0a1.64,1.64,0,0,1-1.64,1.64H461.59a1.64,1.64,0,0,1-1.64-1.64h0A1.64,1.64,0,0,1,461.59,205Z" transform="translate(-345.74 -106.41)"/><line class="cls-6" x1="13.64" y1="79.14" x2="18.52" y2="79.14"/><line class="cls-6" x1="31.82" y1="103.36" x2="36.7" y2="103.36"/><line class="cls-6" x1="14.24" y1="54.5" x2="20.52" y2="54.5"/><line class="cls-6" x1="36.32" y1="98.87" x2="57.66" y2="98.87"/><line class="cls-6" x1="84.07" y1="98.87" x2="99.72" y2="98.87"/></svg>