<?xml version="1.0" encoding="UTF-8" standalone="no"?>
<svg width="194px" height="153px" viewBox="0 0 194 153" version="1.1" xmlns="http://www.w3.org/2000/svg" xmlns:xlink="http://www.w3.org/1999/xlink" xmlns:sketch="http://www.bohemiancoding.com/sketch/ns">
    <!-- Generator: Sketch 3.4.2 (15857) - http://www.bohemiancoding.com/sketch -->
    <title>zarinpal</title>
    <desc>Created with Sketch.</desc>
    <defs>
        <path id="path-1" d="M77.5,53.4 L102.8,33.9 C104.2,32.8 106.3,33.1 107.4,34.5 L118.6,49 C119.7,50.4 119.4,52.5 118,53.6 L92.7,73.1 C91.3,74.2 89.2,73.9 88.1,72.5 L76.9,58 C75.8,56.6 76.1,54.5 77.5,53.4 L77.5,53.4 Z"></path>
    </defs>
    <g id="Page-1" stroke="none" stroke-width="1" fill="none" fill-rule="evenodd" sketch:type="MSPage">
        <g id="Artboard-9" sketch:type="MSArtboardGroup" transform="translate(-1795.000000, -1466.000000)">
            <g id="zarinpal" sketch:type="MSLayerGroup" transform="translate(1795.000000, 1466.000000)">
                <g id="Layer_1">
                    <g id="Group">
                        <path d="M154.4,94.7 L138.9,94.7 C133.5,94.7 133.3,92.9 133.3,88 C133.3,84.4 131.9,83.2 128.8,83.2 C127.4,83.2 126.3,82.1 126.3,80.7 L126.3,80.7 C126.3,79.3 127.4,78.2 128.8,78.2 L133.3,78.2 L141.2,78.2 C146.6,78.2 151,73.8 151,68.4 L151,68.4 C151,63 146.6,58.6 141.2,58.6 L159.1,58.6 C164.8,58.6 169.5,53.9 169.5,48.2 L169.5,48.2 C169.5,42.5 164.8,37.8 159.1,37.8 L145.4,37.8 L142,37.8 L142.4,37.8 C140.5,37.6 139.1,36 139.1,34.1 L139.1,34.1 C139.1,32.2 140.6,30.6 142.4,30.4 L142,30.4 L145.4,30.4 L146.1,30.4 C151,30.4 155,26.4 155,21.5 L155,21.5 C155,16.6 151,12.6 146.1,12.6 L133.3,12.6 L131.7,12.6 L76.2,12.6 L74.6,12.6 L73.7,12.6 L31.9,12.6 C25.9,12.6 21,17.5 21,23.5 L21,23.5 C21,29.5 25.9,34.4 31.9,34.4 C34.2,34.4 36,35.6 36,38.1 L36,38.1 C36,40.1 34.3,41.8 32.3,41.8 L31.6,41.8 L18.1,41.8 C11.3,41.8 5.7,47.4 5.7,54.2 L5.7,54.2 C5.7,61 11.3,66.6 18.1,66.6 L47.9,66.6 C42.2,66.6 37.6,71.3 37.6,76.9 L37.6,76.9 C37.6,82.6 42.3,87.2 47.9,87.2 L49.3,87.2 L55.7,87.2 C57.4,87.2 58.9,88.7 58.9,90.4 L58.9,90.4 C58.9,92.1 57.5,93.6 55.7,93.6 L52.3,93.6 C46.5,93.9 41.6,99.3 41.6,105.1 L41.6,105.1 C41.6,108.5 43.1,111.5 45.4,113.6 L41.7,113.6 C37.4,113.6 33.9,117.1 33.9,121.4 L33.9,121.4 C33.9,125.7 37.4,129.2 41.7,129.2 L45.3,129.2 L58.4,129.2 L59.3,129.2 C62.4,129.6 64.7,132.3 64.7,135.5 L64.7,135.5 C64.7,137.1 64,138.5 64,140.6 L64,140.6 C64,146.9 69.2,152.1 75.5,152.1 L121.3,152.1 C127.6,152.1 132.8,146.9 132.8,140.6 L132.8,140.6 C132.8,134.3 127.6,129.1 121.3,129.1 L120.7,129.1 C117.5,129.1 115,126.5 115,123.4 L115,123.4 C115,120.2 117.6,117.7 120.7,117.7 L149,117.7 L154.4,117.7 C160.7,117.7 165.9,112.5 165.9,106.2 L165.9,106.2 C165.8,99.9 160.7,94.7 154.4,94.7 L154.4,94.7 Z" id="XMLID_70_" fill="#FFFFFF" sketch:type="MSShapeGroup"></path>
                        <path d="M171.5,35.2 L166.9,35.2 C163.8,35.2 161.2,32.6 161.2,29.5 L161.2,29.5 C161.2,26.4 163.8,23.8 166.9,23.8 L171.5,23.8 C174.6,23.8 177.2,26.4 177.2,29.5 L177.2,29.5 C177.1,32.6 174.6,35.2 171.5,35.2 L171.5,35.2 Z" id="XMLID_69_" fill="#FFFFFF" sketch:type="MSShapeGroup"></path>
                        <path d="M30.4,108.8 L18.9,108.8 C14.8,108.8 11.4,105.4 11.4,101.3 L11.4,101.3 C11.4,97.2 14.8,93.8 18.9,93.8 L30.4,93.8 C34.5,93.8 37.9,97.2 37.9,101.3 L37.9,101.3 C37.9,105.4 34.6,108.8 30.4,108.8 L30.4,108.8 Z" id="XMLID_68_" fill="#FFFFFF" sketch:type="MSShapeGroup"></path>
                        <path d="M150.4,89.4 C152.4,89.4 154,87.8 154,85.8 C154,83.8 152.4,82.2 150.4,82.2 C148.4,82.2 146.8,83.8 146.8,85.8 C146.8,87.8 148.4,89.4 150.4,89.4 L150.4,89.4 Z" id="XMLID_67_" fill="#FFFFFF" sketch:type="MSShapeGroup"></path>
                        <path d="M143.5,22.5 C143.1,22.1 143.1,21.5 143.5,21.1 C143.9,20.7 144.5,20.7 144.9,21.1 C151.9,28 157.4,36.1 161.1,44.9 C164.8,53.8 166.8,63.4 166.8,73.2 C166.8,75.9 166.6,78.6 166.4,81.3 C166.3,81.8 165.9,82.2 165.3,82.2 C164.8,82.1 164.4,81.7 164.4,81.1 C164.7,78.5 164.8,75.9 164.8,73.2 C164.8,63.7 162.9,54.3 159.3,45.7 C155.7,37.1 150.4,29.2 143.5,22.5 L143.5,22.5 Z" id="XMLID_66_" fill="#FDB913" sketch:type="MSShapeGroup"></path>
                        <path d="M160,99.1 C160.2,98.6 160.8,98.4 161.2,98.6 C161.7,98.8 161.9,99.4 161.7,99.8 C160.1,103.9 158.1,107.9 155.8,111.6 C153.5,115.3 150.8,118.9 147.8,122.2 C147.4,122.6 146.8,122.6 146.4,122.3 C146,121.9 146,121.3 146.3,120.9 C149.2,117.7 151.8,114.3 154,110.6 C156.5,107 158.4,103.1 160,99.1 L160,99.1 Z" id="XMLID_65_" fill="#FDB913" sketch:type="MSShapeGroup"></path>
                        <path d="M57.5,134.2 C58,134.5 58.1,135.1 57.8,135.5 C57.5,136 56.9,136.1 56.5,135.8 C45.5,129.2 36.6,120 30.5,109.2 C24.4,98.4 21,86 21,73.2 C21,71.6 21.1,70 21.2,68.4 C21.2,67.9 21.7,67.5 22.2,67.5 C22.7,67.5 23.1,68 23.1,68.5 C23,70 22.9,71.6 22.9,73.2 C22.9,85.7 26.2,97.7 32.1,108.2 C38.1,118.8 46.8,127.8 57.5,134.2 L57.5,134.2 Z" id="XMLID_64_" fill="#FDB913" sketch:type="MSShapeGroup"></path>
                        <path d="M107,143 C107.5,142.9 108,143.2 108.1,143.8 C108.2,144.3 107.9,144.8 107.3,144.9 C105.1,145.3 102.8,145.6 100.6,145.8 C98.3,146 96.1,146.1 93.8,146.1 C90,146.1 86.2,145.8 82.4,145.2 C78.6,144.6 74.9,143.7 71.3,142.5 C70.8,142.3 70.5,141.8 70.7,141.3 C70.9,140.8 71.4,140.5 71.9,140.7 C75.4,141.8 79.1,142.7 82.7,143.3 C86.3,143.9 90,144.2 93.8,144.2 C96,144.2 98.2,144.1 100.4,143.9 C102.7,143.7 104.8,143.4 107,143 L107,143 Z" id="XMLID_63_" fill="#FDB913" sketch:type="MSShapeGroup"></path>
                        <path d="M67.5,7.4 C67,7.6 66.4,7.4 66.2,6.9 C66,6.4 66.2,5.8 66.7,5.6 C71,3.9 75.5,2.6 80,1.7 C84.5,0.8 89.2,0.4 93.8,0.4 C98.5,0.4 103.1,0.8 107.7,1.7 C112.3,2.6 116.7,3.9 121.1,5.7 C121.6,5.9 121.8,6.5 121.6,7 C121.4,7.5 120.8,7.7 120.3,7.5 C116.1,5.8 111.7,4.5 107.3,3.7 C102.9,2.8 98.3,2.4 93.8,2.4 C89.3,2.4 84.8,2.8 80.4,3.7 C76,4.4 71.7,5.7 67.5,7.4 L67.5,7.4 Z" id="XMLID_62_" fill="#FDB913" sketch:type="MSShapeGroup"></path>
                        <path d="M38.4,29.1 C38.1,29.5 37.5,29.6 37,29.3 C36.6,29 36.5,28.4 36.8,27.9 C39.5,24.5 42.6,21.3 45.8,18.4 C49.1,15.5 52.6,12.9 56.4,10.7 C56.9,10.4 57.4,10.6 57.7,11 C58,11.5 57.8,12 57.4,12.3 C53.7,14.5 50.3,17 47.1,19.8 C44,22.6 41,25.7 38.4,29.1 L38.4,29.1 Z" id="XMLID_61_" fill="#FDB913" sketch:type="MSShapeGroup"></path>
                        <path d="M13.9,80.6 C15.9,80.6 17.5,79 17.5,77 C17.5,75 15.9,73.4 13.9,73.4 C11.9,73.4 10.3,75 10.3,77 C10.3,79 11.9,80.6 13.9,80.6 L13.9,80.6 Z" id="XMLID_60_" fill="#FFFFFF" sketch:type="MSShapeGroup"></path>
                        <path d="M90.6,79 L61.4,68.9 L61.4,108.2 L90.6,117.9 L90.6,79 Z" id="XMLID_59_" fill="#1887C2" sketch:type="MSShapeGroup"></path>
                        <path d="M90.6,79 L119.8,68.9 L119.8,108.2 L90.6,117.9 L90.6,79 Z" id="XMLID_58_" fill="#1887C2" sketch:type="MSShapeGroup"></path>
                        <path d="M61.4,69 L52.5,58.9 L81.2,48.7 L90.5,58.8 L61.4,69 Z" id="XMLID_57_" fill="#5D9ED5" sketch:type="MSShapeGroup"></path>
                        <path d="M90.5,58.8 L119.8,69 L129.8,58.8 L100.8,49.5 L90.5,58.8 Z" id="XMLID_56_" fill="#87B8E3" sketch:type="MSShapeGroup"></path>
                        <path d="M90.5,58.8 L90.6,79.1 L119.8,69 L90.5,58.8 Z" id="XMLID_55_" fill="#1887C2" sketch:type="MSShapeGroup"></path>
                        <path d="M90.6,79.1 L61.4,69 L61.4,105.2 L90.6,114.9 L90.6,79.1 Z" id="XMLID_54_" fill="#6EA9DB" sketch:type="MSShapeGroup"></path>
                        <path d="M90.6,79.1 L119.8,69 L119.8,105.2 L90.6,114.9 L90.6,79.1 Z" id="XMLID_53_" fill="#5D9ED5" sketch:type="MSShapeGroup"></path>
                        <path d="M90.6,79.1 L90.6,83.8 L80.8,94 L61.4,86.6 L61.4,73.8 L90.6,79.1 Z" id="XMLID_52_" fill="#5D9ED5" sketch:type="MSShapeGroup"></path>
                        <path d="M150.3,138.3 C153.3,138.3 155.7,135.9 155.7,132.9 C155.7,129.9 153.3,127.5 150.3,127.5 C147.3,127.5 144.9,129.9 144.9,132.9 C144.8,135.8 147.3,138.3 150.3,138.3 L150.3,138.3 Z" id="XMLID_51_" fill="#FFFFFF" sketch:type="MSShapeGroup"></path>
                        <path d="M90.6,79.1 L90.6,83.8 L101.1,94 L119.8,87.3 L119.8,69 L90.6,79.1 Z" id="XMLID_50_" fill="#5993CE" sketch:type="MSShapeGroup"></path>
                        <path d="M90.6,79.1 L80.8,89.2 L52.5,78.4 L61.4,69 L90.6,79.1 Z" id="XMLID_49_" fill="#87B8E3" sketch:type="MSShapeGroup"></path>
                        <path d="M90.6,79.1 L101.1,88.8 L129.8,78.6 L119.8,69 L90.6,79.1 Z" id="XMLID_48_" fill="#6EA9DB" sketch:type="MSShapeGroup"></path>
                        <path d="M90.6,79.1 L90.5,58.8 L61.4,69 L90.6,79.1 Z" id="XMLID_47_" fill="#5995CD" sketch:type="MSShapeGroup"></path>
                        <path d="M77.5,54.9 L102.8,35.4 C104.2,34.3 106.3,34.6 107.4,36 L118.6,50.5 C119.7,51.9 119.4,54 118,55.1 L92.7,74.5 C91.3,75.6 89.2,75.3 88.1,73.9 L76.9,59.5 C75.8,58.1 76.1,56 77.5,54.9 L77.5,54.9 Z" id="XMLID_46_" fill="#1887C2" sketch:type="MSShapeGroup"></path>
                        <g id="XMLID_45_">
                            <use fill="none" sketch:type="MSShapeGroup" xlink:href="#path-1"></use>
                            <use fill="#FDCF41" fill-rule="evenodd" xlink:href="#path-1"></use>
                        </g>
                        <path d="M92.3,53.7 L104.7,44.1 L104.2,43.1 L104.2,43.1 C104.2,43 104.1,43 104,43 C103.9,43 103.7,43 103.6,43.1 C103.6,43.1 103.6,43.1 103.5,43.1 L91.9,52 L91.5,50.3 L102.5,41.8 C102.6,41.7 102.7,41.7 102.8,41.6 C103.2,41.4 103.7,41.3 104.1,41.3 C104.6,41.4 105,41.6 105.3,42 C105.3,42.1 105.4,42.1 105.4,42.2 L110.6,51.4 C110.9,51.9 111,52.4 110.9,52.9 C110.8,53.4 110.6,53.9 110.2,54.2 L110.1,54.2 L99.6,62.3 L93.5,67 L92.5,67.7 L92.2,66.5 L88.9,51.4 L84.1,55.1 L83.2,53.9 L89,49.4 L90,48.7 L90.3,49.9 L93.6,65 L98.7,61 L109.2,52.9 L109.3,52.9 C109.4,52.8 109.4,52.7 109.5,52.6 C109.5,52.4 109.5,52.2 109.4,52.1 L106.8,47.5 L93.2,58.2 L92.3,53.7 L92.3,53.7 L92.3,53.7 Z M97.8,58.9 C97.6,59 97.6,59.3 97.7,59.5 L97.7,59.5 C97.8,59.7 98.1,59.7 98.3,59.6 L106.1,53.6 C106.3,53.5 106.3,53.2 106.2,53 L106.2,53 C106.1,52.8 105.8,52.8 105.6,52.9 L97.8,58.9 L97.8,58.9 L97.8,58.9 Z M102.9,52.1 C102.7,52.2 102.7,52.5 102.8,52.7 L102.8,52.7 C102.9,52.9 103.2,52.9 103.4,52.8 L104.9,51.6 C105.1,51.5 105.1,51.2 105,51 L105,51 C104.9,50.8 104.6,50.8 104.4,50.9 L102.9,52.1 L102.9,52.1 L102.9,52.1 Z M97.6,56.2 C97.4,56.3 97.4,56.6 97.5,56.8 L97.5,56.8 C97.6,57 97.9,57 98.1,56.9 L102,53.9 C102.2,53.8 102.2,53.5 102.1,53.3 L102.1,53.3 C102,53.1 101.7,53.1 101.5,53.2 L97.6,56.2 L97.6,56.2 Z" id="Shape" fill="#1E5B83" sketch:type="MSShapeGroup"></path>
                        <g transform="translate(132.000000, 66.000000)" stroke="#255F93" stroke-width="2.2618" sketch:type="MSShapeGroup">
                            <path d="M1.7,3.6 L1.7,0.4" id="XMLID_40_"></path>
                            <path d="M0.1,2 L3.3,2" id="XMLID_39_"></path>
                        </g>
                        <g transform="translate(74.000000, 67.000000)" stroke="#255F93" stroke-width="2.2618" sketch:type="MSShapeGroup">
                            <path d="M2,3.6 L2,0.4" id="XMLID_38_"></path>
                            <path d="M0.4,2 L3.6,2" id="XMLID_37_"></path>
                        </g>
                        <path d="M49,30.4 L65,58.1" id="XMLID_36_" stroke="#286092" stroke-width="2.023" sketch:type="MSShapeGroup"></path>
                        <path d="M54.7,30.4 L59.8,39.4" id="XMLID_35_" stroke="#286092" stroke-width="2.023" sketch:type="MSShapeGroup"></path>
                        <path d="M139.8,34.2 L142,30.4" id="XMLID_34_" stroke="#286092" stroke-width="2.023" sketch:type="MSShapeGroup"></path>
                        <path d="M122.3,64.6 L138.2,37" id="XMLID_33_" stroke="#286092" stroke-width="2.023" sketch:type="MSShapeGroup"></path>
                        <path d="M66.6,60.9 L68.8,64.6" id="XMLID_32_" stroke="#286092" stroke-width="2.023" sketch:type="MSShapeGroup"></path>
                        <circle id="XMLID_31_" stroke="#255F93" stroke-width="2.023" sketch:type="MSShapeGroup" cx="76.2" cy="27.7" r="5.1"></circle>
                        <path d="M77.4,25.7 L76.2,29.6 L74.3,28.9" id="XMLID_30_" stroke="#255F93" stroke-width="2.023" sketch:type="MSShapeGroup"></path>
                        <g transform="translate(122.000000, 50.000000)" stroke="#255F93" stroke-width="1.8369" sketch:type="MSShapeGroup">
                            <path d="M1.7,3.2 L1.7,0.3" id="XMLID_29_"></path>
                            <path d="M0.2,1.7 L3.1,1.7" id="XMLID_28_"></path>
                        </g>
                        <g transform="translate(60.000000, 16.000000)" stroke="#255F93" stroke-width="1.8369" sketch:type="MSShapeGroup">
                            <path d="M1.6,3.4 L1.6,0.5" id="XMLID_27_"></path>
                            <path d="M0.2,1.9 L3.1,1.9" id="XMLID_26_"></path>
                        </g>
                        <g transform="translate(114.000000, 32.000000)" stroke="#255F93" stroke-width="1.8369" sketch:type="MSShapeGroup">
                            <path d="M1.4,3.6 L1.4,0.7" id="XMLID_25_"></path>
                            <path d="M0,2.1 L2.9,2.1" id="XMLID_24_"></path>
                        </g>
                        <g transform="translate(68.000000, 42.000000)" stroke="#255F93" stroke-width="1.8369" sketch:type="MSShapeGroup">
                            <path d="M2,3 L2,0.2" id="XMLID_23_"></path>
                            <path d="M0.6,1.6 L3.5,1.6" id="XMLID_22_"></path>
                        </g>
                        <g transform="translate(90.000000, 22.000000)" stroke="#255F93" stroke-width="1.8365" sketch:type="MSShapeGroup">
                            <path d="M1.4,3.5 L1.4,0.6" id="XMLID_21_"></path>
                            <path d="M0,2.1 L2.8,2.1" id="XMLID_20_"></path>
                        </g>
                        <g transform="translate(49.000000, 67.000000)" stroke="#255F93" stroke-width="1.8369" sketch:type="MSShapeGroup">
                            <path d="M2.1,3.6 L2.1,0.7" id="XMLID_19_"></path>
                            <path d="M0.7,2.1 L3.6,2.1" id="XMLID_18_"></path>
                        </g>
                        <circle id="XMLID_17_" fill="#255F93" sketch:type="MSShapeGroup" cx="34.4" cy="51.8" r="1.7"></circle>
                        <g transform="translate(126.000000, 95.000000)" stroke="#255F93" stroke-width="1.8369" sketch:type="MSShapeGroup">
                            <path d="M1.5,2.9 L1.5,0" id="XMLID_16_"></path>
                            <path d="M0,1.5 L2.9,1.5" id="XMLID_15_"></path>
                        </g>
                        <path d="M113.1,26.2 C114.6,26.2 115.8,25 115.8,23.5 C115.8,22 114.6,20.8 113.1,20.8 C111.6,20.8 110.4,22 110.4,23.5 C110.4,25 111.6,26.2 113.1,26.2 L113.1,26.2 Z" id="XMLID_14_" fill="#255F93" sketch:type="MSShapeGroup"></path>
                        <path d="M129.8,25.8 L132.5,26.6 C132.4,27.6 133,28.5 134,28.8 C134.2,28.9 134.4,28.9 134.6,28.9 C134.3,30.1 134,31.1 133.7,32.1 C132.5,35.4 129.8,36.9 126.3,37.9 C123.9,35.2 122.5,32.5 123.2,29 C123.4,28 123.7,26.9 124.1,25.8 C124.3,25.9 124.5,26 124.7,26.1 C125.7,26.4 126.7,25.9 127.1,25.1 L129.8,25.8 L129.8,25.8 Z" id="XMLID_13_" stroke="#255F93" stroke-width="2.023" sketch:type="MSShapeGroup"></path>
                        <path d="M126.2,30.2 L129.8,31.3 C130,31.4 130.1,31.5 130,31.7 L129.2,34.3 C129.1,34.5 129,34.6 128.8,34.5 L125.2,33.4 C125,33.3 124.9,33.2 125,33 L125.8,30.4 C125.9,30.2 126,30.1 126.2,30.2 L126.2,30.2 L126.2,30.2 Z M127.8,31.7 C127.6,31.6 127.4,31.8 127.3,32 C127.3,32.1 127.3,32.3 127.4,32.4 L127.4,32.4 L127.2,33 C127.2,33.1 127.2,33.2 127.3,33.2 L127.3,33.2 C127.4,33.2 127.5,33.2 127.5,33.1 L127.7,32.5 L127.7,32.5 C127.8,32.5 128,32.4 128,32.2 C128.1,31.9 128,31.7 127.8,31.7 L127.8,31.7 Z" id="Shape" fill="#255F93" sketch:type="MSShapeGroup"></path>
                        <path d="M126.8,30.5 L129.2,31.2 L129.7,29.6 C129.8,29.3 129.6,29 129.3,28.9 L128,28.5 C127.7,28.4 127.4,28.6 127.3,28.9 L126.8,30.5 L126.8,30.5 Z" id="XMLID_10_" stroke="#255F93" stroke-width="1.2138" sketch:type="MSShapeGroup"></path>
                        <path d="M4.2,38.4 C6.2,38.4 7.8,36.8 7.8,34.8 C7.8,32.8 6.2,31.2 4.2,31.2 C2.2,31.2 0.6,32.8 0.6,34.8 C0.7,36.8 2.3,38.4 4.2,38.4 L4.2,38.4 Z" id="XMLID_9_" fill="#FFFFFF" sketch:type="MSShapeGroup"></path>
                        <path d="M190.1,48.7 C192.1,48.7 193.7,47.1 193.7,45.1 C193.7,43.1 192.1,41.5 190.1,41.5 C188.1,41.5 186.5,43.1 186.5,45.1 C186.5,47.1 188.1,48.7 190.1,48.7 L190.1,48.7 Z" id="XMLID_8_" fill="#FFFFFF" sketch:type="MSShapeGroup"></path>
                        <path d="M89.9,122.6 C101.5,122.6 110.8,122.5 110.8,123.4 C110.8,124.3 101.4,126.7 89.9,126.7 C78.3,126.7 69,124.3 69,123.4 C68.9,122.5 78.3,122.6 89.9,122.6 L89.9,122.6 Z" id="XMLID_7_" fill="#D9DBDA" sketch:type="MSShapeGroup"></path>
                        <path d="M50.9,106.8 C52.4,106.8 53.6,105.6 53.6,104.1 C53.6,102.6 52.4,101.4 50.9,101.4 C49.4,101.4 48.2,102.6 48.2,104.1 C48.2,105.6 49.4,106.8 50.9,106.8 L50.9,106.8 Z" id="XMLID_6_" fill="#255F93" sketch:type="MSShapeGroup"></path>
                        <path d="M33.4,26.1 C34.7,26.1 35.7,25.1 35.7,23.8 C35.7,22.5 34.7,21.5 33.4,21.5 C32.1,21.5 31.1,22.5 31.1,23.8 C31.1,25 32.2,26.1 33.4,26.1 L33.4,26.1 Z" id="XMLID_5_" fill="#255F93" sketch:type="MSShapeGroup"></path>
                        <g transform="translate(47.000000, 54.000000)" stroke="#255F93" stroke-width="1.8365" sketch:type="MSShapeGroup">
                            <path d="M2.6,2.5 L0.5,0.5" id="XMLID_4_"></path>
                            <path d="M0.5,2.5 L2.6,0.5" id="XMLID_3_"></path>
                        </g>
                        <g transform="translate(139.000000, 48.000000)" stroke="#255F93" stroke-width="1.8365" sketch:type="MSShapeGroup">
                            <path d="M2.9,2.9 L0.9,0.8" id="XMLID_2_"></path>
                            <path d="M0.9,2.9 L2.9,0.8" id="XMLID_1_"></path>
                        </g>
                    </g>
                </g>
            </g>
        </g>
    </g>
</svg>