<svg id="Layer_1" data-name="Layer 1" xmlns="http://www.w3.org/2000/svg" viewBox="0 0 141.73 141.73"><defs><style>.cls-1,.cls-11,.cls-12,.cls-13,.cls-14,.cls-15,.cls-16,.cls-17{fill:none;}.cls-2,.cls-4{fill:#d9dada;}.cls-14,.cls-15,.cls-2,.cls-9{fill-rule:evenodd;}.cls-3{fill:#fab63c;}.cls-5{fill:#96bee6;}.cls-6,.cls-9{fill:#fbfbfc;}.cls-15,.cls-17,.cls-6,.cls-7,.cls-9{stroke:#255c94;}.cls-12,.cls-13,.cls-14,.cls-15,.cls-16,.cls-17,.cls-6,.cls-7,.cls-9{stroke-linecap:round;stroke-linejoin:round;}.cls-10,.cls-11,.cls-12,.cls-13,.cls-14,.cls-16,.cls-6,.cls-7,.cls-9{stroke-width:1.19px;}.cls-10,.cls-7{fill:#fff;}.cls-8{fill:#255c94;}.cls-10,.cls-11,.cls-12{stroke:#fab63c;}.cls-10,.cls-11{stroke-miterlimit:22.93;}.cls-13,.cls-14{stroke:#3980c3;}.cls-15,.cls-17{stroke-width:1.29px;}.cls-16{stroke:#285d93;}</style></defs><title>0</title><rect class="cls-1" width="141.73" height="141.73"/><path class="cls-2" d="M223.5,405.55H213.18c-3.57,0-3.69,1.16-3.69,4.44,0,2.41-.95,3.18-3,3.17a1.69,1.69,0,0,0-1.68,1.68h0a1.69,1.69,0,0,0,1.68,1.68h8.21a6.52,6.52,0,0,1,6.5,6.5h0a6.52,6.52,0,0,1-6.5,6.5h11.93a7,7,0,0,1,6.93,6.93h0a7,7,0,0,1-6.93,6.93H215.54a2.47,2.47,0,0,0-2.22,2.45h0a2.47,2.47,0,0,0,2.22,2.45H218a5.94,5.94,0,0,1,5.92,5.92h0a5.94,5.94,0,0,1-5.92,5.92H142.09a7.24,7.24,0,0,1-7.22-7.22h0a7.24,7.24,0,0,1,7.22-7.22c1.51,0,2.74-.77,2.74-2.46h0a2.47,2.47,0,0,0-2.46-2.46h-9.48a8.24,8.24,0,0,1-8.21-8.21h0a8.24,8.24,0,0,1,8.21-8.21H152.7a6.9,6.9,0,0,1-6.88-6.88h0a6.9,6.9,0,0,1,6.88-6.88h10.51a2.17,2.17,0,0,0,2.12-2.15h0a2.12,2.12,0,0,0-2.12-2.12h-2.27a7.81,7.81,0,0,1-7.08-7.67h0a7.61,7.61,0,0,1,2.52-5.65h-2.44a5.19,5.19,0,0,1-5.18-5.18h0a5.19,5.19,0,0,1,5.18-5.18h5.8l0.61,0a4.27,4.27,0,0,0,3.62-4.21h0c0-1.08-.47-2-0.47-3.39h0a7.65,7.65,0,0,1,7.62-7.62h30.43a7.65,7.65,0,0,1,7.62,7.62h0a7.65,7.65,0,0,1-7.62,7.62h-0.38a3.82,3.82,0,0,0-3.81,3.81h0a3.82,3.82,0,0,0,3.81,3.81H223.5a7.65,7.65,0,0,1,7.62,7.62h0A7.65,7.65,0,0,1,223.5,405.55Z" transform="translate(-107.8 -341.81)"/><rect class="cls-3" x="38.18" y="29.27" width="10.62" height="7.57" rx="3.78" ry="3.78"/><rect class="cls-4" x="25.97" y="51.88" width="17.63" height="9.99" rx="4.99" ry="4.99"/><rect class="cls-5" x="96.58" y="69.7" width="4.83" height="3.57" rx="1.79" ry="1.79"/><circle class="cls-5" cx="91.62" cy="48.48" r="1.3"/><circle class="cls-3" cx="119.14" cy="82.13" r="2.38"/><rect class="cls-6" x="59.23" y="31.89" width="36.66" height="75.69" rx="4.86" ry="4.86"/><rect class="cls-7" x="61.8" y="42.02" width="31.53" height="54.61"/><circle class="cls-6" cx="77.56" cy="102.08" r="3.21"/><rect class="cls-6" x="73.61" y="38.06" width="7.9" height="1.75" rx="0.88" ry="0.88"/><circle class="cls-8" cx="77.56" cy="35.58" r="0.82"/><path class="cls-9" d="M203.69,389.72c0.38,3.42-1.7,3.79-.66,6.79,1.66,4.79,8.39,1.34,5.64-3.54A5.89,5.89,0,0,0,203.69,389.72Z" transform="translate(-107.8 -341.81)"/><path class="cls-9" d="M201.24,403.35c0.79-.32,1.61-0.62,2.47-0.9,8.35-2.7,10.45,7.06,3.19,8.26-2.57.43-5.43,0.79-7.27-.63C196.39,407.57,197.93,404.7,201.24,403.35Z" transform="translate(-107.8 -341.81)"/><path class="cls-9" d="M203.72,431.65c0.75-1.67.61-2.7-1.12-3.08-2.88-.64-6-3-5.11-6.21l10.84-1C212.2,426,208.64,430.11,203.72,431.65Z" transform="translate(-107.8 -341.81)"/><path class="cls-9" d="M171,411.81c-0.13-2.93-1.6-6.52-1.41-8.36a5.45,5.45,0,0,1,1.13-2.73c4.13-3.75,10.15-7.67,12-13a25.63,25.63,0,0,0,1-4.06c0.81-4.64-1.18-11.33-5.21-5.57l-5,6.61-10.37,9.48c-13.3,10.6-8.61,9.25-12.32,20.77-3.13,9.71-4.19,13.14-13.75,13.14h-3.82a4.67,4.67,0,0,0-4.7,4.64h0a4.71,4.71,0,0,0,4.7,4.7h12.4a4.2,4.2,0,0,1,4.19,4.19h0a4.2,4.2,0,0,1-4.19,4.19h-1.88a4.38,4.38,0,0,0-4.38,4.38h0a4.38,4.38,0,0,0,4.38,4.37c1.65,0,3.09,0,4.37-.13,6.07-.43,18.82-5.59,18.81-12.43l0-13.45C167,424.75,171.75,422,171,411.81Z" transform="translate(-107.8 -341.81)"/><path class="cls-9" d="M196.24,419.26c-0.47,7,16.83,3.83,14.47-2.7-1.84-5.08-7-2.94-10.55-1.31C198.41,416,196.38,417.08,196.24,419.26Z" transform="translate(-107.8 -341.81)"/><rect class="cls-10" x="67.83" y="63.01" width="19.46" height="13.29" rx="1.71" ry="1.71"/><rect class="cls-3" x="67.83" y="65.51" width="19.46" height="3.26" rx="0.42" ry="0.42"/><rect class="cls-11" x="70.53" y="70.82" width="4.42" height="2.87" rx="1.37" ry="1.37"/><line class="cls-12" x1="84.6" y1="73.69" x2="80.53" y2="73.69"/><line class="cls-12" x1="84.6" y1="70.82" x2="78.68" y2="70.82"/><circle class="cls-13" cx="77.56" cy="84.38" r="3.57"/><polyline class="cls-14" points="78.97 83.53 76.97 85.54 75.97 84.55"/><path class="cls-15" d="M215.5,378.49A47.84,47.84,0,0,1,229.58,418" transform="translate(-107.8 -341.81)"/><path class="cls-15" d="M206.73,453.65a47.84,47.84,0,0,1-41.85,3.68" transform="translate(-107.8 -341.81)"/><path class="cls-15" d="M164.25,368.28a47.84,47.84,0,0,1,35.68,0" transform="translate(-107.8 -341.81)"/><path class="cls-15" d="M144.61,382.9a47.83,47.83,0,0,1,12.89-11.28" transform="translate(-107.8 -341.81)"/><circle class="cls-3" cx="23.44" cy="105.87" r="2.38"/><line class="cls-16" x1="23.96" y1="71.81" x2="21.24" y2="71.81"/><line class="cls-16" x1="50.68" y1="71.81" x2="25.97" y2="71.81"/><line class="cls-16" x1="27.3" y1="76.54" x2="24.58" y2="76.54"/><line class="cls-16" x1="54.02" y1="76.54" x2="29.31" y2="76.54"/><line class="cls-17" x1="20.41" y1="57.01" x2="20.41" y2="54.51"/><line class="cls-17" x1="19.16" y1="55.76" x2="21.65" y2="55.76"/><line class="cls-17" x1="32.86" y1="50.02" x2="32.86" y2="48.01"/><line class="cls-17" x1="31.85" y1="49.01" x2="33.86" y2="49.01"/><line class="cls-17" x1="31.21" y1="67.14" x2="31.21" y2="65.13"/><line class="cls-17" x1="30.21" y1="66.14" x2="32.22" y2="66.14"/><line class="cls-17" x1="17.08" y1="82.23" x2="17.08" y2="80.22"/><line class="cls-17" x1="16.07" y1="81.23" x2="18.08" y2="81.23"/><line class="cls-17" x1="44.52" y1="118.22" x2="44.52" y2="116.22"/><line class="cls-17" x1="43.52" y1="117.22" x2="45.53" y2="117.22"/><path class="cls-2" d="M213,371.45h8.53a0.43,0.43,0,0,0,.38-0.42h0a0.43,0.43,0,0,0-.38-0.42h-3a1.36,1.36,0,0,1-1.35-1.35h0a1.36,1.36,0,0,1,1.35-1.35h11.2a1.36,1.36,0,0,1,1.35,1.35h0a1.36,1.36,0,0,1-1.35,1.35h-4.83a0.43,0.43,0,0,0-.42.42h0a0.43,0.43,0,0,0,.42.42H227a1.74,1.74,0,0,1,1.74,1.74h0a1.74,1.74,0,0,1-1.74,1.74H213a1.74,1.74,0,0,1-1.74-1.74h0A1.74,1.74,0,0,1,213,371.45Z" transform="translate(-107.8 -341.81)"/><line class="cls-17" x1="22.77" y1="114.16" x2="22.77" y2="112.15"/><line class="cls-17" x1="21.77" y1="113.15" x2="23.77" y2="113.15"/><line class="cls-16" x1="44.3" y1="101" x2="15.95" y2="101"/><line class="cls-16" x1="51.22" y1="101" x2="47.45" y2="101"/><line class="cls-17" x1="45.43" y1="94.93" x2="45.43" y2="92.92"/><line class="cls-17" x1="44.43" y1="93.92" x2="46.44" y2="93.92"/><line class="cls-17" x1="28.88" y1="90.16" x2="28.88" y2="88.83"/><line class="cls-17" x1="28.21" y1="89.49" x2="29.54" y2="89.49"/><line class="cls-16" x1="79.76" y1="45.22" x2="90.49" y2="56.13"/><line class="cls-16" x1="89.73" y1="51.46" x2="90.18" y2="51.91"/><line class="cls-16" x1="83.06" y1="44.57" x2="88.33" y2="50.03"/></svg>