<?xml version="1.0" standalone="no"?>
<!DOCTYPE svg PUBLIC "-//W3C//DTD SVG 20010904//EN"
 "http://www.w3.org/TR/2001/REC-SVG-20010904/DTD/svg10.dtd">
<svg version="1.0" xmlns="http://www.w3.org/2000/svg"
 width="512.000000pt" height="512.000000pt" viewBox="0 0 512.000000 512.000000"
 preserveAspectRatio="xMidYMid meet">
<metadata>
Created by potrace 1.11, written by Peter Selinger 2001-2013
</metadata>
<g transform="translate(0.000000,512.000000) scale(0.100000,-0.100000)"
fill="#000000" stroke="none">
<path d="M2379 5086 c-2 -2 -35 -6 -74 -10 -402 -37 -822 -189 -1165 -424
-187 -128 -436 -354 -535 -487 -17 -22 -38 -49 -48 -60 -22 -24 -177 -257
-200 -300 -116 -217 -218 -468 -242 -597 -2 -11 -7 -28 -10 -38 -6 -20 -6 -20
-28 -130 -34 -170 -42 -258 -42 -480 0 -209 13 -355 40 -470 1 -3 5 -25 9 -50
26 -152 126 -439 213 -612 38 -75 63 -118 146 -253 98 -159 376 -465 532 -586
195 -152 384 -266 577 -348 101 -43 273 -106 318 -117 8 -1 65 -14 125 -28
127 -29 153 -34 215 -41 25 -3 77 -10 115 -14 71 -9 473 -7 511 2 12 3 45 8
75 12 179 22 433 91 616 167 589 244 1089 730 1341 1303 95 218 166 455 188
630 3 22 7 46 9 53 19 56 27 476 12 612 -49 457 -224 902 -495 1260 -80 105
-122 152 -251 280 -122 121 -314 278 -396 324 -16 9 -52 31 -80 48 -77 47
-203 113 -275 143 -36 15 -78 33 -95 40 -104 47 -349 114 -510 139 -55 8 -116
18 -135 22 -36 6 -455 15 -461 10z"/>
</g>
</svg>
